<svg id="Layer_1" enable-background="new 0 0 512 512" height="512" viewBox="0 0 512 512" width="512" xmlns="http://www.w3.org/2000/svg" xmlns:xlink="http://www.w3.org/1999/xlink">
	<linearGradient id="SVGID_1_" gradientTransform="matrix(1 0 0 -1 0 512.5)" gradientUnits="userSpaceOnUse" x1="256.05" x2="256.05" y1="512.45" y2=".45">
		<stop offset="0" stop-color="#f704fe" />
		<stop offset="1" stop-color="#24bce3" />
	</linearGradient>
	<circle clip-rule="evenodd" cx="256" cy="256" fill="url(#SVGID_1_)" fill-rule="evenodd" r="256" />
	<g id="Layer_x0020_1">
		<g id="_365000248" clip-rule="evenodd" fill="#fffffe" fill-rule="evenodd">
			<path id="_365002312" d="m321.6 204.6c-.3 0-.6 0-.8-.1-1.7-.5-2.7-2.2-2.3-4l3.7-13.8c.2-.8.8-1.5 1.5-2l25.6-14.8c1.5-.9 3.5-.4 4.4 1.2.9 1.5.4 3.5-1.2 4.4l-24.4 14.1-3.4 12.5c-.3 1.5-1.7 2.5-3.1 2.5z" />
			<path id="_365002120" d="m360.9 158.9c-3.6 0-7 2.4-7.9 6.1-1.2 4.4 1.4 8.9 5.8 10.1 2.1.6 4.3.3 6.2-.8s3.3-2.9 3.8-5c1.2-4.4-1.4-8.9-5.8-10.1-.8-.3-1.5-.3-2.1-.3zm0 22.9c-1.3 0-2.6-.2-3.8-.5-7.8-2.1-12.5-10.2-10.4-18s10.2-12.5 18-10.4c7.8 2.1 12.5 10.2 10.4 18-1 3.8-3.4 7-6.8 8.9-2.3 1.3-4.8 2-7.4 2z" />
			<path id="_365001616" d="m190.4 204.6c-1.4 0-2.7-1-3.1-2.4l-3.4-12.5-24.4-14.1c-1.6-.9-2.1-2.9-1.2-4.4s2.9-2.1 4.4-1.2l25.6 14.8c.7.4 1.3 1.1 1.5 2l3.7 13.8c.5 1.7-.6 3.5-2.3 4-.3 0-.6 0-.8 0z" />
			<path id="_365001592" d="m149.1 159.1c-4.4 1.2-7 5.7-5.8 10.1.6 2.1 1.9 3.9 3.8 5s4.1 1.4 6.2.8c4.4-1.2 7-5.7 5.8-10.1-1.2-4.3-5.7-7-10-5.8zm2 22.7c-2.5 0-5.1-.7-7.3-2-3.4-2-5.8-5.1-6.8-8.9-2.1-7.8 2.6-15.9 10.4-18 7.8-2.1 15.9 2.6 18 10.4s-2.6 15.9-10.4 18c-1.4.3-2.6.5-3.9.5z" />
			<path id="_365001784" d="m351 342.5c-.6 0-1.1-.1-1.6-.4l-25.6-14.8c-.7-.4-1.3-1.1-1.5-2l-3.7-13.8c-.5-1.7.6-3.5 2.3-4s3.5.6 4 2.3l3.4 12.5 24.4 14.1c1.5.9 2.1 2.9 1.2 4.4-.8 1.1-1.9 1.7-2.9 1.7z" />
			<path id="_365001568" d="m360.9 336.6c-.7 0-1.4.1-2.1.3-4.4 1.2-7 5.7-5.8 10.1.6 2.1 1.9 3.9 3.8 5s4.1 1.4 6.2.8c2.1-.6 3.9-1.9 5-3.8s1.4-4.1.8-6.2c-.9-3.7-4.3-6.2-7.9-6.2zm0 22.9c-6.5 0-12.4-4.3-14.2-10.9-2.1-7.8 2.6-15.9 10.4-18s15.9 2.6 18 10.4c1 3.8.5 7.7-1.5 11.1s-5.1 5.8-8.9 6.8c-1.3.6-2.6.6-3.8.6z" />
			<path id="_365001328" d="m161.1 342.5c-1.1 0-2.2-.6-2.8-1.6-.9-1.5-.4-3.5 1.2-4.4l24.4-14.1 3.4-12.5c.5-1.7 2.2-2.7 4-2.3 1.7.5 2.8 2.2 2.3 4l-3.7 13.8c-.2.8-.8 1.5-1.5 2l-25.6 14.8c-.7 0-1.2.3-1.7.3z" />
			<path id="_365001712" d="m151.1 336.6c-3.6 0-7 2.4-7.9 6.1-.6 2.1-.3 4.3.8 6.2s2.9 3.3 5 3.8c4.4 1.2 8.9-1.4 10.1-5.8s-1.4-8.9-5.8-10.1c-.7 0-1.4-.2-2.2-.2zm0 22.9c-1.3 0-2.5-.2-3.8-.5-3.8-1-7-3.4-8.9-6.8-2-3.4-2.5-7.4-1.5-11.1 2.1-7.8 10.2-12.5 18-10.4s12.5 10.2 10.4 18c-1.7 6.5-7.7 10.8-14.2 10.8z" />
			<path id="_365001664" d="m368.6 224.4h-34.6c-1.8 0-3.2-1.4-3.2-3.2s1.4-3.2 3.2-3.2h34.6c1.8 0 3.2 1.4 3.2 3.2.1 1.7-1.3 3.2-3.2 3.2z" />
			<path id="_365001808" d="m380.1 212.9c-4.5 0-8.2 3.7-8.2 8.2s3.7 8.2 8.2 8.2 8.2-3.7 8.2-8.2-3.7-8.2-8.2-8.2zm0 23c-8.1 0-14.7-6.6-14.7-14.7s6.6-14.7 14.7-14.7 14.7 6.6 14.7 14.7c0 8-6.7 14.7-14.7 14.7z" />
			<path id="_365001640" d="m177.9 224.4h-34.6c-1.8 0-3.2-1.4-3.2-3.2s1.4-3.2 3.2-3.2h34.7c1.8 0 3.2 1.4 3.2 3.2 0 1.7-1.4 3.2-3.3 3.2z" />
			<path id="_365001880" d="m131.9 212.9c-4.5 0-8.2 3.7-8.2 8.2s3.7 8.2 8.2 8.2 8.2-3.7 8.2-8.2-3.7-8.2-8.2-8.2zm0 23c-8.1 0-14.7-6.6-14.7-14.7s6.6-14.7 14.7-14.7 14.7 6.6 14.7 14.7-6.5 14.7-14.7 14.7z" />
			<path id="_365001256" d="m368.6 294h-34.6c-1.8 0-3.2-1.4-3.2-3.2s1.4-3.2 3.2-3.2h34.6c1.8 0 3.2 1.4 3.2 3.2s-1.3 3.2-3.2 3.2z" />
			<path id="_365000848" d="m380.1 282.6c-4.5 0-8.2 3.7-8.2 8.2s3.7 8.2 8.2 8.2 8.2-3.7 8.2-8.2-3.7-8.2-8.2-8.2zm0 22.9c-8.1 0-14.7-6.6-14.7-14.7s6.6-14.7 14.7-14.7 14.7 6.6 14.7 14.7c0 8.2-6.7 14.7-14.7 14.7z" />
			<path id="_365000776" d="m177.9 294h-34.6c-1.8 0-3.2-1.4-3.2-3.2s1.4-3.2 3.2-3.2h34.7c1.8 0 3.2 1.4 3.2 3.2s-1.4 3.2-3.3 3.2z" />
			<path id="_365000944" d="m131.9 282.6c-4.5 0-8.2 3.7-8.2 8.2s3.7 8.2 8.2 8.2 8.2-3.7 8.2-8.2-3.7-8.2-8.2-8.2zm0 22.9c-8.1 0-14.7-6.6-14.7-14.7s6.6-14.7 14.7-14.7 14.7 6.6 14.7 14.7c0 8.2-6.5 14.7-14.7 14.7z" />
			<path id="_365001064" d="m256 174.2c-1.8 0-3.2-1.4-3.2-3.2v-37c0-1.8 1.4-3.2 3.2-3.2s3.2 1.4 3.2 3.2v37c0 1.9-1.4 3.2-3.2 3.2z" />
			<path id="_365000560" d="m256 114.3c-4.5 0-8.2 3.7-8.2 8.2s3.7 8.2 8.2 8.2 8.2-3.7 8.2-8.2c0-4.4-3.7-8.2-8.2-8.2zm0 22.9c-8.1 0-14.7-6.6-14.7-14.7s6.6-14.7 14.7-14.7 14.7 6.6 14.7 14.7c-.1 8.1-6.6 14.7-14.7 14.7z" />
			<path id="_365000992" d="m256 381.2c-1.8 0-3.2-1.4-3.2-3.2v-37c0-1.8 1.4-3.2 3.2-3.2s3.2 1.4 3.2 3.2v37c0 1.8-1.4 3.2-3.2 3.2z" />
			<path id="_365000464" d="m256 381.2c-4.5 0-8.2 3.7-8.2 8.2s3.7 8.2 8.2 8.2 8.2-3.7 8.2-8.2-3.7-8.2-8.2-8.2zm0 22.9c-8.1 0-14.7-6.6-14.7-14.7s6.6-14.7 14.7-14.7 14.7 6.6 14.7 14.7c-.1 8.1-6.6 14.7-14.7 14.7z" />
			<path id="_365000440" d="m215.9 300.5c.7 0 1.5.3 2.1.8 5.4 4.5 11.4 8 17.9 10.4 1.3.5 2.1 1.7 2.1 3v15.3c0 4.3 3.5 7.7 7.7 7.7h20.6c4.3 0 7.7-3.5 7.7-7.7v-15.4c0-1.4.8-2.6 2.1-3 6.5-2.4 12.6-5.9 17.9-10.4 1-.9 2.5-1 3.7-.3l13.3 7.7c1.8 1 3.9 1.3 5.9.8s3.7-1.8 4.7-3.6l10.3-17.8c1-1.8 1.3-3.9.8-5.9s-1.8-3.7-3.6-4.7l-13.3-7.7c-1.2-.7-1.8-2-1.6-3.4.6-3.4.9-6.9.9-10.4s-.3-7-.9-10.4c-.2-1.3.4-2.7 1.6-3.4l13.3-7.7c1.8-1 3.1-2.7 3.6-4.7s.3-4.1-.8-5.9l-10.2-17.6c-1-1.8-2.7-3.1-4.7-3.6s-4.1-.3-5.9.8l-13.3 7.7c-1.2.7-2.7.5-3.7-.3-5.3-4.5-11.4-8-17.9-10.4-1.3-.5-2.1-1.7-2.1-3v-15.4c0-4.3-3.5-7.7-7.7-7.7h-20.6c-4.3 0-7.7 3.5-7.7 7.7v15.4c0 1.4-.8 2.6-2.1 3-6.5 2.4-12.6 5.9-17.9 10.4-1 .9-2.5 1-3.7.3l-13.3-7.7c-1.8-1-3.9-1.3-5.9-.8s-3.7 1.8-4.7 3.6l-10.3 17.8c-2.1 3.7-.9 8.4 2.8 10.6l13.3 7.6c1.2.7 1.8 2 1.6 3.4-.6 3.4-.9 6.9-.9 10.4s.3 7 .9 10.4c.2 1.3-.4 2.7-1.6 3.4l-13.3 7.7c-1.8 1-3.1 2.7-3.6 4.7s-.3 4.1.8 5.9l10.3 17.8c1 1.8 2.7 3.1 4.7 3.6s4.1.3 5.9-.8l13.3-7.7c.4-.4.8-.5 1.5-.5zm50.3 43.7h-20.6c-7.8 0-14.2-6.4-14.2-14.2v-13.1c-5.7-2.3-11.1-5.4-16-9.2l-11.4 6.6c-3.3 1.9-7.1 2.4-10.8 1.4s-6.7-3.3-8.6-6.6l-10.2-17.9c-1.9-3.3-2.4-7.1-1.4-10.8s3.3-6.7 6.6-8.6l11.4-6.6c-.4-3-.6-6.1-.6-9.2s.2-6.2.6-9.2l-11.4-6.6c-6.8-3.9-9.1-12.6-5.2-19.4l10.3-17.8c1.9-3.3 5-5.6 8.6-6.6 3.7-1 7.5-.5 10.8 1.4l11.4 6.6c4.9-3.8 10.2-6.9 16-9.2v-13.1c0-7.8 6.4-14.2 14.2-14.2h20.6c7.8 0 14.2 6.4 14.2 14.2v13.1c5.7 2.3 11.1 5.4 16 9.2l11.4-6.6c3.3-1.9 7.1-2.4 10.8-1.4s6.7 3.3 8.6 6.6l10.3 17.8c3.9 6.8 1.6 15.5-5.2 19.4l-11.4 6.6c.4 3.1.6 6.1.6 9.2s-.2 6.2-.6 9.2l11.4 6.6c3.3 1.9 5.6 5 6.6 8.6 1 3.7.5 7.5-1.4 10.8l-10.4 17.8c-1.9 3.3-5 5.6-8.6 6.6-3.7 1-7.5.5-10.8-1.4l-11.4-6.6c-4.9 3.8-10.2 6.9-16 9.2v13.2c.1 7.9-6.3 14.2-14.2 14.2z" />
			<path id="_365000608" d="m256 214.6c-22.8 0-41.4 18.6-41.4 41.4s18.6 41.4 41.4 41.4 41.4-18.6 41.4-41.4c.1-22.9-18.5-41.4-41.4-41.4zm0 89.3c-26.4 0-47.9-21.5-47.9-47.9s21.5-47.9 47.9-47.9 47.9 21.5 47.9 47.9-21.5 47.9-47.9 47.9z" />
			<path id="_365000968" d="m245.9 237.9c-2.8 0-5.1 2.3-5.1 5.1v.2c.1 1.7-1.2 3.2-2.9 3.3-2.6.3-4.6 2.5-4.6 5.1 0 2.8 2.3 5.1 5.1 5.1h35.2c2.8 0 5.1-2.3 5.1-5.1 0-2.6-2-4.8-4.6-5.1-1.7-.2-3-1.6-2.9-3.3 0-.1 0-.1 0-.2 0-2.8-2.3-5.1-5.1-5.1-.5 0-.9.1-1.4.2-1.6.5-3.3-.4-3.9-2-.7-2-2.7-3.4-4.8-3.4s-4.1 1.4-4.8 3.4c-.6 1.6-2.3 2.5-3.9 2-.4-.2-.9-.2-1.4-.2zm27.6 25.2h-35.2c-6.4 0-11.6-5.2-11.6-11.6 0-5 3.2-9.3 7.7-10.9 1.1-5.3 5.8-9.3 11.4-9.3h.4c2.1-3.2 5.7-5.2 9.7-5.2 3.9 0 7.5 2 9.7 5.2h.4c5.6 0 10.3 4 11.4 9.3 4.5 1.6 7.7 5.9 7.7 10.9 0 6.5-5.1 11.6-11.6 11.6z" />
			<path id="_365000272" d="m242.9 275.6c-1.8 0-3.2-1.4-3.2-3.2v-12.5c0-1.8 1.4-3.2 3.2-3.2s3.2 1.4 3.2 3.2v12.5c0 1.8-1.5 3.2-3.2 3.2z" />
			<path id="_364999672" d="m269.1 275.6c-1.8 0-3.2-1.4-3.2-3.2v-12.5c0-1.8 1.4-3.2 3.2-3.2s3.2 1.4 3.2 3.2v12.5c.1 1.8-1.4 3.2-3.2 3.2z" />
			<path id="_364999960" d="m242.9 275.6c-1.6 0-2.8 1.3-2.8 2.8 0 1.6 1.3 2.8 2.8 2.8 1.6 0 2.8-1.3 2.8-2.8.1-1.4-1.3-2.8-2.8-2.8zm0 12.2c-5.1 0-9.3-4.2-9.3-9.3s4.2-9.3 9.3-9.3 9.3 4.2 9.3 9.3-4.1 9.3-9.3 9.3z" />
			<path id="_364999912" d="m269.1 275.6c-1.6 0-2.8 1.3-2.8 2.8 0 1.6 1.3 2.8 2.8 2.8 1.6 0 2.8-1.3 2.8-2.8.1-1.4-1.3-2.8-2.8-2.8zm0 12.2c-5.1 0-9.3-4.2-9.3-9.3s4.2-9.3 9.3-9.3 9.3 4.2 9.3 9.3c.1 5.1-4.2 9.3-9.3 9.3z" />
		</g>
	</g>
</svg>
