<svg id="Layer_1" enable-background="new 0 0 512 512" height="512" viewBox="0 0 512 512" width="512" xmlns="http://www.w3.org/2000/svg" xmlns:xlink="http://www.w3.org/1999/xlink"><linearGradient id="SVGID_1_" gradientTransform="matrix(1 0 0 -1 0 512.39)" gradientUnits="userSpaceOnUse" x1="256.05" x2="256.05" y1="512.34" y2=".34"><stop offset="0" stop-color="#f704fe"/><stop offset="1" stop-color="#24bce3"/></linearGradient><circle clip-rule="evenodd" cx="256" cy="256" fill="url(#SVGID_1_)" fill-rule="evenodd" r="256"/><g id="Layer_x0020_1"><g id="_458533920" clip-rule="evenodd" fill="#fffffe" fill-rule="evenodd"><path id="_453338272" d="m114.3 374.4h283.3v-26h-254c-1.8 0-3.2-1.4-3.2-3.2v-207.6h-26zm286.6 6.5h-289.7c-1.8 0-3.2-1.4-3.2-3.2v-243.1c0-1.8 1.4-3.2 3.2-3.2h32.5c1.8 0 3.2 1.4 3.2 3.2v207.4h254.1c1.8 0 3.2 1.4 3.2 3.2v32.5c-.1 1.7-1.6 3.2-3.3 3.2z"/><path id="_453338128" d="m192.1 348.4c-1.8 0-3.2-1.4-3.2-3.2v-82.4c0-1.8 1.4-3.2 3.2-3.2s3.2 1.4 3.2 3.2v82.4c-.1 1.7-1.4 3.2-3.2 3.2zm45.7 0c-1.8 0-3.2-1.4-3.2-3.2v-82.4c0-1.8 1.4-3.2 3.2-3.2s3.2 1.4 3.2 3.2v82.4c-.1 1.7-1.4 3.2-3.2 3.2z"/><path id="_453338080" d="m320.8 348.4c-1.8 0-3.2-1.4-3.2-3.2v-48.5c0-1.8 1.4-3.2 3.2-3.2s3.2 1.4 3.2 3.2v48.5c0 1.7-1.5 3.2-3.2 3.2zm45.7 0c-1.8 0-3.2-1.4-3.2-3.2v-48.5c0-1.8 1.4-3.2 3.2-3.2s3.2 1.4 3.2 3.2v48.5c-.1 1.7-1.6 3.2-3.2 3.2z"/><path id="_453337432" d="m400.9 299.9h-114.5c-1.8 0-3.2-1.4-3.2-3.2v-27.7c0-11.6 6.3-19.3 18.4-22.1l23.9-5.7c1.7-.4 3.5.7 3.9 2.4s-.7 3.5-2.4 3.9l-23.9 5.7c-9.1 2.2-13.4 7.4-13.4 15.8v24.4h108.1v-24.4c0-8.5-4.4-13.7-13.4-15.8l-23.9-5.7c-1.7-.4-2.8-2.2-2.4-3.9s2.2-2.8 3.9-2.4l23.9 5.7c12 2.9 18.4 10.5 18.4 22.1v27.6c-.2 1.9-1.7 3.3-3.4 3.3z"/><path id="_453337288" d="m326.1 247.6c-1.8 0-3.2-1.4-3.2-3.2v-12.2c0-1.8 1.4-3.2 3.2-3.2s3.2 1.4 3.2 3.2v12.1c.1 1.8-1.3 3.3-3.2 3.3z"/><path id="_453337144" d="m361 247.6c-1.8 0-3.2-1.4-3.2-3.2v-12.2c0-1.8 1.4-3.2 3.2-3.2s3.2 1.4 3.2 3.2v12.1c.2 1.8-1.3 3.3-3.2 3.3z"/><path id="_453337816" d="m343.6 261.9c-.8 0-1.4-.3-2-.8l-17.5-14.4c-1.4-1.2-1.6-3.1-.4-4.6 1.2-1.4 3.2-1.6 4.6-.4l15.4 12.7 15.4-12.7c1.4-1.2 3.4-1 4.6.4s1 3.4-.4 4.6l-17.5 14.4c-.8.7-1.4.8-2.2.8z"/><path id="_453337216" d="m358.4 268.8c-.5 0-.9-.1-1.4-.3l-13.4-6.2-13.4 6.2c-1.4.6-3.1.2-4-1l-13.8-18.6c-1.1-1.4-.8-3.5.7-4.5 1.4-1.1 3.5-.8 4.5.7l12.2 16.5 12.4-5.7c.9-.4 1.8-.4 2.7 0l12.4 5.7 12.2-16.5c1.1-1.4 3.1-1.7 4.5-.7 1.4 1.1 1.7 3.1.7 4.5l-13.8 18.6c-.5.9-1.5 1.3-2.5 1.3z"/><path id="_453337312" d="m349.2 278.2h-11.4c-1.4 0-2.6-.9-3.1-2.2l-4.2-11.7c-.6-1.7.3-3.5 2-4.1s3.5.3 4.1 2l3.4 9.6h6.8l3.4-9.6c.6-1.7 2.5-2.5 4.1-2 1.7.6 2.6 2.5 2 4.1l-4.2 11.7c-.2 1.5-1.5 2.2-2.9 2.2z"/><path id="_453337720" d="m334.9 299.9c-.1 0-.3 0-.5 0-1.8-.3-3-1.9-2.7-3.7l3-21.6c.3-1.8 1.9-3 3.6-2.7 1.8.3 3 1.9 2.7 3.6l-3 21.6c-.1 1.7-1.5 2.8-3.1 2.8zm17.3 0c-1.6 0-3-1.2-3.2-2.8l-3-21.6c-.3-1.8 1-3.4 2.7-3.6 1.8-.3 3.4 1 3.6 2.7l3 21.6c.3 1.8-1 3.4-2.7 3.7 0 0-.1 0-.4 0z"/><path id="_453337600" d="m322.4 198.8v16.2c0 11.7 9.6 21.3 21.3 21.3s21.3-9.6 21.3-21.3v-15.1c-6-2-9.4-4.8-11.3-6.9-5.5 2.5-17.3 7.1-23.8 4.2-3.4-1.6-6.3.4-7.5 1.6zm21.2 44c-15.3 0-27.8-12.4-27.8-27.7v-17.5c0-.8.3-1.5.8-2 2.3-2.8 8.6-7.3 15.8-4.1 3.8 1.6 14.4-2 20.8-5.3.8-.4 1.7-.5 2.5-.2s1.5.9 1.8 1.7c.1.1 2.5 4.5 11.4 6.8 1.4.3 2.4 1.6 2.4 3.1v17.5c.1 15.1-12.3 27.7-27.7 27.7z"/><path id="_453337888" d="m376 210.2c-1.8 0-3.2-1.4-3.2-3.2v-6.1c0-16.1-13.1-29.2-29.2-29.2s-29.2 13.1-29.2 29.2v6.1c0 1.8-1.4 3.2-3.2 3.2s-3.2-1.4-3.2-3.2v-6.1c0-19.7 16-35.7 35.7-35.7s35.7 16 35.7 35.7v6.1c0 1.8-1.5 3.2-3.4 3.2z"/><path id="_453337456" d="m317.5 225.4c-6.8 0-12.2-5.4-12.2-12.1s5.5-12.1 12.2-12.1c.7 0 1.4.1 2 .1 1.8.3 2.9 2 2.7 3.8-.3 1.8-2 2.9-3.8 2.7-.3-.1-.7-.1-1-.1-3.1 0-5.7 2.5-5.7 5.6s2.6 5.6 5.7 5.6c.5 0 1.1-.1 1.6-.2 1.7-.5 3.5.5 4 2.3s-.5 3.5-2.3 4c-.9.1-1.9.4-3.2.4z"/><path id="_453337264" d="m369.6 225.4c-1.2 0-2.3-.1-3.3-.5-1.7-.5-2.7-2.3-2.3-4s2.3-2.7 4-2.3c.5.1 1 .2 1.6.2 3.1 0 5.7-2.5 5.7-5.6s-2.6-5.6-5.7-5.6c-.3 0-.7 0-1 .1-1.8.3-3.4-.9-3.8-2.7-.3-1.8.9-3.4 2.7-3.8.7-.1 1.4-.1 2-.1 6.8 0 12.2 5.4 12.2 12.1.2 6.7-5.3 12.2-12.1 12.2z"/><path id="_458534832" d="m270.8 265.9h-111.7c-1.8 0-3.2-1.4-3.2-3.2v-26.9c0-14.7 10.6-19.8 18.5-22.5l21.8-7.2c1.7-.5 3.5.3 4.1 2 .5 1.7-.3 3.5-2 4.1l-21.9 7.1c-10 3.3-14.1 8-14.1 16.3v23.7h105.2v-23.7c0-8.3-4.1-13-14.1-16.3l-21.8-7.2c-1.7-.5-2.6-2.4-2-4.1.5-1.7 2.4-2.6 4.1-2l21.8 7.2c7.9 2.6 18.5 7.8 18.5 22.5v26.9c0 1.8-1.5 3.3-3.2 3.3z"/><path id="_458534712" d="m232.6 212.4c-1.8 0-3.2-1.4-3.2-3.2v-12.4c0-1.8 1.4-3.2 3.2-3.2s3.2 1.4 3.2 3.2v12.4c.1 1.9-1.4 3.2-3.2 3.2z"/><path id="_458534592" d="m197.1 212.4c-1.8 0-3.2-1.4-3.2-3.2v-12.4c0-1.8 1.4-3.2 3.2-3.2s3.2 1.4 3.2 3.2v12.4c.1 1.9-1.4 3.2-3.2 3.2z"/><path id="_458534664" d="m214.9 225.2c-2.2 0-4.4-.8-6.2-2.3l-13.7-11.3c-1.4-1.2-1.6-3.1-.4-4.6 1.2-1.4 3.2-1.6 4.6-.4l13.7 11.3c1.2 1 2.9 1 4.2 0l13.7-11.3c1.4-1.2 3.4-1 4.6.4s1 3.4-.4 4.6l-13.7 11.3c-1.9 1.5-4.2 2.5-6.4 2.3z"/><path id="_458534904" d="m193.1 163.9v15.4c0 12 9.8 21.8 21.8 21.8s21.8-9.8 21.8-21.8v-16.5c-2-1.5-5.9-1.7-10.6-2-6.1-.3-13.4-.8-21.4-4.1-1.8 2.2-5.3 5.2-11.6 7.2zm21.8 43.7c-15.6 0-28.3-12.7-28.3-28.3v-17.9c0-1.5 1-2.7 2.4-3.1 9.1-2.4 11.6-6.9 11.7-7 .3-.8 1-1.4 1.8-1.6.8-.3 1.7-.1 2.5.2 7.6 3.8 14.9 4.2 21.3 4.5 6.7.3 12.4.7 16 5.1.5.5.8 1.3.8 2v17.9c0 15.5-12.5 28.2-28.2 28.2z"/><path id="_458534544" d="m241.4 189.9c-1.2 0-2.3-.1-3.4-.5-1.7-.5-2.7-2.3-2.3-4 .5-1.7 2.3-2.7 4-2.3.5.1 1.1.2 1.6.2 3.3 0 5.9-2.6 5.9-5.8s-2.7-5.8-5.9-5.8c-.3 0-.7 0-1 .1-1.8.3-3.4-.9-3.8-2.7-.3-1.8.9-3.4 2.7-3.8.7-.1 1.4-.2 2.1-.2 6.8 0 12.4 5.5 12.4 12.3.2 6.8-5.3 12.5-12.3 12.5z"/><path id="_458534376" d="m188.4 189.9c-6.8 0-12.4-5.5-12.4-12.3s5.5-12.3 12.4-12.3c.7 0 1.4.1 2.1.2 1.8.3 2.9 2 2.7 3.8-.3 1.8-2 2.9-3.8 2.7-.3-.1-.7-.1-1-.1-3.3 0-5.9 2.6-5.9 5.8s2.7 5.8 5.9 5.8c.5 0 1.1-.1 1.6-.2 1.7-.5 3.5.5 4 2.3s-.5 3.5-2.3 4c-1.1 0-2.3.3-3.3.3z"/><path id="_458534352" d="m214.9 265.9c-.8 0-1.6-.3-2.3-1-1.2-1.3-1.2-3.3 0-4.6l22.9-22.7-4.2-5.6c-1-1.4-.8-3.3.5-4.4l6.5-5.3-8.3-11.1c-1.1-1.4-.8-3.5.7-4.5 1.4-1.1 3.5-.8 4.5.7l10.2 13.7c1 1.4.8 3.3-.5 4.4l-6.5 5.3 4 5.4c1 1.3.8 3.1-.3 4.2l-25 24.6c-.5.5-1.3.9-2.2.9z"/><path id="_458534304" d="m214.9 265.9c-.8 0-1.6-.3-2.3-1l-24.9-24.6c-1.2-1.2-1.3-2.9-.3-4.2l4-5.4-6.5-5.3c-1.4-1.1-1.6-3.1-.5-4.4l10.2-13.7c1.1-1.4 3.1-1.7 4.5-.7 1.4 1.1 1.7 3.1.7 4.5l-8.3 11.1 6.5 5.3c1.4 1.1 1.6 3.1.5 4.4l-4.2 5.6 22.9 22.7c1.3 1.2 1.3 3.3 0 4.6-.6.7-1.4 1.1-2.3 1.1z"/><path id="_458533776" d="m214.9 265.9c-.3 0-.7-.1-1-.1-1.7-.5-2.6-2.4-2-4.1l17.8-53.5c.5-1.7 2.4-2.6 4.1-2 1.7.5 2.6 2.4 2 4.1l-17.8 53.5c-.4 1.2-1.8 2.1-3.1 2.1z"/><path id="_458534160" d="m214.9 265.9c-1.4 0-2.6-.9-3.1-2.2l-17.7-53.5c-.5-1.7.3-3.5 2-4.1 1.7-.5 3.5.3 4.1 2l17.7 53.4c.5 1.7-.3 3.5-2 4.1-.3.3-.7.3-1 .3z"/><path id="_458533728" d="m181.4 174.8c-1.8 0-3.2-1.4-3.2-3.2v-10.9c0-16.2 13.2-29.4 29.4-29.4h14.5c16.2 0 29.4 13.2 29.4 29.4v10.9c0 1.8-1.4 3.2-3.2 3.2s-3.2-1.4-3.2-3.2v-10.9c0-12.6-10.3-22.9-22.9-22.9h-14.5c-12.6 0-22.9 10.3-22.9 22.9v10.9c-.2 1.6-1.6 3.2-3.4 3.2z"/></g></g></svg>