<svg id="Layer_1" enable-background="new 0 0 450 450" height="512" viewBox="0 0 450 450" width="512" xmlns="http://www.w3.org/2000/svg" xmlns:xlink="http://www.w3.org/1999/xlink"><linearGradient id="SVGID_1_" gradientTransform="matrix(1 0 0 -1 0 450)" gradientUnits="userSpaceOnUse" x1="39.4" x2="415.15" y1="395.6" y2="19.85"><stop offset="0" stop-color="#00dbde"/><stop offset="1" stop-color="#fc00ff"/></linearGradient><path d="m440 350.7v54.6h-430v-54.6h130.8v27.3c0 2.8 2.3 5.1 5.1 5.1h158.1c2.8 0 5.1-2.3 5.1-5.1v-27.3zm-12.2-279.2v269h-15.5v-174.4h2.7c2.8 0 5.1-2.3 5.1-5.1v-89.5zm-207-26.8v146.6l48.5-34.4c.9-.6 1.9-.9 2.9-.9h137.8v-111.3zm96.8 51.1-16.9 15.8 4.4 22.7c.4 1.9-.4 3.9-2 5.1-.9.6-2 1-3 1-.9 0-1.7-.2-2.5-.6l-20.3-11.2-20.3 11.2c-1.7.9-3.9.8-5.5-.4s-2.4-3.1-2-5.1l4.4-22.7-16.9-15.8c-1.4-1.4-2-3.4-1.4-5.3s2.2-3.2 4.2-3.5l23-2.9 9.8-21c.9-1.8 2.6-2.9 4.6-2.9s3.8 1.1 4.6 2.9l9.8 20.9 23 2.9c2 .2 3.6 1.6 4.2 3.5.8 2 .2 4-1.2 5.4zm76.1 1.9-12.6 11.8 3.3 16.9c.4 1.9-.4 3.9-2 5.1s-3.7 1.3-5.5.4l-15.1-8.3-15.1 8.3c-.8.4-1.6.6-2.5.6-1 0-2.1-.3-3-1-1.6-1.2-2.4-3.1-2-5.1l3.2-16.9-12.6-11.8c-1.5-1.4-2-3.4-1.4-5.3s2.3-3.2 4.2-3.5l17.1-2.2 7.3-15.6c.8-1.8 2.6-2.9 4.6-2.9s3.8 1.1 4.6 2.9l7.3 15.6 17.1 2.2c2 .2 3.6 1.6 4.2 3.5.8 1.8.3 3.9-1.1 5.3zm-119.9 68.4-55.2 39.1c-.9.6-1.9.9-2.9.9-.8 0-1.6-.2-2.3-.6-1.7-.9-2.8-2.6-2.8-4.5v-104h-162.8v243.4h354.3v-174.3zm-14.2 43.6h76.7c2.8 0 5.1 2.3 5.1 5.1s-2.3 5.1-5.1 5.1h-76.7c-2.8 0-5.1-2.3-5.1-5.1s2.3-5.1 5.1-5.1zm-25.3 109.3c-1 1.1-2.3 1.7-3.8 1.7h-164.8c-1.4 0-2.8-.6-3.8-1.7s-1.4-2.5-1.3-3.9l3.5-37c2.5-26.9 14.9-41.6 34.8-41.6h22.7v-14.5c-.6-.5-1.3-1.1-1.9-1.7-11.2-10.1-18.1-23.8-19-37.6-2.8-5-10.3-22.5 7.4-46.2 8.5-11.3 21.2-18.6 34-19.5 11.4-.8 22 3.4 30.6 12.1.2.2.4.4.5.6 4.2 5.9 6.5 5.4 9.6 4.8 3.3-.6 10.1-1.9 13.6 8.2 3 8.7 6.5 25.1-2.3 38.8-.5 14.3-7.6 28.6-19.3 39.1v15.9h23c11.8 0 20.8 4.8 26.7 14.3 4.1 6.6 6.6 15.6 7.7 27.3l3.5 37c.1 1.4-.4 2.9-1.4 3.9zm143.9-3.5h-118.6c-2.8 0-5.1-2.3-5.1-5.1s2.3-5.1 5.1-5.1h118.6c2.8 0 5.1 2.3 5.1 5.1s-2.3 5.1-5.1 5.1zm0-31.8h-118.6c-2.8 0-5.1-2.3-5.1-5.1s2.3-5.1 5.1-5.1h118.6c2.8 0 5.1 2.3 5.1 5.1s-2.3 5.1-5.1 5.1zm0-31.9h-118.6c-2.8 0-5.1-2.3-5.1-5.1s2.3-5.1 5.1-5.1h118.6c2.8 0 5.1 2.3 5.1 5.1s-2.3 5.1-5.1 5.1zm-7.6-143.2 1.7 9-8.1-4.4c-1.5-.8-3.4-.8-4.9 0l-8.1 4.4 1.7-9c.3-1.7-.2-3.5-1.5-4.7l-6.7-6.3 9.1-1.1c1.7-.2 3.2-1.3 4-2.9l3.9-8.3 3.9 8.3c.7 1.6 2.2 2.7 4 2.9l9.1 1.1-6.7 6.3c-1.2 1.2-1.8 3-1.4 4.7zm-80.4 2.2 2.8 14.8-13.2-7.3c-1.5-.8-3.4-.8-4.9 0l-13.2 7.3 2.8-14.8c.3-1.7-.2-3.5-1.5-4.7l-11-10.3 15-1.9c1.7-.2 3.2-1.3 4-2.9l6.4-13.7 6.4 13.7c.7 1.6 2.2 2.7 4 2.9l15 1.9-11 10.3c-1.4 1.2-1.9 3-1.6 4.7zm-139.2 239.9h148v22.2h-148zm46.9-40.2v-18.4c0-2.8-2.3-5.1-5.1-5.1s-5.1 2.3-5.1 5.1v18.4h-79.1v-18.4c0-2.8-2.3-5.1-5.1-5.1s-5.1 2.3-5.1 5.1v18.4h-27.1l3-31.5c2-21.5 10.3-32.4 24.6-32.4h25.5l17.4 18.3-11.1 19.3c-1.4 2.4-.6 5.5 1.9 7 2.4 1.4 5.6.5 7-1.9l8.6-14.9 8.6 14.9c.9 1.6 2.7 2.6 4.4 2.6.9 0 1.7-.2 2.5-.7 2.4-1.4 3.3-4.5 1.9-7l-11.1-19.3 17.4-18.3h25.9c14.6 0 22.1 10 24.3 32.4l3 31.5zm12.7-239v15.5h-167.9c-2.8 0-5.1 2.3-5.1 5.1v248.5h-15.4v-269h188.4zm-23.9 74.5c1.2 3.6 2.6 8.7 2.7 14.3-4.9-7.6-13.6-12.7-25.3-14.3-20.2-2.8-45.4 5.7-57.3 21.1-.1-6.1 1.8-14.4 9.4-24.4 6.8-9 16.7-14.8 26.6-15.5.6 0 1.3-.1 1.9-.1 7.5 0 14.5 3.1 20.4 8.9 7.9 10.7 15.4 9.3 19.5 8.5.4-.1.9-.2 1.3-.2.2.3.5.8.8 1.7zm-23.9 10.1c10.2 1.4 22.2 6.6 21.1 23.4v.3c-.1 12.5-6.6 25.3-17.4 34.3-14.3 11.8-23.1 12.5-36.5 1.6-1.1-.9-2.3-1.9-3.5-3-9.4-8.5-15.1-19.8-15.7-31.2 4.2-17 31.8-28.1 52-25.4zm9.4 21.5c0-2.8-2.3-5.1-5.1-5.1h-7.1c-2.8 0-5.1 2.3-5.1 5.1s2.3 5.1 5.1 5.1h7.2c2.7 0 5-2.3 5-5.1zm-11.1 24.3c0-2.8-2.3-5.1-5.1-5.1h-17.3c-2.8 0-5.1 2.3-5.1 5.1s2.3 5.1 5.1 5.1h17.3c2.8.1 5.1-2.2 5.1-5.1zm-21.3-24.3c0-2.8-2.3-5.1-5.1-5.1h-7.2c-2.8 0-5.1 2.3-5.1 5.1s2.3 5.1 5.1 5.1h7.2c2.8 0 5.1-2.3 5.1-5.1zm24.7 50.5v8.3h-32.8v-7.1c5.3 3 10.3 4.5 15.3 4.5 5.7 0 11.4-1.9 17.5-5.7zm-6.7 18.5-9.6 10.1-9.6-10.1z" fill="url(#SVGID_1_)"/></svg>