<svg clip-rule="evenodd" fill-rule="evenodd" height="150px" image-rendering="optimizeQuality" shape-rendering="geometricPrecision" text-rendering="geometricPrecision" viewBox="0 0 11.8056 11.8056" width="150px" xmlns="http://www.w3.org/2000/svg" xmlns:xlink="http://www.w3.org/1999/xlink">
	<g id="Layer_x0020_1">
		<path d="m11.8055 5.90278c0-3.26002-2.64276-5.90279-5.90278-5.90279s-5.90279 2.64276-5.90279 5.90279c0 3.26002 2.64276 5.90279 5.90279 5.90279 3.26002 0 5.90278-2.64276 5.90278-5.90279z" fill="url(#id0)" />
		<g id="_644703960">
			<g>
				<g>
					<g>
						<path id="_244516280" d="m5.31204 8.45174c-.0499803 0-.0930157-.038874-.0971811-.0888543-.00138976-.00833071-.0499803-.460921-.621969-.946835-.0374882-.0319331-.045815-.0874646-.0180512-.127728.0111063-.0166575 1.1412-1.72707 1.21201-2.44483.00555118-.0527559.0527559-.0930157.106902-.0874646.0527559.00555512.0930157.0527559.0874646.106902-.0680276.685831-.977382 2.12136-1.19813 2.4615.578933.522008.623358 1.00098.624748 1.0218.00416535.0541457-.0360984.0999606-.0888543.104126-.00277559.00138976-.00555118.00138976-.00694094.00138976z" fill="#667dff" />
					</g>
					<g>
						<path id="_244515728" d="m6.36023 8.46562c-.00416535 0-.00694488 0-.0111063 0-.0527598-.00555118-.0916299-.0527559-.0860787-.106902.00277953-.0208228.0597008-.498406.652512-1.00515-.211024-.345693-1.08011-1.80482-1.1287-2.49343-.00416535-.0541457.0360945-.0999606.0902402-.104126.0541457-.00416535.0999567.0360984.104122.0902402.0499803.719154 1.13426 2.45872 1.14537 2.47677.026378.0416496.0166614.0957953-.0222126.127728-.58726.470642-.646957.924622-.648346.928787-.00555118.0499803-.0472008.0860748-.0957913.0860748z" fill="#667dff" />
					</g>
					<g>
						<path id="_244515896" d="m6.3519 9.02233h-1.04819c-.026378 0-.0513661-.0111063-.0694173-.0291535-.0180472-.0180472-.0277638-.0430394-.0277638-.0694173l.00833071-.570598c0-.026378.0111063-.0499803.0291535-.0680276.0180472-.0180512.0430394-.0277677.0694173-.0277677l1.04818.0152717c.026378 0 .0499803.0111063.0680276.0291535.0180512.0180512.0277677.0430394.0277677.0694173l-.00833071.555331c-.00138583.0527559-.0444252.0957913-.0971811.0957913zm-.949614-.194362h.853819l.00555512-.362354-.853819-.0124961-.00555512.37485z" fill="#667dff" />
					</g>
					<g>
						<path id="_244516208" d="m5.85765 6.88709c-.00138976 0-.00138976 0 0 0-.0555315-.00138583-.0985709-.0444252-.0971811-.0985709l.026378-1.93532c.00138583-.0541457.0444252-.097185.0985709-.0957953.0541417.00138583.0971811.0444252.0957953.0985709l-.0263819 1.93532c-.00138583.0527598-.0444252.0957953-.0971811.0957953z" fill="#667dff" />
					</g>
					<g>
						<path id="_244515872" d="m5.85626 7.43409c-.00277559 0-.00416142 0-.00694094 0-.0999567-.00138976-.191587-.0416496-.261004-.112453-.0694173-.0708071-.106902-.165213-.105512-.263783.00277559-.202693.169374-.365126.370681-.365126h.00555118c.0999606.00138583.191591.0416496.261008.112453.0694134.0708031.106902.165209.105512.26378-.00138976.0985709-.0416496.192976-.113843.262394-.0694173.0666417-.159657.102736-.255453.102736zm-.00277559-.547c-.0971811 0-.176315.077748-.176315.173543 0 .0472008.0166575.091626.0499764.126335.0333189.0333189.077748.0527559.124949.0527559.045815.00138976.0902441-.0166575.124949-.0499803.0347087-.0333189.0527598-.0777441.0541457-.124949 0-.0472008-.0166614-.0916299-.0499803-.126335-.0333189-.0333189-.0777441-.0527559-.124949-.0527559-.00138583.00138583-.00138583.00138583-.00277559.00138583z" fill="#667dff" />
					</g>
				</g>
				<g>
					<path id="_244515920" d="m8.03593 5.3058c-.0541457 0-.097185-.0430394-.097185-.0971811 0-.756638-.619189-1.42303-1.50633-1.61878-.0527598-.0111063-.0860787-.0638661-.0735827-.115232.0111063-.0527559.0638622-.0860748.115228-.0735827.977382.216579 1.65905.96072 1.65905 1.80898 0 .0527598-.0430394.0957953-.0971811.0957953zm-4.26631 0c-.0541457 0-.097185-.0430394-.097185-.0971811 0-.848268.681669-1.59241 1.65766-1.80898.0527559-.0111063.104126.0208228.115232.0735787.0111063.0527559-.0208268.104126-.0735827.115232-.885748.198531-1.50494.863535-1.50494 1.62017 0 .0541457-.0430394.0971811-.0971811.0971811z" fill="#667dff" />
				</g>
				<g>
					<path id="_244515752" d="m8.86615 3.53291h-2.40874c-.0541457 0-.0971811-.0430354-.0971811-.0971811s.0430354-.0971811.0971811-.0971811h2.41013c.0541417 0 .0971811.0430394.0971811.0971811 0 .0541457-.0444252.0971811-.0985709.0971811zm-3.51801 0h-2.41013c-.0541457 0-.097185-.0430354-.097185-.0971811s.0430394-.0971811.097185-.0971811h2.41013c.0541457 0 .097185.0430394.097185.0971811 0 .0541457-.0430394.0971811-.097185.0971811z" fill="#667dff" />
				</g>
				<g>
					<path id="_244516160" d="m5.90208 4.08685c-.358185 0-.651122-.292937-.651122-.652512 0-.358189.291547-.651126.651122-.651126.359579 0 .652512.291547.652512.651126 0 .360961-.292933.652512-.652512.652512zm0-1.10788c-.251283 0-.456756.205469-.456756.456756 0 .252677.205472.45815.456756.45815.252677 0 .45815-.205472.45815-.45815 0-.252673-.205472-.456756-.45815-.456756z" fill="#667dff" />
				</g>
				<g>
					<path id="_244515368" d="m3.76962 5.79865c-.188811 0-.342917-.154102-.342917-.342913 0-.188815.154106-.342917.342917-.342917s.342913.154102.342913.342917c0 .188811-.154102.342913-.342913.342913zm0-.492854c-.0819134 0-.148551.0666417-.148551.148551 0 .0819094.0666378.148551.148551.148551.0819094 0 .148547-.0666417.148547-.148551 0-.0819094-.0666378-.148551-.148547-.148551z" fill="#667dff" />
				</g>
				<g>
					<path id="_244515440" d="m8.03593 5.79865c-.188811 0-.342917-.154102-.342917-.342913 0-.188815.154106-.342917.342917-.342917s.342913.154102.342913.342917c0 .188811-.154102.342913-.342913.342913zm0-.492854c-.0819134 0-.148551.0666417-.148551.148551 0 .0819094.0666378.148551.148551.148551.0819094 0 .148551-.0666417.148551-.148551 0-.0819094-.0666417-.148551-.148551-.148551z" fill="#667dff" />
				</g>
				<g>
					<path id="_244515488" d="m9.11327 3.78003c-.190201 0-.344303-.154102-.344303-.344303 0-.188811.154102-.342913.344303-.342913.188811 0 .342913.154102.342913.342913s-.154102.344303-.342913.344303zm0-.492854c-.0819134 0-.149941.0666417-.149941.148551 0 .0819094.0666417.149941.149941.149941.0819094 0 .148551-.0666417.148551-.149941 0-.0805197-.0680276-.148551-.148551-.148551z" fill="#667dff" />
				</g>
				<g>
					<path id="_244515464" d="m2.69228 3.78003c-.188811 0-.342917-.154102-.342917-.344303 0-.188811.154106-.342913.342917-.342913s.342913.154102.342913.342913-.154102.344303-.342913.344303zm0-.492854c-.0819134 0-.148551.0666417-.148551.148551 0 .0819094.0666378.149941.148551.149941.0819094 0 .148547-.0666417.148547-.149941 0-.0819094-.0666378-.148551-.148547-.148551z" fill="#667dff" />
				</g>
				<g>
					<path id="_244515056" d="m5.88403 4.95039c-.0541457 0-.0971811-.0430394-.0971811-.0971811v-.863539c0-.0541457.0430354-.0971811.0971811-.0971811s.097185.0430354.097185.0971811v.863539c0 .0541417-.0430394.0971811-.097185.0971811z" fill="#667dff" />
				</g>
			</g>
		</g>
	</g>
</svg>
