<svg id="Layer_1" enable-background="new 0 0 512 512" height="512" viewBox="0 0 512 512" width="512" xmlns="http://www.w3.org/2000/svg" xmlns:xlink="http://www.w3.org/1999/xlink"><linearGradient id="SVGID_1_" gradientUnits="userSpaceOnUse" x1="256" x2="256" y1="0" y2="512"><stop offset="0" stop-color="#f704fe"/><stop offset="1" stop-color="#24bce3"/></linearGradient><circle cx="256" cy="256" fill="url(#SVGID_1_)" r="256"/><g fill="#fffffe"><path d="m336.6 352.6h13.7l2.6-15.7h-13.7z"/><path d="m372.3 301.4c-8-5.1-17.4-8-27.5-8-28.3 0-51.3 23-51.3 51.3 0 10 2.9 19.3 7.9 27.2.2.2.3.5.5.8 9.1 14.1 25 23.3 43 23.3 28.3 0 51.3-23 51.3-51.3-.1-18.2-9.6-34.2-23.9-43.3zm.2 51.2c1.8 0 3.3 1.5 3.3 3.3s-1.5 3.3-3.3 3.3h-16.6l-2.3 13.4c-.3 1.6-1.7 2.8-3.3 2.8-.2 0-.3 0-.5-.1-1.8-.3-3.1-2-2.7-3.8l2-12.4h-13.7l-2.1 12.8c-.3 1.6-1.7 2.8-3.3 2.8-.2 0-.3 0-.5-.1-1.8-.3-3.1-2-2.7-3.8l1.9-11.7h-11.8c-1.8 0-3.3-1.5-3.3-3.3s1.5-3.3 3.3-3.3h13l2.6-15.7h-15.6c-1.8 0-3.3-1.5-3.3-3.3s1.5-3.3 3.3-3.3h16.7l2.3-13.4c.3-1.8 2-3.1 3.8-2.7 1.8.3 3.1 2 2.7 3.8l-2 12.3h13.6l2.1-12.7c.3-1.8 2-3.1 3.8-2.7 1.8.3 3.1 2 2.7 3.8l-1.9 11.6h11.7c1.8 0 3.3 1.5 3.3 3.3s-1.5 3.3-3.3 3.3h-12.9l-2.6 15.7h15.6z"/><path d="m156.2 362.2 28.3-17.5-28.3-17.4z"/><path d="m167.3 293.4c-10 0-19.3 2.9-27.2 7.9-.2.2-.5.3-.8.5-14.1 9.1-23.3 25-23.3 43 0 28.3 23 51.3 51.3 51.3 18.2 0 34.3-9.6 43.3-23.9 5.1-7.9 8-17.3 8-27.4 0-28.4-23-51.4-51.3-51.4zm25.2 54.2-38 23.3c-.5.3-1.1.5-1.7.5-.5 0-1.1-.1-1.6-.4-1-.6-1.7-1.7-1.7-2.9v-46.7c0-1.2.7-2.3 1.7-2.9s2.3-.5 3.3.1l38 23.3c1 .6 1.6 1.7 1.6 2.9 0 1.1-.6 2.2-1.6 2.8z"/><path d="m280.7 240.2v31.4c7.2-1.6 12.7-8 12.7-15.7s-5.5-14.2-12.7-15.7z"/><path d="m221.9 240.8c-1.8 0-3.2 1.4-3.2 3.2v24c0 1.8 1.4 3.2 3.2 3.2h5.7 8.9v-30.5z"/><path d="m243.2 272.8 30.9 22.2v-19c-.1-.2-.1-.5-.1-.6 0-.3 0-.5.1-.7v-37.4c-.1-.2-.1-.5-.1-.7s0-.5.1-.7v-18.9l-30.9 22.2z"/><ellipse cx="344.7" cy="167.3" rx="9.1" ry="9.1"/><path d="m322.7 191.8h44.2c1.3 0 2.4-1.1 2.4-2.4v-44.2c0-1.3-1.1-2.4-2.4-2.4h-44.2c-1.3 0-2.4 1.1-2.4 2.4v44.2c0 1.3 1.1 2.4 2.4 2.4zm22-40.4c8.7 0 15.8 7.1 15.8 15.8s-7.1 15.8-15.8 15.8-15.8-7.1-15.8-15.8 7.1-15.8 15.8-15.8z"/><path d="m344.7 218.6c10.2 0 19.7-2.9 27.6-8.1 14.3-9.1 23.7-25.1 23.7-43.3 0-28.3-23-51.3-51.3-51.3-18.2 0-34.3 9.6-43.3 23.9-5.1 7.9-8 17.3-8 27.4 0 28.4 23 51.4 51.3 51.4zm-31.2-73.4c0-5 4.1-9.1 9.1-9.1h44.2c5 0 9.1 4.1 9.1 9.1v44.2c0 5-4 9-9.1 9h-44.2c-5 0-9.1-4.1-9.1-9.1z"/><path d="m167.3 186 21.5-21.6c3.9-3.9 3.9-10.3 0-14.2-1.9-1.9-4.4-2.9-7.1-2.9s-5.2 1-7.1 2.9l-5 5c-.6.6-1.5 1-2.4 1s-1.7-.3-2.4-1l-5-5c-1.8-1.9-4.3-2.9-7-2.9s-5.2 1-7.1 2.9c-3.9 3.9-3.9 10.3 0 14.2z"/><path d="m139.5 210.5c8.1 5.1 17.5 8.1 27.7 8.1 28.3 0 51.3-23 51.3-51.3 0-10.2-3-19.7-8.1-27.7-9.1-14.2-25.1-23.6-43.2-23.6-28.3 0-51.3 23-51.3 51.3 0 18 9.4 34 23.6 43.2zm1.5-65c3.1-3.1 7.4-4.9 11.8-4.9 4.5 0 8.7 1.7 11.8 4.9l2.7 2.7 2.6-2.7c3.1-3.1 7.4-4.9 11.8-4.9s8.7 1.7 11.8 4.9c6.5 6.5 6.5 17.1 0 23.6l-23.9 23.9c-.6.6-1.4 1-2.3 1s-1.7-.3-2.4-1l-23.9-23.9c-6.5-6.5-6.5-17.1 0-23.6z"/><path d="m344.7 286.7c10 0 19.3 2.5 27.5 7 7.9-24.4 7.9-50.9 0-75.3-8.2 4.4-17.5 7-27.5 6.8-32 0-58-26-58-58 0-10 2.5-19.3 7-27.5-24.4-7.9-50.9-7.9-75.3 0 4.4 8.2 7 17.5 7 27.5 0 32-26 58-58 58-10 0-19.3-2.5-27.5-6.9-7.9 24.4-8 50.9-.1 75.3 8.2-4.4 17.5-7 27.5-7 32 0 58 26 58 58 0 10-2.5 19.3-6.9 27.5 24.4 7.9 50.9 8 75.3.1-4.4-8.2-7-17.5-7-27.5 0-32 26-58 58-58zm-64 8.8c0 2.5-1.4 4.6-3.5 5.7-1 .5-2 .8-3 .8-1.3 0-2.7-.4-3.8-1.2l-31.7-22.8h-7.9v20.7c0 1.8-1.5 3.3-3.3 3.3s-3.3-1.5-3.3-3.3v-20.7h-2.4c-5.5 0-9.9-4.4-9.9-9.9v-24c0-5.5 4.4-9.9 9.9-9.9h17l31.7-22.8c1.1-.8 2.5-1.2 3.8-1.2 1 0 2 .3 2.9.8 2.2 1.1 3.5 3.3 3.5 5.7v16.9c10.9 1.6 19.3 11.1 19.3 22.4 0 11.5-8.4 21-19.3 22.5z"/></g></svg>