<svg id="Layer_1" height="512" viewBox="0 0 512 512" width="512" xmlns="http://www.w3.org/2000/svg" xmlns:xlink="http://www.w3.org/1999/xlink" data-name="Layer 1"><linearGradient id="linear-gradient" gradientUnits="userSpaceOnUse" x1="379.246" x2="96.345" y1="42.546" y2="532.544"><stop offset="0" stop-color="#f8ba16"/><stop offset="1" stop-color="#e93728"/></linearGradient><path d="m256 504.003c12.699 0 25.172-.964 37.361-2.806l13.209-22.904 13.351-23.103c10.97-3.543 21.572-7.937 31.663-13.153l25.824 6.917 25.512 6.831c20.154-14.854 38.013-32.683 52.866-52.838l-6.832-25.512-6.945-25.852c5.216-10.091 9.609-20.665 13.153-31.635l23.131-13.351 22.904-13.238c1.843-12.189 2.806-24.661 2.806-37.361s-.964-25.172-2.806-37.361l-22.904-13.209-23.131-13.351c-3.515-10.97-7.937-21.572-13.124-31.663l6.917-25.823 6.832-25.512c-14.854-20.155-32.683-38.013-52.866-52.866l-25.512 6.832-25.824 6.945c-10.12-5.216-20.693-9.609-31.663-13.153l-13.351-23.131-13.209-22.904c-12.189-1.843-24.661-2.806-37.361-2.806s-25.172.964-37.361 2.806l-13.238 22.904-13.351 23.131c-10.97 3.543-21.543 7.937-31.635 13.153l-25.852-6.945-25.512-6.832c-20.154 14.854-37.984 32.712-52.838 52.866l6.831 25.512 6.917 25.823c-5.216 10.092-9.609 20.693-13.153 31.663l-23.102 13.351-22.904 13.209c-1.843 12.189-2.806 24.662-2.806 37.361s.964 25.172 2.806 37.361l22.904 13.238 23.131 13.351c3.515 10.97 7.909 21.543 13.125 31.635l-6.917 25.852-4.734 17.603 59.244-51.477c-.992-1.616-1.984-3.231-2.92-4.904-21.288-36.822-27.042-80.589-16.044-121.691 11.055-41.216 37.786-76.053 74.75-97.398 36.822-21.26 80.589-27.014 121.691-16.016 41.216 11.055 76.054 37.786 97.398 74.721 21.26 36.85 27.014 80.617 16.016 121.72-11.055 41.216-37.786 76.053-74.721 97.37-36.85 21.288-80.617 27.042-121.72 16.044-15.562-4.167-30.217-10.602-43.568-18.935l-51.477 59.216 17.603-4.734 25.824-6.917c10.12 5.216 20.693 9.61 31.663 13.153l13.351 23.103 13.238 22.904c12.189 1.843 24.661 2.806 37.361 2.806zm127.758-320.712c-41.528-71.943-133.512-96.576-205.427-55.049-71.943 41.528-96.576 133.512-55.049 205.427 41.528 71.943 133.512 96.576 205.427 55.049 71.943-41.528 96.576-133.512 55.049-205.427zm-237.827 100.999c-1.644-2.24-1.162-5.358 1.077-6.973 2.211-1.644 5.329-1.162 6.973 1.077 1.559 2.154 4.082 3.997 7.2 5.329 3.203 1.361 7.058 2.126 11.254 2.126 5.924 0 11.168-1.559 14.882-4.11 3.232-2.211 5.216-5.102 5.272-8.192.142-8.504-9.468-10.346-18.935-12.132-13.011-2.494-25.795-4.932-25.795-20.183 0-5.924 3.288-11.14 8.646-14.825 4.791-3.288 11.31-5.301 18.425-5.301 4.904 0 9.524.964 13.521 2.665 4.309 1.814 7.88 4.507 10.233 7.739 1.644 2.24 1.162 5.358-1.049 6.973-2.239 1.644-5.357 1.162-6.973-1.077-1.332-1.786-3.458-3.345-6.094-4.479-2.75-1.162-6.038-1.842-9.638-1.842-5.074 0-9.609 1.361-12.813 3.572-2.636 1.814-4.28 4.139-4.28 6.576 0 6.973 8.787 8.674 17.688 10.375 13.55 2.58 27.326 5.216 27.014 22.082-.113 6.548-3.742 12.274-9.581 16.271-5.329 3.657-12.557 5.896-20.523 5.896-5.499 0-10.687-1.077-15.137-2.976-4.791-2.012-8.759-5.017-11.367-8.589zm153.553 5.499c0 2.75-2.239 4.989-4.989 4.989s-4.989-2.239-4.989-4.989v-62.617c0-2.75 2.239-4.989 4.989-4.989 1.389 0 2.665.567 3.572 1.502l27.723 27.723 27.78-27.751c1.956-1.956 5.102-1.956 7.058 0 .992.964 1.474 2.239 1.474 3.515v62.617c0 2.75-2.239 4.989-5.017 4.989-2.75 0-4.989-2.239-4.989-4.989v-50.542l-22.762 22.762c-1.956 1.956-5.131 1.956-7.087 0l-22.762-22.762v50.542zm-69.364-36.312h32.428c2.778 0 5.017 2.24 5.017 4.989 0 2.778-2.239 5.017-5.017 5.017h-32.428v20.608h38.098c2.75 0 4.989 2.239 4.989 4.989 0 2.778-2.239 5.017-4.989 5.017h-43.087c-2.778 0-5.017-2.24-5.017-5.017v-61.228c0-2.75 2.239-4.989 5.017-4.989h43.087c2.75 0 4.989 2.24 4.989 4.989 0 2.778-2.239 5.017-4.989 5.017h-38.098zm-210.983 188.873 104.031-90.425c10.261 14.343 22.734 26.788 36.879 36.936l-90.397 104.003c-25.88 29.792-80.306-24.633-50.513-50.513z" fill="url(#linear-gradient)" fill-rule="evenodd"/></svg>