<svg id="_x33_0" enable-background="new 0 0 62 62" height="512" viewBox="0 0 62 62" width="512" xmlns="http://www.w3.org/2000/svg" xmlns:xlink="http://www.w3.org/1999/xlink">
	<linearGradient id="SVGID_1_" gradientUnits="userSpaceOnUse" x1="31" x2="31" y1="62" y2="0">
		<stop offset="0" stop-color="#9f2fff" />
		<stop offset="1" stop-color="#0bb1d3" />
	</linearGradient>
	<path d="m32 14h-6v-2h4v-2h-4v-6h6v2h-4v2h4zm8-2h-4v-2h4v-2h-4v-2h4v-2h-6v10h6zm8 2h-6v-10h6zm-2-8h-2v6h2zm12 26c0 6.617-5.383 12-12 12s-12-5.383-12-12 5.383-12 12-12 12 5.383 12 12zm-2 0c0-5.514-4.486-10-10-10s-10 4.486-10 10 4.486 10 10 10 10-4.486 10-10zm6 0c0 7.439-5.111 13.69-12 15.473v11.527c0 1.654-1.346 3-3 3h-2c-1.654 0-3-1.346-3-3v-3.269c-.224.06-.448.123-.665.213-2.026.838-3.335 2.796-3.335 4.99v1l-1 .066h-13v-1c0-2.26-1.309-4.218-3.335-5.056-2.022-.837-4.332-.378-5.88 1.172l-.708.707-.754-.66-9.196-9.196.713-.707c1.592-1.592 2.052-3.901 1.215-5.925-.838-2.025-2.796-3.335-4.989-3.335h-1l-.066-1v-13h1c2.259 0 4.217-1.31 5.056-3.335.837-2.023.377-4.333-1.172-5.882l-.707-.707.66-.754 9.189-9.188.707.699c1.6 1.601 3.908 2.06 5.932 1.223.489-.203.929-.49 1.335-.822v-3.234c0-1.103.897-2 2-2h26c1.103 0 2 .897 2 2v14c0 .392-.117.755-.313 1.063 6.019 2.301 10.313 8.12 10.313 14.937zm-38-16h6v3.586c0 .338.468.534.708.292l3.878-3.878h15.414v-14h-26zm0 2c-1.103 0-2-.897-2-2v-3.976c-7.336 3.465-12 10.759-12 18.976 0 2.445.442 4.783 1.213 6.968 6.665-.184 13.137-2.124 18.803-5.646-.002-.108-.016-.213-.016-.322 0-6.02 3.345-11.269 8.271-14h-2.857l-3.293 3.293c-.45.449-1.072.707-1.707.707-1.331 0-2.414-1.083-2.414-2.414v-1.586zm18 29.473c-.684-.177-1.354-.389-2-.651v3.15c.685-.325 1.35-.693 2-1.094zm-4-1.638c-.701-.407-1.371-.86-2-1.365v6.918c.677-.165 1.344-.363 2-.595zm-4-3.288c-.761-.865-1.438-1.804-2-2.819v12.235c.671-.032 1.339-.084 2-.179zm-20 .732v-3.482c-.657.064-1.316.105-1.977.136.558 1.18 1.218 2.299 1.977 3.346zm2 2.39c.627.641 1.297 1.235 2 1.792v-8.261c-.664.134-1.329.268-2 .368zm4 3.185c.645.399 1.312.762 2 1.09v-11.765c-.661.207-1.329.388-2 .56zm4 1.921c.653.232 1.319.431 2 .599v-14.692c-.661.289-1.325.573-2 .825zm4 .985c.658.095 1.324.157 2 .189v-17.294c-.657.381-1.324.739-2 1.08zm14 1.925v-2.486c-3.363 1.835-7.129 2.801-11 2.801-12.682 0-23-10.317-23-23 0-9.314 5.477-17.534 14-21.155v-2.241c-.191.099-.371.217-.571.299-2.483 1.027-5.278.63-7.358-.986l-7.159 7.158c1.626 2.113 2.011 4.888.992 7.354-1.029 2.485-3.287 4.183-5.904 4.512v10.123c2.644.343 4.881 2.036 5.903 4.507 1.027 2.481.63 5.276-.986 7.358l7.157 7.157c2.107-1.625 4.884-2.013 7.355-.99 2.485 1.027 4.184 3.285 4.513 5.903h10.123c.343-2.645 2.036-4.882 4.506-5.903.462-.191.942-.317 1.429-.411zm6-5.824c-.657.083-1.321.139-2 .139s-1.343-.056-2-.139v11.139c0 .552.449 1 1 1h2c.551 0 1-.448 1-1zm12-15.861c0-7.72-6.28-14-14-14s-14 6.28-14 14 6.28 14 14 14 14-6.28 14-14zm-34-8h-2v2h2zm-6 2h2v-2h-2zm-4 0h2v-2h-2z" fill="url(#SVGID_1_)" />
</svg>
