<svg id="Layer_1" enable-background="new 0 0 512 512" height="512" viewBox="0 0 512 512" width="512" xmlns="http://www.w3.org/2000/svg" xmlns:xlink="http://www.w3.org/1999/xlink"><linearGradient id="SVGID_1_" gradientUnits="userSpaceOnUse" x1="63.678" x2="473.199" y1="431.285" y2="21.764"><stop offset="0" stop-color="#ec2aff"/><stop offset="1" stop-color="#6ac6ff"/></linearGradient><path clip-rule="evenodd" d="m475.42 34.537c14.068 0 25.58 11.511 25.58 25.582v275.705c-18.371-26.589-49.063-44.015-83.826-44.015-37.607 0-70.451 20.39-88.084 50.717h-318.09v-282.407c0-14.071 11.512-25.582 25.58-25.582zm-321.818 377.098-24.648 42.3h206.16c-9.043-12.286-15.393-26.676-18.18-42.3zm263.572-101.826c-46.297 0-83.826 37.531-83.826 83.827s37.529 83.827 83.826 83.827 83.826-37.531 83.826-83.827-37.529-83.827-83.826-83.827zm31.74 45.599c4.744-4.745 12.439-4.745 17.184 0 4.746 4.745 4.746 12.439 0 17.184l-59.271 59.272c-5.373 5.374-14.254 4.529-18.566-1.647l-24.936-31.382c-4.17-5.243-3.297-12.874 1.945-17.042 5.244-4.168 12.873-3.297 17.043 1.946l16.945 21.325zm-192.914-218.74c-31.131 0-56.365 25.236-56.365 56.365s25.234 56.365 56.365 56.365c31.129 0 56.363-25.236 56.363-56.365s-25.234-56.365-56.363-56.365zm59.348 256.968h-278.768c-14.068 0-25.58-11.511-25.58-25.581v-7.528h309.855c-3.568 10.379-5.507 21.517-5.507 33.109zm-77.436-308.998v18.152c-11.979 2.388-23.117 7.099-32.928 13.646l-12.84-12.841-25.582 25.58 12.842 12.842c-6.547 9.811-11.26 20.948-13.648 32.926h-18.15v36.178h18.15c2.389 11.978 7.1 23.117 13.646 32.928l-12.84 12.84 25.582 25.581 12.84-12.841c9.811 6.547 20.949 11.26 32.928 13.647v18.15h36.176v-18.151c11.979-2.389 23.117-7.099 32.928-13.646l12.84 12.84 25.582-25.58-12.842-12.842c6.547-9.811 11.26-20.948 13.646-32.926h18.152v-36.178h-18.152c-2.389-11.977-7.1-23.115-13.646-32.926l12.842-12.841-25.582-25.581-12.84 12.842c-9.813-6.547-20.949-11.26-32.928-13.647v-18.152z" fill="url(#SVGID_1_)" fill-rule="evenodd"/></svg>