<svg id="Layer_1" enable-background="new 0 0 512 512" height="512" viewBox="0 0 512 512" width="512" xmlns="http://www.w3.org/2000/svg" xmlns:xlink="http://www.w3.org/1999/xlink"><linearGradient id="SVGID_1_" gradientTransform="matrix(1 0 0 -1 0 512.5)" gradientUnits="userSpaceOnUse" x1="256.05" x2="256.05" y1="512.45" y2=".45"><stop offset="0" stop-color="#f704fe"/><stop offset="1" stop-color="#24bce3"/></linearGradient><g clip-rule="evenodd" fill-rule="evenodd"><circle cx="256" cy="256" fill="url(#SVGID_1_)" r="256"/><g fill="#fffffe"><path d="m399.5 126.8h-287.1v43.2h287.1zm-112.6 27.1c0 4-3.2 7.2-7.2 7.2h-24.2c-4 0-7.2-3.2-7.2-7.2v-11c0-4 3.2-7.2 7.2-7.2h24.2c4 0 7.2 3.2 7.2 7.2zm43.6 7.2h-24.2c-4 0-7.2-3.2-7.2-7.2v-11c0-4 3.2-7.2 7.2-7.2h24.2c4 0 7.2 3.2 7.2 7.2v11c.1 3.9-3.2 7.2-7.2 7.2zm58.1-7.2c0 4-3.2 7.2-7.2 7.2h-24.2c-4 0-7.2-3.2-7.2-7.2v-11c0-4 3.2-7.2 7.2-7.2h24.2c4 0 7.2 3.2 7.2 7.2z"/><path d="m381.5 142.1h-24.2c-.3 0-.7.3-.7.7v11c0 .3.3.7.7.7h24.2c.3 0 .7-.3.7-.7v-11c-.1-.4-.3-.7-.7-.7z"/><path d="m330.5 142.1h-24.2c-.3 0-.7.3-.7.7v11c0 .3.3.7.7.7h24.2c.3 0 .7-.3.7-.7v-11c-.1-.4-.3-.7-.7-.7z"/><path d="m279.5 142.1h-24.2c-.3 0-.7.3-.7.7v11c0 .3.3.7.7.7h24.2c.3 0 .7-.3.7-.7v-11c0-.4-.2-.7-.7-.7z"/><path d="m190.1 220.9v31.3l27-15.6z"/><path d="m277.9 198.4h-145.3c-.8 0-1.6.7-1.6 1.6v97.3c0 .8.7 1.6 1.6 1.6h145.2c.8 0 1.6-.7 1.6-1.6v-97.3c.1-.9-.8-1.6-1.5-1.6zm-94.3 16.8c0-2.5 2.7-4.1 4.9-2.9l36.9 21.4c2.2 1.2 2.2 4.4 0 5.7l-36.9 21.4c-2.2 1.2-4.9-.3-4.9-2.9zm81.4 72.9h-102v2.3c0 1.8-1.4 3.3-3.3 3.3s-3.3-1.4-3.3-3.3v-2.3h-10.7c-1.8 0-3.3-1.4-3.3-3.3 0-1.8 1.4-3.3 3.3-3.3h10.7v-2.3c0-1.8 1.4-3.3 3.3-3.3s3.3 1.4 3.3 3.3v2.3h101.9c1.8 0 3.3 1.5 3.3 3.3-.1 2-1.6 3.3-3.2 3.3z"/><path d="m330.8 258.1 34.8 13.9v-18.6-20.3-18.7l-34.8 13.8z"/><path d="m319 263.6h5.3v20.5h-5.3z"/><path d="m303.8 239.6v7.4c0 5.7 4.6 10.2 10.2 10.2h10.2v-27.9h-10.2c-5.6-.1-10.2 4.6-10.2 10.3z"/><path d="m374 236.4h-1.9v13.7h1.9c3.8 0 6.8-3.1 6.8-6.8s-2.9-6.9-6.8-6.9z"/><path d="m346 339.6v8.1c2.5-.9 4-2.5 4-4.1 0-1.5-1.6-3.1-4-4z"/><path d="m335.5 327.8c0 1.4 1.2 2.5 1.9 3 .6.4 1.3.8 2 1v-8.1c-2.4.8-3.9 2.5-3.9 4.1z"/><path d="m342.8 308c-15.3 0-27.7 12.4-27.7 27.7s12.4 27.7 27.7 27.7 27.7-12.4 27.7-27.7c0-15.2-12.5-27.7-27.7-27.7zm3.2 46.6v1.9c0 1.8-1.4 3.3-3.3 3.3-1.8 0-3.3-1.4-3.3-3.3v-1.6c-4.1-.6-7.8-2.6-9.8-5.5-1.1-1.4-.8-3.5.7-4.6 1.4-1.1 3.5-.8 4.6.7.9 1.2 2.6 2.2 4.6 2.7v-9.6c-2.2-.5-4.2-1.4-5.9-2.5-2.9-2.1-4.6-5.1-4.6-8.3 0-5.3 4.4-9.6 10.5-10.9v-1.9c0-1.8 1.4-3.3 3.3-3.3 1.8 0 3.3 1.5 3.3 3.3v1.6c4.1.6 7.8 2.6 9.8 5.5 1.1 1.4.8 3.5-.7 4.6-1.4 1.1-3.5.8-4.6-.7-.9-1.2-2.6-2.2-4.6-2.7v9.6c6.1 1.4 10.5 5.7 10.5 10.9s-4.4 9.6-10.5 10.8z"/><path d="m112.4 176.6v208.8h287.1v-208.8zm154.6 193.4h-123.6c-1.8 0-3.3-1.4-3.3-3.3s1.4-3.3 3.3-3.3h123.6c1.8 0 3.3 1.4 3.3 3.3s-1.3 3.3-3.3 3.3zm-123.6-26.5h104.2c1.8 0 3.3 1.4 3.3 3.3s-1.5 3.3-3.3 3.3h-104.2c-1.8 0-3.3-1.4-3.3-3.3s1.5-3.3 3.3-3.3zm-3.3-16.9c0-1.8 1.4-3.3 3.3-3.3h118.2c1.8 0 3.3 1.5 3.3 3.3s-1.4 3.3-3.3 3.3h-118.2c-1.8 0-3.3-1.5-3.3-3.3zm145.9-29.5c0 4.4-3.6 8.1-8.1 8.1h-145.3c-4.4 0-8.1-3.6-8.1-8.1v-97.3c0-4.4 3.6-8.1 8.1-8.1h145.2c4.4 0 8.1 3.6 8.1 8.1zm56.8 72.9c-18.9 0-34.3-15.4-34.3-34.3s15.4-34.3 34.3-34.3 34.3 15.4 34.3 34.3-15.5 34.3-34.3 34.3zm31.2-113.5h-1.9v20.2c0 2.3-2.4 3.9-4.5 3.1l-36.9-14.6v22.2c0 1.8-1.4 3.3-3.3 3.3h-11.8c-1.8 0-3.3-1.4-3.3-3.3v-23.8c-8.5-.8-15.2-8-15.2-16.7v-7.4c0-9.3 7.5-16.8 16.8-16.8h12.9l40.8-16.2c2.1-.8 4.5.8 4.5 3.1v20.2h1.9c7.4 0 13.4 6 13.4 13.4.1 7.4-5.9 13.3-13.4 13.3z"/></g></g></svg>