<svg id="Layer_1" enable-background="new 0 0 512 512" height="150px" viewBox="0 0 512 512" width="150px" xmlns="http://www.w3.org/2000/svg" xmlns:xlink="http://www.w3.org/1999/xlink">
	<!-- <linearGradient id="SVGID_1_" gradientTransform="matrix(1 0 0 -1 0 512.39)" gradientUnits="userSpaceOnUse" x1="256.05" x2="256.05" y1="512.34" y2=".34">
		<stop offset="0" stop-color="#f704fe" />
		<stop offset="1" stop-color="#24bce3" />
	</linearGradient> -->
	<circle clip-rule="evenodd" cx="256" cy="256" fill="url(#SVGID_1_)" fill-rule="evenodd" r="256" />
	<g id="Layer_x0020_1">
		<g id="_472156432" clip-rule="evenodd" fill="#ef7226" fill-rule="evenodd">
			<path id="_472156864" d="m114.3 312.5h283.3v-180.7h-283.3zm286.6 6.5h-289.7c-1.8 0-3.2-1.4-3.2-3.2v-187.2c0-1.8 1.4-3.2 3.2-3.2h289.7c1.8 0 3.2 1.4 3.2 3.2v187.2c0 1.7-1.5 3.2-3.2 3.2z" />
			<path id="_472156840" d="m217.6 359.8c-1.8 0-3.2-1.4-3.2-3.2v-40.8c0-1.8 1.4-3.2 3.2-3.2s3.2 1.4 3.2 3.2v40.8c.1 1.8-1.4 3.2-3.2 3.2zm76.8 0c-1.8 0-3.2-1.4-3.2-3.2v-40.8c0-1.8 1.4-3.2 3.2-3.2s3.2 1.4 3.2 3.2v40.8c-.1 1.8-1.5 3.2-3.2 3.2z" />
			<path id="_472157152" d="m206.4 359.8c-1.8 0-3.4 1.5-3.4 3.4v11.6c0 3 2.5 5.5 5.5 5.5h95.2c3 0 5.5-2.5 5.5-5.5v-11.5c0-1.8-1.5-3.4-3.4-3.4h-99.4zm97.1 26.8h-95.1c-6.6 0-11.9-5.3-11.9-11.9v-11.6c0-5.5 4.4-9.8 9.8-9.8h99.3c5.5 0 9.8 4.4 9.8 9.8v11.6c.1 6.7-5.3 11.9-11.9 11.9z" />
			<path id="_472157080" d="m268.1 339.4h-24.4c-6.4 0-11.7-5.3-11.7-11.7v-11.9c0-1.8 1.4-3.2 3.2-3.2s3.2 1.4 3.2 3.2v11.9c0 2.9 2.3 5.3 5.3 5.3h24.4c2.9 0 5.3-2.3 5.3-5.3v-11.9c0-1.8 1.4-3.2 3.2-3.2s3.2 1.4 3.2 3.2v11.9c.2 6.4-5.2 11.7-11.7 11.7z" />
			<path id="_472156888" d="m134.9 291.9h242v-139.5h-241.9zm245.3 6.5h-248.4c-1.8 0-3.2-1.4-3.2-3.2v-146c0-1.8 1.4-3.2 3.2-3.2h248.5c1.8 0 3.2 1.4 3.2 3.2v145.9c0 1.9-1.5 3.3-3.3 3.3z" />
			<path id="_472157296" d="m269.6 285.5h-119.2c-1.8 0-3.2-1.4-3.2-3.2v-66.9c0-1.8 1.4-3.2 3.2-3.2h26.9c1.8 0 3.2 1.4 3.2 3.2s-1.4 3.2-3.2 3.2h-23.7v60.4h112.7v-60.5h-23.7c-1.8 0-3.2-1.4-3.2-3.2s1.4-3.2 3.2-3.2h26.9c1.8 0 3.2 1.4 3.2 3.2v66.9c.2 1.8-1.2 3.3-3.1 3.3z" />
			<path id="_472156816" d="m210.1 256.1c-.6 0-1.2-.1-1.7-.5l-59.6-37.5c-1.5-1-2-2.9-1-4.4s2.9-2 4.4-1l57.8 36.5 57.8-36.5c1.5-1 3.5-.5 4.4 1s.5 3.5-1 4.4l-59.6 37.5c-.4.3-1 .5-1.5.5z" />
			<path id="_472156936" d="m150.4 285.5c-1.1 0-2.1-.5-2.7-1.5-1-1.5-.5-3.5 1-4.4l53.1-33.5c1.5-1 3.5-.5 4.4 1s.5 3.5-1 4.4l-53 33.5c-.6.4-1.1.5-1.8.5z" />
			<path id="_472157416" d="m242.8 235.4c-1.8 0-3.2-1.4-3.2-3.2v-67h-58.8v67c0 1.8-1.4 3.2-3.2 3.2s-3.2-1.4-3.2-3.2v-70.2c0-1.8 1.4-3.2 3.2-3.2h65.3c1.8 0 3.2 1.4 3.2 3.2v70.2c-.2 1.9-1.7 3.2-3.3 3.2z" />
			<path id="_472157008" d="m230.6 181.1h-41c-1.8 0-3.2-1.4-3.2-3.2s1.4-3.2 3.2-3.2h41c1.8 0 3.2 1.4 3.2 3.2 0 1.7-1.4 3.2-3.2 3.2z" />
			<path id="_472156336" d="m230.6 200.1h-41c-1.8 0-3.2-1.4-3.2-3.2s1.4-3.2 3.2-3.2h41c1.8 0 3.2 1.4 3.2 3.2 0 1.7-1.4 3.2-3.2 3.2z" />
			<path id="_472156408" d="m230.6 219.1h-41c-1.8 0-3.2-1.4-3.2-3.2s1.4-3.2 3.2-3.2h41c1.8 0 3.2 1.4 3.2 3.2 0 1.7-1.4 3.2-3.2 3.2z" />
			<path id="_472156264" d="m269.6 285.5c-.6 0-1.2-.1-1.7-.5l-53.1-33.5c-1.5-1-2-2.9-1-4.4s2.9-2 4.4-1l53.1 33.5c1.5 1 2 2.9 1 4.4-.5 1-1.5 1.5-2.7 1.5z" />
			<path id="_472156720" d="m361.5 180.1h-75.2c-1.8 0-3.2-1.4-3.2-3.2s1.4-3.2 3.2-3.2h75.2c1.8 0 3.2 1.4 3.2 3.2.1 1.7-1.5 3.2-3.2 3.2z" />
			<path id="_472156360" d="m361.5 199.6h-75.2c-1.8 0-3.2-1.4-3.2-3.2s1.4-3.2 3.2-3.2h75.2c1.8 0 3.2 1.4 3.2 3.2.1 1.7-1.5 3.2-3.2 3.2z" />
			<path id="_472156240" d="m361.5 218.9h-75.2c-1.8 0-3.2-1.4-3.2-3.2s1.4-3.2 3.2-3.2h75.2c1.8 0 3.2 1.4 3.2 3.2.1 1.7-1.5 3.2-3.2 3.2z" />
			<path id="_472156120" d="m289.5 264.2h68.7v-21.8h-68.7zm72 6.4h-75.2c-1.8 0-3.2-1.4-3.2-3.2v-28.3c0-1.8 1.4-3.2 3.2-3.2h75.2c1.8 0 3.2 1.4 3.2 3.2v28.3c.1 1.8-1.5 3.2-3.2 3.2z" />
			<path id="_472156384" d="m150.4 218.6c-1.1 0-2.1-.5-2.7-1.5-1-1.5-.5-3.5 1-4.4l26.9-16.9c1.5-1 3.5-.5 4.4 1 1 1.5.5 3.5-1 4.4l-26.8 16.9c-.6.3-1.1.5-1.8.5zm119.2 0c-.6 0-1.2-.1-1.7-.5l-26.9-16.9c-1.5-1-2-2.9-1-4.4s2.9-2 4.4-1l26.9 16.9c1.5 1 2 2.9 1 4.4-.5 1-1.5 1.5-2.7 1.5z" />
		</g>
	</g>
</svg>
