<svg width="387" height="222" viewBox="0 0 387 222" fill="none" xmlns="http://www.w3.org/2000/svg">
<g clip-path="url(#clip0_223_1403)">
<path d="M368.104 60.8504L368.27 61.326C368.356 61.502 368.446 61.6779 368.532 61.8587C368.549 62.1727 368.602 62.4837 368.689 62.7861C373.406 74.2001 378.126 85.6142 382.847 97.0283C384.041 99.9151 385.163 102.83 386.442 106.064C376.127 106.064 366.239 106.093 356.347 105.988C355.719 105.988 354.787 105.037 354.53 104.324C353.218 100.676 352.038 96.9759 350.906 93.2664C350.483 91.8777 349.87 91.2356 348.276 91.2451C338.061 91.3149 327.844 91.3149 317.625 91.2451C316.132 91.2451 315.547 91.8301 315.142 93.1475C314.044 96.7049 312.726 100.196 311.742 103.777C311.266 105.541 310.534 106.155 308.665 106.121C301.935 106.003 295.201 106.083 288.467 106.088H280.382C280.857 104.799 281.209 103.858 281.58 102.925C283.514 98.0048 285.455 93.0904 287.401 88.1823V88.1538C288.828 84.8961 290.255 81.6573 291.606 78.3805C299.767 58.6405 307.909 38.8926 316.032 19.1368C316.65 17.6339 317.397 16.9538 319.152 16.9729C327.94 17.0775 336.748 17.1726 345.523 16.9396C348.647 16.8587 350.688 17.4437 351.401 20.7443C351.61 21.6954 352.257 22.5943 352.699 23.5122V23.5788C355.477 30.451 358.221 37.3422 361.046 44.1954C363.348 49.6932 365.726 55.2575 368.104 60.8504ZM333.291 40.7284L332.787 40.6998C329.315 51.0486 325.843 61.3926 322.324 71.9078H343.849C340.258 61.326 336.777 51.0248 333.3 40.7189L333.291 40.7284Z" fill="#076AA9"/>
<path d="M312.431 140.406C316.892 144.744 317.915 148.563 315.879 153.523C314.253 157.494 310.886 159.273 306.934 159.492C301.012 159.815 295.044 159.62 289.137 159.691C287.767 159.691 287.406 159.087 287.411 157.789C287.446 147.19 287.446 136.589 287.411 125.987C287.411 124.802 287.682 123.922 289.075 123.946C295.258 124.046 301.402 124.046 307.561 124.317C311.28 124.479 314.072 126.41 315.171 130.067C316.236 133.601 315.889 136.968 312.945 139.655C312.749 139.887 312.577 140.139 312.431 140.406V140.406ZM294.744 153.033C298.497 153.033 301.811 153.185 305.107 152.986C307.771 152.824 309.102 151.14 309.093 148.605C309.093 145.866 307.728 144.23 304.998 144.087C302.087 143.93 299.158 143.973 296.238 144.087C295.724 144.087 294.839 144.891 294.811 145.357C294.668 147.854 294.744 150.365 294.744 153.033V153.033ZM294.825 137.772C298.335 137.772 301.631 137.914 304.908 137.719C306.986 137.596 308.103 136.169 308.132 134.029C308.161 131.889 306.905 130.638 305.026 130.509C301.697 130.281 298.311 130.448 294.825 130.448V137.772Z" fill="#E16331"/>
<path d="M191.224 146.294C191.181 146.228 191.1 146.166 191.095 146.099C190.767 139.113 190.491 140.197 196.327 140.169C198.781 140.169 201.244 140.24 203.694 140.102C205.682 139.993 206.305 140.773 206.267 142.718C206.171 147.631 206.319 152.543 206.209 157.461C206.209 158.217 205.33 159.587 204.878 159.582C203.451 159.558 201.287 160.666 200.816 158.074C200.474 156.172 199.513 156.172 198.476 157.351C194.282 162.169 183.614 161.741 178.549 156.757C175.396 153.651 173.389 149.989 173.066 145.509C172.728 140.906 172.59 136.354 174.821 132.05C178.421 125.073 184.532 122.477 191.942 123.181C197.982 123.761 203.137 126.067 205.482 132.326C206.481 134.989 206.238 135.351 203.432 135.313C202.721 135.261 202.007 135.261 201.297 135.313C199.394 135.551 198.262 134.994 197.164 133.163C194.681 129.011 187.733 128.445 184.233 131.808C179.201 136.64 179.239 147.35 184.304 151.854C188.546 155.625 195.58 154.479 197.949 149.633C199.076 147.326 198.695 146.703 196.141 146.656C194.638 146.627 193.136 146.594 191.633 146.546C191.49 146.508 191.357 146.37 191.224 146.294Z" fill="#E16331"/>
<path d="M203.27 105.95H172.681V16.9349C173.394 16.8825 174.074 16.7827 174.749 16.7827C183.467 16.7827 192.184 16.8065 200.907 16.7161C202.771 16.6923 203.318 17.2202 203.313 19.1226C203.253 47.255 203.24 75.386 203.275 103.515L203.27 105.95ZM201.649 99.8485C201.967 99.235 202.552 98.6263 202.552 98.0128C202.6 73.8784 202.6 49.7439 202.552 25.6095C202.552 24.9913 201.962 24.3778 201.649 23.7643C201.649 22.8131 201.649 21.8619 201.649 20.9107V19.9596C201.844 18.5328 201.282 18.0287 199.808 18.0572C191.438 18.1143 183.067 18.0572 174.697 18.1C174.241 18.159 173.795 18.2774 173.37 18.452L173.418 19.1844C177.261 19.4507 181.103 19.8264 184.951 19.9548C188.798 20.0832 192.722 19.9881 196.902 19.9881V23.7928L195.338 21.1248H178.345L181.198 23.574L176.918 24.0116V26.9697C176.918 50.3337 176.918 73.6992 176.918 97.0663C176.918 98.7452 176.614 100.424 176.39 102.75H195.942C195.97 104.98 197.706 104.138 198.714 104.076C199.399 104.038 200.227 103.316 200.645 102.673C201.173 101.822 201.325 100.8 201.649 99.8485ZM173.47 104.823V105.299H195.609V104.823H173.47Z" fill="#076AA9"/>
<path d="M244.451 138.846L244.537 137.895C245.488 135.375 246.422 132.856 247.338 130.338C250.467 125.107 255.451 123.276 261.13 123.133C267.189 122.976 272.444 124.859 275.873 130.319C276.049 131.151 275.973 132.179 276.444 132.778C278.603 135.522 277.709 138.937 278.579 141.961C278.884 143.008 277.866 144.363 277.904 145.562C278.099 152.524 270.822 159.967 263.498 159.829C260.864 159.794 258.241 159.476 255.675 158.878C250.762 157.699 247.757 154.393 246.254 149.604C245.746 148.217 245.165 146.858 244.513 145.533C244.513 145.214 244.48 144.896 244.461 144.582C244.451 142.651 244.451 140.749 244.451 138.846ZM271.921 142.033C271.365 139.655 271.065 137.21 270.185 134.985C268.811 131.513 265.967 129.824 262.229 129.653C258.353 129.477 255.195 130.752 253.406 134.362C251.309 138.599 251.271 143.06 252.574 147.521C254.163 152.957 259.708 155.606 265.025 153.651C269.267 152.087 271.526 148.101 271.911 142.042L271.921 142.033Z" fill="#E3612E"/>
<path d="M355.362 159.672C352.927 159.672 350.797 159.858 348.733 159.572C348.034 159.477 347.192 158.293 346.935 157.447C345.361 152.267 346.279 152.515 339.877 152.462C337.818 152.462 335.764 152.462 333.695 152.462C332.268 152.462 331.436 153.128 330.984 154.574C329.391 159.644 329.348 159.634 324.036 159.663C323.346 159.663 322.656 159.587 321.567 159.525C322.271 157.504 322.875 155.72 323.47 153.989C326.726 144.668 329.987 135.349 333.253 126.034C333.771 124.56 334.617 123.808 336.401 123.856C342.531 124.013 342.584 123.908 344.733 129.687C348.115 138.865 351.391 148.077 354.72 157.271C354.977 157.936 355.091 158.616 355.362 159.672ZM333.619 146.132H343.335L338.845 132.34L338.137 132.402C336.672 136.863 335.202 141.319 333.619 146.132V146.132Z" fill="#E16331"/>
<path d="M218.831 18.0476C219.269 17.6053 219.678 16.8111 220.139 16.7826C222.265 16.6446 224.42 16.716 226.55 16.716C248.11 16.6875 269.657 16.6621 291.192 16.6399C291.82 16.6399 292.447 16.7255 293.294 16.7873V35.9677H249.35V51.4956H286.883V69.701H249.236V105.964H218.841C218.798 105.394 218.722 104.852 218.717 104.305C218.717 77.5292 218.717 50.7521 218.717 23.9734C218.717 23.5834 218.784 23.1887 218.822 22.794H219.711L220.662 23.6976C220.349 24.5584 219.764 25.4192 219.764 26.28C219.716 50.7663 219.716 75.2543 219.764 99.7438C219.836 100.581 219.98 101.41 220.196 102.222L220.71 104.6C221.238 104.913 221.766 105.494 222.294 105.498C228.524 105.562 234.754 105.562 240.984 105.498C241.531 105.498 242.073 104.928 242.62 104.623L247.376 103.672C247.693 102.721 248.01 101.77 248.327 100.819V99.8674V69.468C249.592 67.09 251.832 67.4182 253.911 67.5942C255.661 67.7416 257.378 68.3932 259.142 68.4645C262.704 68.6072 266.276 68.5168 269.833 68.4978C270.456 68.4978 271.079 68.3836 271.707 68.3218C274.166 68.0935 276.62 67.8129 279.079 67.6465C280.929 67.5181 282.798 67.6084 284.638 67.423C284.947 67.3944 285.38 66.4718 285.39 65.9677C285.456 62.5672 285.542 59.1525 285.342 55.7568C285.295 54.9055 284.348 53.5596 283.601 53.3789C280.97 52.7263 278.271 52.3847 275.559 52.3611C267.327 52.5086 259.095 52.9128 250.867 53.26C250.125 53.2885 249.397 53.6357 248.175 53.9639C247.909 51.9854 247.49 50.0403 247.414 48.0809C247.286 44.8374 247.371 41.5891 247.381 38.3409C247.381 35.4255 247.619 35.2924 250.453 35.1782C263.67 34.6456 276.934 36.3196 290.127 34.3174C291.658 34.0844 292.143 33.7087 292.119 32.2011C292.043 27.5498 292.091 22.8986 292.091 18.4091L287.335 18.0381C286.525 17.8176 285.698 17.6696 284.862 17.5958C265.096 17.5673 245.331 17.5673 225.566 17.5958C224.731 17.6669 223.905 17.815 223.097 18.0381L219.768 18.0619L218.831 18.0476Z" fill="#076AA9"/>
<path d="M386.556 152.933C387.427 159.663 387.427 159.668 381.273 159.682C375.494 159.682 369.711 159.601 363.938 159.772C361.859 159.834 361.759 158.793 361.764 157.318C361.764 150.188 361.774 143.054 361.793 135.917C361.793 132.83 361.854 129.734 361.755 126.652C361.688 124.683 362.259 123.799 364.437 123.832C369.426 123.927 369.407 123.832 369.431 128.845C369.469 136.126 369.578 143.407 369.573 150.689C369.573 152.477 370.282 152.976 371.989 152.943C376.802 152.871 381.62 152.933 386.556 152.933Z" fill="#E26635"/>
<path d="M215.945 141.938C215.945 136.706 216.002 131.475 215.916 126.244C215.888 124.508 216.449 123.866 218.218 123.866C223.397 123.828 223.407 123.77 223.411 128.897C223.411 135.869 223.473 142.837 223.359 149.823C223.321 152.101 223.858 153.114 226.388 152.99C230.498 152.791 234.626 153.029 238.754 152.91C240.78 152.853 241.217 153.861 241.094 155.525C240.78 159.691 240.775 159.672 236.471 159.696C230.374 159.725 224.277 159.749 218.185 159.853C216.539 159.877 215.949 159.273 215.973 157.627C216.044 152.396 216.002 147.165 216.002 141.933L215.945 141.938Z" fill="#E26635"/>
<path d="M380.412 13.016C381.23 9.82479 382.038 6.62884 382.866 3.43766C383.517 0.931323 383.527 0.93133 386.542 1.23095C386.542 6.08668 386.575 10.9709 386.485 15.86C386.485 16.2595 385.615 16.6399 385.149 17.0347L384.597 16.6399V6.07716L383.95 5.95351C383.441 7.69891 382.918 9.43956 382.433 11.185C382.038 12.6355 381.777 14.1336 381.277 15.5413C381.097 16.0645 380.393 16.4021 379.931 16.8207C379.565 16.4021 378.98 16.0359 378.861 15.5461C378.034 12.4976 377.311 9.41577 376.545 6.34824C376.442 5.76239 376.119 5.23819 375.642 4.88345C375.642 8.30291 375.642 11.7224 375.642 15.1371C375.642 16.3879 375.456 17.2344 373.849 16.6257V1.34032C376.165 0.436712 377.102 1.38788 377.52 3.53753C378.138 6.69066 378.947 9.80576 379.679 12.9351L380.412 13.016Z" fill="#3B3B3B"/>
<path d="M127.457 85.2716C128.483 85.3083 129.509 85.251 130.525 85.1004C131.476 84.8816 132.303 84.3252 133.193 83.9162C133.25 83.5453 133.311 83.1695 133.369 82.7986L141.848 88.7291L141.701 88.8718C139.798 89.9879 137.896 91.1087 135.994 92.2342L135.276 92.6337H135.119L135.052 92.7764L133.026 93.4707C132.465 90.4317 129.992 91.7206 128.304 91.2545L127.457 90.8122C127.709 89.2428 127.985 87.6733 128.185 86.0944C128.185 85.947 127.78 85.7472 127.566 85.5713C127.571 85.4609 127.532 85.3532 127.457 85.2716Z" fill="#D13C32"/>
<path d="M244.489 145.505C245.141 146.83 245.722 148.189 246.23 149.576C247.733 154.365 250.738 157.661 255.651 158.85C258.217 159.447 260.84 159.766 263.475 159.801C270.799 159.958 278.075 152.515 277.88 145.533C277.842 144.335 278.86 142.979 278.555 141.933C277.685 138.908 278.555 135.494 276.42 132.75C275.944 132.15 276.025 131.123 275.849 130.291C276.691 131.656 277.856 132.916 278.322 134.4C280.225 140.497 279.963 146.741 277.295 152.401C274.889 157.49 270.195 160.219 264.454 160.8C258.467 161.399 252.798 160.652 248.679 155.815C246.216 152.962 243.947 149.728 244.489 145.505Z" fill="#E3612E"/>
<path d="M177.869 201.148C181.032 202.903 181.431 206.028 178.782 208.282L177.355 209.233L176.88 209.195L176.447 208.791C176.726 208.299 176.941 207.773 177.084 207.226C177.246 205.88 177.769 204.263 177.227 203.25C176.685 202.237 175.03 201.952 173.86 201.348C173.546 202.195 173.032 203.027 172.961 203.892C172.909 205.386 172.937 206.882 173.047 208.372C173.047 208.777 173.004 209.181 172.98 209.585C172.887 211.08 172.887 212.58 172.98 214.075C173.085 215.026 173.66 215.901 173.983 216.709H169.394C171.629 211.611 170.112 206.199 170.269 200.335L176.452 200.967L177.869 201.148Z" fill="#313131"/>
<path d="M309.012 209.338C308.969 208.648 308.722 207.911 308.926 207.288C309.721 204.91 311.78 205.215 313.644 205.338C315.404 205.452 316.06 206.613 316.07 208.249C316.07 210.065 316.003 211.887 316.165 213.689C316.222 214.379 316.835 215.016 317.382 216.015C316.369 217.523 314.971 217.489 313.949 216.286C312.189 216.581 310.767 217.19 309.587 216.881C308.874 216.695 308.161 215.102 308.099 214.117C308.028 212.334 309.169 211.169 310.952 210.679C311.7 210.547 312.399 210.219 312.978 209.728C313.504 209.126 313.79 208.353 313.782 207.554C313.679 207.245 313.498 206.968 313.256 206.749C313.014 206.53 312.721 206.376 312.403 206.304C312.035 206.334 311.677 206.438 311.35 206.61C311.024 206.781 310.735 207.017 310.501 207.302C310.082 207.835 310.063 208.686 309.863 209.4L309.012 209.338ZM314.12 210.37C311.942 211.04 309.982 211.535 310.215 213.965C310.268 214.507 311.756 215.444 312.374 215.302C315.08 214.679 314.015 212.472 314.12 210.37Z" fill="#313131"/>
<path d="M110.403 211.858L111.625 210.303C110.474 209.352 108.638 208.805 109.856 206.888C111.073 204.972 113.052 205.086 114.94 205.324C116.828 205.562 117.318 206.893 117.284 208.582C117.221 210.235 117.243 211.891 117.351 213.542C117.413 214.203 117.998 214.816 118.535 215.796C117.203 217.641 116.676 217.699 114.859 215.753C113.137 216.638 111.43 218.426 109.627 215.863L113.17 215.601C115.829 214.674 115.235 212.648 114.968 210.289L111.53 212.167L110.403 211.858ZM111.482 210.432C112.814 209.723 115.187 210.47 114.987 207.997C114.935 207.35 113.822 206.213 113.308 206.27C110.812 206.57 111.867 208.815 111.482 210.432Z" fill="#313131"/>
<path d="M107.007 207.806C107.183 208.406 107.359 209.005 107.63 209.942H100.082C100.03 212.267 100.758 213.894 102.684 214.774C104.776 215.725 106.037 214.408 107.183 212.543C106.997 216.433 103.516 218.288 100.525 216.438C98.3654 215.097 97.4332 211.758 98.3891 208.781C99.1881 206.275 101.19 204.915 103.825 205.291C104.596 205.4 105.295 205.999 106.032 206.375L104.087 206.475C101.504 205.747 100.596 206.303 100.32 209.1H104.757C105.827 209.233 107.059 209.637 107.007 207.806Z" fill="#313131"/>
<path d="M145.182 215.207L146.97 216.728H141.972C140.926 216.728 139.837 216.567 138.843 216.8C137.611 217.09 136.726 217.275 136.94 215.972C135.447 216.296 133.944 216.895 132.489 216.804C131.861 216.762 131.324 215.283 130.748 214.455L133.292 216.624L133.673 216.101L133.131 215.121C136.155 215.596 137.016 214.878 136.988 211.83C136.988 209.804 136.812 207.783 136.702 205.547L139.199 205.438C139.199 208.182 139.061 210.836 139.28 213.461C139.347 214.303 140.231 215.264 140.983 215.782C141.373 216.048 142.343 215.454 143.051 215.249L144.003 216.291L145.182 215.207Z" fill="#313131"/>
<path d="M366.453 2.82884C365.302 2.82884 364.499 2.94299 363.757 2.7908C363.281 2.69093 362.886 2.19155 362.454 1.87291C362.867 1.60183 363.272 1.10247 363.69 1.09296C366.068 1.01687 368.446 1.01687 370.824 1.09296C371.299 1.09296 371.713 1.6589 372.156 1.96327C371.736 2.30026 371.268 2.57129 370.767 2.76702C370.168 2.90969 369.511 2.80031 368.475 2.80031V11.066C368.531 12.4117 368.518 13.7593 368.436 15.1037C368.375 15.7172 367.852 16.2832 367.538 16.8681C367.176 16.2451 366.52 15.6316 366.501 14.9943C366.396 11.6652 366.453 8.33612 366.458 5.00702L366.453 2.82884Z" fill="#3B3B3B"/>
<path d="M112.89 108.637L115.491 111.296C114.449 110.791 113.381 110.343 112.29 109.955C111.447 109.68 110.56 109.565 109.675 109.617C107.005 109.845 104.345 110.162 101.694 110.568C101.048 110.663 99.9156 111.296 99.9489 111.519C100.134 112.727 98.9978 115.281 100.986 114.901C105.304 114.073 109.247 118.011 113.503 115.514C113.546 115.514 113.646 115.576 113.717 115.609L109.912 118.724C109.855 118.372 109.798 118.025 109.736 117.673C108.348 117.264 106.978 116.627 105.566 116.499C103.383 116.299 101.166 116.451 98.9645 116.456L98.5935 116.104L97.999 114.549C98.3161 112.91 98.622 111.27 98.9169 109.631C101.361 109.565 103.801 109.522 106.241 109.427C106.931 109.398 108.091 109.427 108.219 109.084C109.266 106.478 110.811 108.024 112.229 108.466L112.89 108.637Z" fill="#E0AF67"/>
<path d="M300.57 216.914C295.192 217.865 292.447 214.198 291.691 210.793C290.864 207.055 292.243 202.028 297.118 200.544L297.175 201.462C297.153 201.535 297.105 201.598 297.04 201.638C296.975 201.678 296.898 201.693 296.823 201.681C296.642 201.819 296.466 201.961 296.29 202.104C293.061 207.188 293.575 212.401 297.593 215.325L300.57 216.914Z" fill="#313131"/>
<path d="M381.392 205.757L384.245 202.028C384.345 203.274 384.426 204.273 384.511 205.357L386.756 205.804V206.185L384.378 206.746C384.378 209.124 384.236 211.573 384.478 213.975C384.54 214.565 385.862 215.021 386.961 215.787C386.181 216.124 384.92 217.156 384.174 216.866C383.313 216.529 382.538 215.088 382.371 214.013C382.081 212.158 382.371 210.208 382.243 208.306C382.219 207.564 381.763 206.808 381.392 205.757Z" fill="#313131"/>
<path d="M363.348 215.387C366.325 215.145 366.943 214.66 366.762 211.83C366.634 209.78 367.889 207.345 365.336 205.79C368.86 205.096 368.94 205.167 368.94 208.529C368.871 210.187 368.891 211.848 369.002 213.504C369.093 214.327 369.711 215.092 370.224 216.167L367.219 217.209C366.952 216.519 366.743 215.982 366.524 215.425C363.828 217.613 362.967 217.68 361.074 215.901L364.879 216.619L363.348 215.387Z" fill="#313131"/>
<path d="M43.2024 130.685C42.7681 129.449 42.3384 128.212 41.9136 126.976C43.9205 127.594 45.918 128.246 47.944 128.812C48.5719 128.921 49.2095 128.964 49.8463 128.94C49.7227 128.26 49.6038 127.58 49.4849 126.9H51.3872L51.5014 126.928C51.5014 127.271 51.5014 127.608 51.5014 127.951L51.4538 128.008L50.9782 128.892L49.6133 130.823C49.4136 131.299 49.2138 131.741 49.0188 132.202C48.3483 133.415 47.6824 134.633 46.8692 136.112L44.8004 133.425L43.9015 131.998L42.9503 131.656L42.9171 131.627C43.0074 131.299 43.1025 130.99 43.2024 130.685Z" fill="#3274A0"/>
<path d="M321.972 206.418C322.624 206.278 323.262 206.074 323.874 205.809C326.114 204.553 328.078 205.333 328.416 207.878C328.663 209.747 328.444 211.683 328.611 213.556C328.706 214.598 329.163 215.611 329.462 216.662H325.657C327.303 214.037 326.728 211.069 326.338 208.235C326.076 206.361 324.378 206.461 322.057 208.401L321.972 206.418Z" fill="#313131"/>
<path d="M249.892 201.548L253.012 207.331L254.548 209.452L254.519 215.268C253.787 216.786 252.96 216.843 252.042 215.425C253.44 209.443 249.155 205.771 246.377 201.486C247.585 200.259 248.755 200.278 249.892 201.548Z" fill="#313131"/>
<path d="M280.62 215.815C279.981 216.002 279.359 216.24 278.76 216.529C276.629 217.76 274.48 216.89 274.194 214.446C273.957 212.5 274.194 210.508 274.004 208.548C273.923 207.597 273.424 206.646 273.096 205.666H276.239C276.239 207.721 276.154 209.823 276.273 211.911C276.339 213.019 276.748 214.113 277.024 215.211L280.501 214.26C280.543 214.788 280.596 215.302 280.62 215.815Z" fill="#313131"/>
<path d="M344.866 201.7C344.892 206.221 344.917 210.745 344.942 215.273C344.086 216.904 343.206 216.961 342.308 215.306L342.379 201.671C343.226 200.197 344.053 200.235 344.866 201.7Z" fill="#313131"/>
<path d="M81.1777 214.793C81.1777 210.462 81.1777 206.126 81.1777 201.785L82.381 200.725L83.5461 202.08L83.7744 215.359C83.218 215.673 82.6616 216.219 82.1099 216.219C81.8008 216.219 81.4821 215.297 81.1777 214.793Z" fill="#313131"/>
<path d="M207.194 205.524L204.854 207.083C204.854 208.986 204.744 211.364 204.93 213.68C204.982 214.298 205.962 214.836 206.499 215.425C206.723 215.677 206.904 215.963 207.108 216.234L204.359 217.114L203.123 215.877C203.018 212.985 202.917 210.094 202.818 207.202L202.6 206.38C202.6 206.023 202.552 205.661 202.523 205.3L203.888 203.05C204.205 203.02 204.523 203.02 204.84 203.05C204.958 203.811 204.992 204.582 205.058 205.524H207.194Z" fill="#313131"/>
<path d="M226.346 217.199L224.534 217.042C223.583 216.265 222.632 215.493 221.68 214.726C221.538 212.748 221.393 210.769 221.248 208.791L221.909 207.507L222.536 206.827L223.197 207.445C222.941 208.349 222.779 209.224 224.149 209.129C225.361 209.048 226.569 208.886 227.777 208.758L228.253 209.666C228.296 209.698 228.327 209.743 228.342 209.795C228.357 209.846 228.354 209.901 228.334 209.951H227.287H223.911C223.891 209.929 223.866 209.912 223.839 209.902C223.811 209.891 223.782 209.888 223.752 209.891C223.723 209.894 223.695 209.904 223.671 209.921C223.646 209.937 223.626 209.959 223.611 209.985C223.407 210.213 223.197 210.436 222.993 210.66C222.922 212.786 223.797 214.26 225.908 214.878H227.654L229.123 214.759L229.418 215.183L226.346 217.199Z" fill="#313131"/>
<path d="M83.527 202.099L82.3618 200.744L81.1586 201.804C78.8711 201.177 76.7785 201.048 75.5039 203.84C75.6133 202.684 75.7274 201.524 75.8606 200.097C79.9126 200.097 83.917 199.95 87.9024 200.149C90.404 200.273 88.8536 202.389 89.3292 203.683C87.7122 201.533 85.924 200.673 83.527 202.099Z" fill="#313131"/>
<path d="M344.866 201.7C344.053 200.235 343.226 200.187 342.379 201.671C340.196 201.315 338.023 200.982 337.186 204.201C336.235 200.615 336.625 200.107 339.792 200.102H350.431C350.488 201.414 350.545 202.551 350.597 203.683C349.209 201.181 347.14 201.148 344.866 201.7Z" fill="#313131"/>
<path d="M280.619 215.815C280.581 215.302 280.543 214.788 280.5 214.274V205.714H282.436C283.083 209.2 281.918 212.791 283.169 216.006C282.631 215.939 281.461 218.36 280.619 215.815Z" fill="#313131"/>
<path d="M218.741 216.747H215.483C215.54 216.486 215.592 216.224 215.645 215.963C215.892 214.17 216.334 212.372 216.315 210.579C216.315 209.376 215.621 208.201 215.241 206.988L211.85 208.144L211.65 206.822L215.455 205.148L216.881 205.41C217.262 205.918 217.642 206.427 218.027 206.931L218.294 207.806C218.294 207.963 218.337 208.125 218.36 208.282L218.403 214.465L218.741 216.747Z" fill="#313131"/>
<path d="M156.943 214.431C156.506 215.72 156.068 217.004 155.626 218.293L154.727 218.165C154.87 217.713 155.008 217.266 155.146 216.814L155.017 215.863L150.761 206.879C150.761 206.498 150.789 206.118 150.799 205.738H152.411L153.267 206.594C154.123 208.772 154.97 210.95 155.864 213.109C155.892 213.185 156.368 213.076 156.639 213.052L157.785 212.667C157.533 213.142 157.281 213.618 157.024 214.065C156.98 214.114 156.949 214.173 156.935 214.237C156.921 214.302 156.924 214.368 156.943 214.431V214.431Z" fill="#313131"/>
<path d="M261.648 207.488L263.688 205.918C262.737 208.772 262.499 211.406 263.722 214.06C264.787 216.357 266.171 216.709 268.439 215.344L269.457 215.525L268.221 216.8L262.847 216.129L262.747 216.048L261.658 214.912C260.307 212.438 260.383 209.965 261.648 207.488Z" fill="#313131"/>
<path d="M235.453 207.806C235.472 210.343 235.489 212.863 235.505 215.368C235.624 215.844 235.738 216.286 235.853 216.743L232.999 216.833C232.999 215.406 232.999 213.979 232.999 212.553V210.175V208.272C232.999 207.849 232.999 207.426 232.999 207.007C232.999 206.589 233.056 206.237 233.089 205.852L234.003 205.281L235.025 206.299L235.453 207.806Z" fill="#313131"/>
<path d="M254.557 209.428L253.012 207.331C253.601 207.293 254.477 207.488 254.733 207.179C255.598 206.046 256.392 204.861 257.111 203.631C257.844 202.489 258.181 201.405 256.574 200.482H261.03C258.895 203.412 256.726 206.422 254.557 209.428Z" fill="#313131"/>
<path d="M121.873 207.098L123.628 209.68L124.613 210.156L125.531 210.631L126.449 211.107C128.555 213.18 128.475 214.564 126.139 216.424L125.44 215.72C126.548 214.503 125.916 213.547 124.884 212.8C124.009 212.172 122.982 211.773 122.03 211.188C120.014 209.889 119.795 208.458 121.222 206.313C121.455 206.608 121.664 206.855 121.873 207.098Z" fill="#313131"/>
<path d="M187.856 209.233C188.922 207.526 187.923 206.56 186.696 205.314L189.849 206.18L190.358 207.288V214.778V216.367H188.807C188.679 216.12 188.551 215.891 188.427 215.625L188.313 214.398L188.365 210.593L187.856 209.233Z" fill="#313131"/>
<path d="M150.789 205.738C150.789 206.118 150.789 206.498 150.751 206.879C147.897 205.975 145.111 207.882 145.106 210.707C145.106 211.792 145.039 212.881 145.001 213.97C145.001 211.982 145.001 209.994 144.887 208.011C144.844 207.336 144.359 206.689 144.079 206.028L143.061 207.492L141.496 206.223C144.735 205.167 147.745 205.252 150.789 205.738Z" fill="#313131"/>
<path d="M211.636 206.827L211.835 208.149L212.311 215.877C212.24 216.177 212.164 216.476 212.092 216.781L209.291 216.752C209.367 213.494 209.434 210.237 209.543 206.979C209.606 206.479 209.719 205.986 209.881 205.509L210.67 205.291L211.621 205.433L211.636 206.827Z" fill="#313131"/>
<path d="M360.37 207.06C358.126 206.327 356.242 207.454 354.297 208.244L353.075 205.961L351.981 206.86L350.944 206.598C350.944 206.394 350.978 206.194 350.992 205.99C354.682 205.184 358.501 205.159 362.201 205.918L360.37 207.06Z" fill="#313131"/>
<path d="M187.856 209.233L188.332 210.617C187.652 210.769 186.905 210.774 186.316 211.093C185.036 211.83 183.743 212.9 184.684 214.503C185.726 216.277 187.096 215.273 188.28 214.393L188.394 215.62L186.753 216.571L184.48 217.199L184.004 217.109L182.444 215.787C181.717 213.518 182.325 211.868 184.589 210.883C185.735 210.408 186.782 209.79 187.856 209.233Z" fill="#313131"/>
<path d="M378.058 211.135C379.735 212.35 379.996 213.815 378.842 215.53L377.587 215.392L376.683 212.819L373.811 211.135L373.373 210.85L372.336 209.675C372.512 208.577 372.688 207.473 372.869 206.375L373.554 207.178L374.267 209.081L375.299 209.699L376.174 210.127L378.058 211.135Z" fill="#313131"/>
<path d="M322.043 215.292L323.346 216.676H319.118C320.545 213.927 320.326 207.778 318.785 205.909H321.91C321.339 206.437 320.293 206.96 320.283 207.497C320.236 210.213 320.454 212.933 320.597 215.958L322.043 215.292Z" fill="#313131"/>
<path d="M193.758 205.852L195.413 205.267L196.469 206.746C196.469 207.279 196.469 207.811 196.469 208.344L196.512 215.268C195.808 216.909 195.109 216.743 194.424 215.268C194.281 212.526 194.14 209.78 194.001 207.031C193.906 206.627 193.834 206.237 193.758 205.852Z" fill="#313131"/>
<path d="M351.981 206.855L353.075 205.956L354.297 208.239C354.316 210.595 354.338 212.951 354.364 215.306C353.603 216.9 352.937 216.733 352.304 215.206C352.197 212.429 352.089 209.645 351.981 206.855Z" fill="#313131"/>
<path d="M269.457 215.525L268.44 215.344C269.729 211.606 269.524 208.211 265.634 205.457L268.716 205.866L269.191 206.451L270.061 207.336C271.926 210.061 271.716 212.971 269.457 215.525Z" fill="#313131"/>
<path d="M360.371 207.06L362.202 205.918C362.24 206.555 362.282 207.193 362.32 207.821C362.32 208.296 362.32 208.743 362.32 209.2V212.101L362.397 213.989C362.725 214.464 363.048 214.94 363.348 215.416L364.855 216.628L361.051 215.91C360.835 212.949 360.608 209.999 360.371 207.06Z" fill="#313131"/>
<path d="M133.135 215.121L133.678 216.101L133.297 216.624L130.753 214.465L130.596 207.183C130.672 206.708 130.748 206.232 130.829 205.757L131.504 205.78L132.412 205.952L132.612 210.232L132.688 213.989L133.135 215.121Z" fill="#313131"/>
<path d="M143.061 207.492L144.079 206.028C144.36 206.689 144.845 207.335 144.887 208.011C145.021 209.994 144.978 211.982 145.002 213.97L145.182 215.206L144.017 216.291L143.066 215.249C143.06 212.662 143.058 210.076 143.061 207.492Z" fill="#313131"/>
<path d="M91.1366 215.116L90.894 207.031C91.0034 205.638 91.7786 205.633 92.5538 206.408C92.9391 206.793 92.9248 207.583 93.0912 208.192L93.2149 215.416C92.2637 217.023 91.6407 216.562 91.1366 215.116Z" fill="#313131"/>
<path d="M157.776 212.676L156.629 213.062L159.145 205.666H160.948L157.776 212.676Z" fill="#313131"/>
<path d="M93.091 208.206C92.9245 207.597 92.9388 206.808 92.5536 206.423C91.7784 205.647 91.0032 205.652 90.8938 207.046L89.8189 206.679L89.7856 205.928C90.8842 205.885 91.9829 205.895 93.0672 205.79C93.752 205.723 94.4416 205.314 95.0884 205.376C95.8827 205.471 96.6389 205.923 97.4093 206.218C96.8541 206.626 96.2691 206.992 95.6591 207.312C94.8316 207.678 93.9518 207.916 93.091 208.206Z" fill="#313131"/>
<path d="M322.043 215.292L320.616 215.958C320.474 212.933 320.255 210.213 320.303 207.497C320.303 206.96 321.358 206.437 321.929 205.909C321.929 206.075 321.929 206.247 321.967 206.418L322.038 208.401L322.043 215.292Z" fill="#313131"/>
<path d="M377.587 215.416L378.842 215.554C377.021 218.226 374.434 216.69 372.042 216.928V213.038C373.54 215.478 375.061 216.923 377.587 215.416Z" fill="#313131"/>
<path d="M298.192 200.14L301.997 200.235L303.134 200.511L305.512 200.292L305.883 205.262C304.294 202.166 302.078 200.606 298.654 201.034L298.192 200.14Z" fill="#313131"/>
<path d="M154.713 218.165L155.612 218.293C155.136 220.291 154.109 221.813 151.936 222.022C151.336 222.079 150.666 221.432 150.033 221.104C150.609 220.761 151.274 220.039 151.745 220.153C153.567 220.576 154.123 219.411 154.713 218.165Z" fill="#313131"/>
<path d="M121.874 207.098C121.664 206.855 121.455 206.622 121.241 206.365L126.982 204.815V209.048C124.818 205.771 124.076 205.514 121.874 207.098Z" fill="#313131"/>
<path d="M373.544 207.183L372.859 206.38L378.661 204.82V209.057C376.474 205.761 375.594 205.481 373.544 207.183Z" fill="#313131"/>
<path d="M194.405 215.249C195.09 216.743 195.789 216.909 196.493 215.249L197.92 216.381L197.791 216.9L192.213 216.376V216.524L188.808 216.367H190.349V214.774C191.69 214.969 192.774 217.465 194.405 215.249Z" fill="#313131"/>
<path d="M125.441 215.773L126.14 216.476L120.2 217.428C120.613 215.968 120.861 215.088 121.113 214.203C122.045 215.972 123.595 216.281 125.441 215.773Z" fill="#313131"/>
<path d="M196.469 206.746C197.896 205.761 199.204 204.477 201.116 205.876C201.325 206.033 202.067 205.495 202.543 205.281C202.571 205.643 202.595 206.004 202.619 206.361L201.082 206.779L196.465 208.344C196.455 207.806 196.465 207.279 196.469 206.746Z" fill="#313131"/>
<path d="M247.328 130.333C246.396 132.854 245.463 135.373 244.527 137.891C244.366 134.966 244.846 132.279 247.328 130.333Z" fill="#E3612E"/>
<path d="M300.57 216.914L297.593 215.325C300.171 215.749 302.668 215.753 304.851 214.008C304.171 216.063 302.848 217.18 300.57 216.914Z" fill="#313131"/>
<path d="M235.453 207.806L234.978 206.308L238.554 205.214L239.282 206.679C238.839 206.925 238.376 207.132 237.898 207.297C237.094 207.53 236.266 207.654 235.453 207.806Z" fill="#313131"/>
<path d="M110.402 211.858L111.534 212.168C111.059 213.804 110.93 215.268 113.175 215.601L109.632 215.863C108.695 214.298 108.733 212.924 110.402 211.858Z" fill="#313131"/>
<path d="M81.1777 214.793C81.4821 215.297 81.7865 216.219 82.0909 216.219C82.6425 216.219 83.199 215.673 83.7554 215.359L86.3474 216.785H79.0376L81.1777 214.793Z" fill="#313131"/>
<path d="M252.06 215.416C252.978 216.842 253.806 216.776 254.538 215.259L256.441 216.771H250.044L252.06 215.416Z" fill="#313131"/>
<path d="M342.308 215.306C343.207 216.962 344.087 216.904 344.943 215.273L346.888 216.343L346.807 216.747H339.939L342.308 215.306Z" fill="#313131"/>
<path d="M249.892 201.548C248.755 200.278 247.585 200.259 246.387 201.462L245.008 200.815L245.074 200.454H251.733L249.892 201.548Z" fill="#313131"/>
<path d="M352.304 215.211C352.918 216.733 353.603 216.904 354.364 215.311L356.052 216.647H350.464L352.304 215.211Z" fill="#313131"/>
<path d="M185.412 205.699C185.249 206.596 185.011 207.478 184.699 208.334C184.499 208.776 183.881 209.024 183.448 209.361C183.2 208.843 182.606 208.101 182.768 207.849C183.44 206.958 184.182 206.123 184.989 205.352L185.412 205.699Z" fill="#313131"/>
<path d="M91.1366 215.116C91.6407 216.543 92.2828 217.019 93.2197 215.411L94.9555 216.714H90.0522L91.1366 215.116Z" fill="#313131"/>
<path d="M228.281 209.666L227.806 208.758L226.441 206.242C226.441 205.966 226.441 205.69 226.441 205.419L229.247 206.342L229.618 206.898L230.345 209.276L228.281 209.666Z" fill="#313131"/>
<path d="M218.831 18.0476H219.721L221 19.95L219.721 22.8035H218.831C218.826 21.2198 218.831 19.6361 218.831 18.0476Z" fill="#1568A3"/>
<path d="M107.007 207.806C107.064 209.628 105.832 209.233 104.777 209.1L104.106 206.475L106.056 206.38L107.007 207.806Z" fill="#313131"/>
<path d="M225.452 205.024L226.446 205.419C226.446 205.69 226.446 205.966 226.446 206.242L223.207 207.445L222.546 206.827L225.452 205.024Z" fill="#313131"/>
<path d="M176.48 208.758L176.913 209.162L173.013 209.542C173.037 209.138 173.061 208.734 173.08 208.33L176.48 208.758Z" fill="#313131"/>
<path d="M132.689 213.989L132.636 210.213L132.689 213.989Z" fill="#4D4D4D"/>
<path d="M130.829 205.752C130.748 206.228 130.672 206.703 130.596 207.179L129.207 206.023L129.393 205.486L130.829 205.752Z" fill="#313131"/>
<path d="M373.811 211.135L376.693 212.829L373.811 211.135Z" fill="#4D4D4D"/>
<path d="M298.193 200.14L298.668 201.034L297.199 201.462L297.142 200.544L298.193 200.14Z" fill="#313131"/>
<path d="M153.257 206.603L152.401 205.747L154.561 205.452C153.781 206.147 153.519 206.38 153.257 206.603Z" fill="#313131"/>
<path d="M304.851 213.989L305.735 212.871L306.03 213.166L304.851 213.989Z" fill="#313131"/>
<path d="M169.946 200.972H168.519L168.453 200.497L169.879 200.397L169.946 200.972Z" fill="#313131"/>
<path d="M362.396 213.989L362.339 212.115L362.396 213.989Z" fill="#4D4D4D"/>
<path d="M378.058 211.135L376.155 210.099L378.058 211.135Z" fill="#4D4D4D"/>
<path d="M372.327 209.68L373.363 210.855L372.327 209.68Z" fill="#4D4D4D"/>
<path d="M362.315 209.233C362.315 208.758 362.315 208.315 362.315 207.854C362.32 208.282 362.315 208.758 362.315 209.233Z" fill="#4D4D4D"/>
<path d="M177.869 201.148L176.495 200.934L177.869 201.148Z" fill="#7A7A7A"/>
<path d="M177.394 209.205L178.82 208.253L177.394 209.205Z" fill="#7A7A7A"/>
<path d="M232.942 207.031L232.114 205.918L233.032 205.875C232.999 206.261 232.97 206.646 232.942 207.031Z" fill="#313131"/>
<path d="M375.29 209.709L374.258 209.091L375.29 209.709Z" fill="#4D4D4D"/>
<path d="M132.413 205.947L131.504 205.776L132.413 205.947Z" fill="#4D4D4D"/>
<path d="M270.047 207.331L269.177 206.446L270.047 207.331Z" fill="#3B3B3B"/>
<path d="M126.449 211.159L125.555 210.66L126.449 211.159Z" fill="#4D4D4D"/>
<path d="M124.604 210.184L123.619 209.709L124.604 210.184Z" fill="#4D4D4D"/>
<path d="M155.003 215.891L155.131 216.843L155.003 215.891Z" fill="#4D4D4D"/>
<path d="M87.5078 145.505C87.6695 145.186 87.8312 144.867 87.9834 144.553C87.8265 144.867 87.6648 145.186 87.5078 145.505Z" fill="#FAF7F2"/>
<path d="M303.143 200.511L302.007 200.235L303.143 200.511Z" fill="#7A7A7A"/>
<path d="M368.541 61.8537C368.455 61.673 368.365 61.497 368.279 61.321C368.365 61.497 368.455 61.673 368.541 61.8537Z" fill="#E6E6E6"/>
<path d="M220.672 206.855L220.472 206.746L220.672 206.855Z" fill="#F6F4E9"/>
<path d="M296.29 202.099C296.466 201.957 296.642 201.814 296.823 201.676L296.29 202.099Z" fill="#7A7A7A"/>
<path d="M135.295 92.629L136.018 92.239L135.295 92.629Z" fill="#F7F5EC"/>
<path d="M156.943 214.432C156.926 214.37 156.925 214.305 156.94 214.242C156.955 214.18 156.985 214.122 157.029 214.075C157.049 214.136 157.052 214.202 157.036 214.265C157.021 214.329 156.989 214.386 156.943 214.432V214.432Z" fill="#313131"/>
<path d="M43.6207 72.8398L43.4067 67.3277C43.4923 64.8261 43.5763 62.323 43.6588 59.8182C44.4912 59.8258 45.3153 59.6523 46.0741 59.3099C46.8328 58.9675 47.5081 58.4643 48.0532 57.8351C48.5983 57.2059 49.0001 56.4657 49.2308 55.6659C49.4616 54.8661 49.5157 54.0257 49.3896 53.2028L49.9746 50.4207L49.8176 60.0227C49.7415 62.3404 49.667 64.6549 49.5941 66.9663C49.5323 67.1422 49.4705 67.3135 49.4134 67.4894C49.0187 68.3693 48.8284 69.8055 48.2006 70.0338C45.4945 70.985 44.7098 73.263 43.868 75.5696C43.7872 74.6422 43.7016 73.7529 43.6207 72.8398Z" fill="#87B7D4"/>
<path d="M98.8079 67.0329L98.4797 73.1632C96.7248 74.3141 95.3932 73.3963 94.5038 72.0266C93.6145 70.6569 93.0771 69.0018 92.3922 67.4705L92.2495 66.9949C92.2724 66.8674 92.2883 66.7388 92.2971 66.6096C92.2781 64.6185 92.2622 62.6274 92.2495 60.6363L92.4493 53.2029L92.806 54.1541C92.806 55.4048 92.6776 56.6651 92.806 57.9017C93.0485 60.5507 95.0412 62.5434 96.6677 61.7587C97.4096 61.3972 97.8947 60.5221 98.4987 59.8801L98.941 60.6077C98.9461 60.6967 98.9794 60.7816 99.0361 60.8503L98.8079 67.0329Z" fill="#87B7D4"/>
<path d="M79.9222 38.0222L77.8867 37.0139C79.2564 34.7692 80.5738 32.6195 81.8911 30.4651C83.5034 31.2171 84.8677 32.4132 85.8242 33.9131C85.9479 34.1081 86.3902 34.0938 86.6851 34.1747L87.7599 36.077C87.2843 37.1423 86.8515 38.0364 86.433 38.9305L85.6055 42.3024C83.2275 43.4676 81.9292 41.7079 80.4644 40.4001L79.9222 38.0222Z" fill="#1872AB"/>
<path d="M92.806 54.1922L92.4493 53.241L92.4208 51.4053C92.4684 51.3482 92.5635 51.2816 92.554 51.2388C92.5148 51.1054 92.4623 50.9764 92.397 50.8536C92.359 50.7062 92.3114 50.554 92.2591 50.4066C92.2591 49.2699 92.2163 48.1285 92.1973 46.9918V47.0584C93.7144 46.345 94.4135 43.6342 96.6678 45.0087C97.267 46.6922 97.7854 48.1903 98.3751 49.6599C98.7495 49.5944 99.1183 49.5006 99.4785 49.3793L101.205 49.8977C96.9246 50.6871 99.2027 53.7404 98.4465 55.6475C98.4465 55.9662 98.4465 56.28 98.4465 56.5987L98.4037 58.0254C97.6189 57.4024 96.8675 56.7223 96.0257 56.1659C94.9794 55.4192 93.8809 54.82 92.806 54.1922Z" fill="#458EC0"/>
<path d="M79.9223 38.0222L80.4502 40.4001C80.4502 41.67 80.4121 42.935 80.3884 44.2048C80.3884 46.2594 80.3884 48.3202 80.3884 50.3875V58.1395C81.6344 58.3583 82.2907 58.3488 82.8186 58.5865C84.6021 59.376 85.9384 59.2857 86.414 57.0647C86.4616 58.3202 86.5044 59.5758 86.5519 60.8313V67.0139L86.4378 67.5513C86.1667 67.6465 85.7862 67.9033 85.6293 67.8082C84.0076 66.7952 82.4239 65.7251 80.8259 64.6741C80.5088 63.7514 80.1823 62.8288 79.8462 61.9061L79.3706 61.2546C79.6607 60.6649 80.2076 60.0751 80.2029 59.4902C80.1696 52.3183 80.0364 45.156 79.9223 38.0222Z" fill="#A6CADC"/>
<path d="M55.6719 41.8268C55.6719 40.5522 55.6719 39.2824 55.6719 38.0221C55.805 37.8319 56.0904 37.5893 56.0476 37.4609C55.2296 35.0021 57.9499 33.9035 58.2258 31.849C58.6515 31.6119 59.152 31.5472 59.624 31.6683C60.9604 32.3436 62.1398 36.1293 61.7261 37.5893C61.3123 39.0494 61.1459 40.4428 60.87 41.8696C59.253 41.5129 57.6789 43.439 56.0381 41.9647C55.9211 41.9063 55.7984 41.8601 55.6719 41.8268Z" fill="#1872AB"/>
<path d="M43.1976 50.4207L41.2715 49.9737L46.7217 40.6094C48.4956 43.8243 50.0508 46.616 51.5631 49.403C51.468 49.6788 51.3729 49.9594 51.2826 50.24L50.5216 50.1924C50.523 50.0433 50.4921 49.8957 50.4312 49.7596L49.3612 47.7337C47.3637 49.0035 44.8764 49.3649 45.4756 52.6797L43.1976 50.4207Z" fill="#3274A0"/>
<path d="M61.7214 50.3542C61.75 51.6336 61.7737 52.9129 61.8023 54.1922C61.1127 54.7106 60.4944 55.4383 59.7192 55.6998C58.7725 55.9991 57.7676 56.066 56.7896 55.8948C56.4757 55.8378 56.1808 54.7629 56.1618 54.1399C56.0857 51.6288 56.1238 49.113 56.1238 46.5971L60.8796 46.5591L61.7214 50.3542Z" fill="#659FC9"/>
<path d="M61.7217 50.3541L60.8752 46.5827V41.8506C61.151 40.4239 61.3508 38.9734 61.7312 37.5704C62.1117 36.1674 60.9655 32.3389 59.6292 31.6493C59.1571 31.5283 58.6567 31.593 58.2309 31.8301C57.9741 33.8846 55.2347 34.9832 56.0527 37.442C56.0955 37.5704 55.8102 37.8129 55.677 38.0032L53.4561 37.1614L58.8492 27.7686C60.7515 31.0406 62.4541 33.9512 63.7144 36.1246C62.9677 37.9128 62.1545 39.0352 62.0641 40.2146C61.7883 43.5723 61.8264 46.968 61.7217 50.3541Z" fill="#3274A0"/>
<path d="M74.0774 46.5827L74.2914 48.9844L74.144 48.9369V49.8881C74.1218 51.3021 74.1012 52.7178 74.0822 54.135C71.8707 53.2076 68.6129 53.9543 68.0803 50.3589C68.0803 47.1883 68.0644 44.0177 68.0327 40.8472C68.1897 42.1503 68.3086 43.4581 68.5083 44.747C68.5987 45.3224 68.8174 46.3259 69.0695 46.3544C70.7198 46.5827 72.4034 46.5447 74.0774 46.5827Z" fill="#659FC9"/>
<path d="M61.8975 60.8027H67.9279L68.4463 60.8883V60.8646C68.1641 62.9096 67.8803 64.953 67.595 66.9949H61.8879L61.8023 66.5193C61.8283 66.3603 61.8169 66.1975 61.769 66.0437C61.8008 65.9735 61.8173 65.8973 61.8173 65.8202C61.8173 65.7431 61.8008 65.6669 61.769 65.5966L61.8975 60.8027Z" fill="#E0AF67"/>
<path d="M80.3979 50.3875C80.3979 48.3266 80.3979 46.2657 80.3979 44.2048C80.6785 44.9705 80.9544 45.7362 81.2588 46.5828H86.0812L86.4569 46.6208L86.3856 52.7321C83.7794 53.6072 81.3919 52.675 80.3979 50.3875Z" fill="#659FC9"/>
<path d="M56.1189 46.5828C56.1189 49.0986 56.0809 51.6145 56.157 54.1255C56.157 54.7486 56.4709 55.8234 56.7848 55.8805C57.7628 56.0516 58.7676 55.9848 59.7144 55.6855C60.4896 55.4239 61.1078 54.6963 61.7974 54.1779V59.8849L56.0904 60.8361L55.7575 60.0133L55.6719 41.8269C55.7967 41.8556 55.9191 41.8937 56.0381 41.941L56.1189 46.5828Z" fill="#87B7D4"/>
<path d="M80.3979 50.3875C81.3919 52.6845 83.7794 53.6167 86.3856 52.7321L86.4712 54.6677C86.4236 54.7153 86.3238 54.7723 86.3285 54.8104C86.3613 54.9311 86.4043 55.0489 86.4569 55.1623C86.4569 55.7996 86.4569 56.4322 86.4236 57.0647C85.948 59.2857 84.6116 59.376 82.8282 58.5865C82.2908 58.3488 81.644 58.3583 80.3979 58.1395V50.3875Z" fill="#87B7D4"/>
<path d="M74.0773 46.5827C72.4032 46.5352 70.7196 46.5827 69.0646 46.3735C68.8125 46.345 68.589 45.3415 68.5034 44.766C68.2942 43.4772 68.1753 42.1693 68.0278 40.8662L68.0564 38.0127C68.2038 38.0127 68.3465 38.0365 68.4939 38.0412L68.6081 40.0529L73.2403 40.4001C73.5066 41.9696 73.7682 43.539 74.0345 45.1084L74.0773 46.5827Z" fill="#458EC0"/>
<path d="M74.1345 56.0945L74.6101 61.3259C74.4817 61.8015 74.3485 62.2771 74.2154 62.7242L74.1916 67.033L74.1202 68.4359C73.8254 67.1899 73.54 65.9391 73.2357 64.6931C73.0454 63.9179 72.8314 63.1474 72.6269 62.3722L70.4963 63.4566L68.418 60.8789V60.9026C68.418 60.0894 68.4513 59.2762 68.4703 58.4629L71.0955 58.7197C71.3238 57.293 71.9658 56.4559 73.4734 57.5783L74.1345 56.0945Z" fill="#A6CADC"/>
<path d="M56.0907 60.8503L61.7978 59.8992C61.7978 60.1988 61.8501 60.5032 61.8786 60.8028L61.7264 65.6062C61.6789 65.649 61.5838 65.7108 61.5933 65.7394C61.6353 65.848 61.6862 65.953 61.7455 66.0533C61.7928 66.2071 61.8042 66.3699 61.7787 66.5288C61.3032 65.9914 60.8704 65.454 60.4424 64.9547L56.0146 67.4039C56.04 65.2321 56.0654 63.0475 56.0907 60.8503Z" fill="#A6CADC"/>
<path d="M43.1973 50.4207L45.4753 52.6797C44.8761 49.3506 47.3776 49.0035 49.3608 47.7336C49.7128 48.3947 50.0695 49.0795 50.4309 49.7644L49.9553 50.4254L49.3704 53.2076L45.9034 54.6344C45.6988 55.1718 45.4277 55.8804 45.052 56.8316L43.3542 54.1921L43.1973 50.4207Z" fill="#458EC0"/>
<path d="M74.1343 56.0945L73.4923 57.5878C71.9942 56.4654 71.3522 57.2835 71.1144 58.7292L68.4844 58.4724L68.0088 57.9968C68.0278 55.4604 68.0452 52.9239 68.0611 50.3875C68.5938 53.9829 71.8658 53.241 74.063 54.1636C74.1296 54.4965 74.1914 54.8294 74.258 55.1576L74.1343 56.0945Z" fill="#87B7D4"/>
<path d="M92.8058 54.1921C93.8806 54.8342 94.9793 55.4334 96.016 56.1325C96.8436 56.689 97.595 57.369 98.394 57.9921C98.4273 58.6341 98.4653 59.2762 98.4986 59.9182C97.8946 60.5602 97.4095 61.4353 96.6676 61.7968C95.0411 62.5815 93.0484 60.5888 92.8058 57.9398C92.6774 56.689 92.7963 55.4287 92.8058 54.1921Z" fill="#659FC9"/>
<path d="M67.3525 23.5788C68.1753 22.0569 68.9838 20.5207 69.8351 19.0131C70.1395 18.4805 70.5627 18.0144 71.1762 17.1821L76.6455 26.4798L74.2675 26.6938L74.1011 26.5417C74.6861 24.6393 73.4638 23.4551 72.3747 22.2328C71.9705 21.7573 71.376 20.9535 71.0859 21.0391C70.4533 21.2246 69.526 21.8619 69.4927 22.3613C69.4071 23.8118 68.5082 23.7452 67.557 23.788L67.3525 23.5788Z" fill="#3274A0"/>
<path d="M56.0907 60.8504C56.0622 63.0318 56.0368 65.2147 56.0146 67.3993C55.9087 67.3934 55.8036 67.3775 55.7007 67.3517L49.5942 66.9475C49.6703 64.6298 49.7448 62.3153 49.8177 60.0039C49.8891 60.1418 49.9652 60.4034 50.0318 60.3986C51.9341 60.2893 53.8365 60.1561 55.7388 60.0277C55.8672 60.3225 55.9766 60.5936 56.0907 60.8504ZM50.5882 61.5543V66.976C52.2337 66.3768 53.7651 66.1913 54.6973 65.3447C55.2632 64.8264 55.2917 62.5578 54.9065 62.3628C53.7413 61.8016 52.267 61.8302 50.5882 61.5733V61.5543Z" fill="#E3CA77"/>
<path d="M43.3542 54.1921L45.0711 56.8268C45.442 55.8757 45.7179 55.1671 45.9224 54.6296L49.3894 53.2029C49.5155 54.0257 49.4613 54.8661 49.2306 55.666C48.9998 56.4658 48.598 57.2059 48.053 57.8351C47.5079 58.4643 46.8326 58.9675 46.0739 59.31C45.3151 59.6524 44.491 59.8258 43.6586 59.8183L43.7109 59.6756L43.397 57.9778L43.2401 58.011C43.2401 57.6924 43.1972 57.3738 43.1782 57.0599L43.3542 54.1921Z" fill="#659FC9"/>
<path d="M86.0809 46.5828H81.249C80.9446 45.7457 80.6688 44.98 80.3882 44.2048C80.412 42.935 80.431 41.67 80.45 40.4001C81.9148 41.7033 83.2131 43.4629 85.5911 42.3025L86.4614 42.8304C86.4614 43.1157 86.4614 43.3963 86.4614 43.6817L86.0809 46.5828Z" fill="#458EC0"/>
<path d="M74.2388 62.7242C74.3719 62.2486 74.5051 61.773 74.6335 61.326L79.3894 61.2356L79.865 61.8871C79.6081 62.6576 78.9138 63.6801 79.1706 64.1509C80.1503 65.8821 78.9946 66.2958 77.8532 66.4813C76.5073 66.6953 74.8999 66.9569 75.0901 64.579C75.1424 63.9892 74.5384 63.3472 74.2388 62.7242Z" fill="#F6BE32"/>
<path d="M86.5566 66.9948V60.8122L92.2637 60.6362L92.3065 66.6096L91.5027 67.0091L86.5566 66.9948ZM91.5265 62.239L90.8369 61.6017C89.7668 61.8632 88.4067 61.83 87.7218 62.491C87.2462 62.9333 87.446 64.6216 87.9549 65.278C88.3353 65.7535 90.1854 65.8772 90.5183 65.4634C91.1651 64.6549 91.2269 63.3518 91.5313 62.277L91.5265 62.239Z" fill="#E0AF67"/>
<path d="M99.4594 49.3507C99.0993 49.472 98.7304 49.5658 98.3561 49.6313C97.7664 48.1618 97.248 46.6637 96.6487 44.9801C94.3944 43.6056 93.6953 46.3165 92.1782 47.0299C93.1009 45.0356 94.0251 43.0397 94.9509 41.0422L95.6643 41.1373C97.0197 43.8292 99.4357 45.9931 99.4594 49.3507Z" fill="#3274A0"/>
<path d="M74.0203 45.1274C73.754 43.558 73.4924 41.9885 73.2261 40.4191C73.2261 37.4071 73.2261 34.395 73.2261 31.383C73.5209 29.7692 73.8174 28.1553 74.1154 26.5415L74.2819 26.6937L74.1297 40.4001C74.0726 40.4476 73.9633 40.5047 73.968 40.5332C74.0061 40.6564 74.0554 40.7758 74.1154 40.8899C74.0822 42.3024 74.0536 43.7292 74.0203 45.1274Z" fill="#3274A0"/>
<path d="M86.685 34.1652C86.3902 34.0844 85.9479 34.0986 85.8242 33.9037C84.8677 32.4037 83.5033 31.2076 81.8911 30.4557L83.2846 27.5688L86.685 34.1652Z" fill="#3274A0"/>
<path d="M68.4842 38.0222C68.3368 38.0222 68.1941 38.0222 68.0467 37.9936C68.0181 35.2447 68.0181 32.4911 67.9515 29.7422C67.9182 28.4391 68.3082 27.1883 66.5533 26.2324C65.1979 25.4952 66.325 24.2682 67.3523 23.5691L67.5758 23.7879C67.8929 26.3085 68.2099 28.8291 68.527 31.3497L68.4842 38.0222Z" fill="#3274A0"/>
<path d="M92.1969 46.9631C92.1969 48.0998 92.2397 49.2412 92.2588 50.3779C90.228 49.1936 90.2232 48.894 92.1969 46.9631Z" fill="#3274A0"/>
<path d="M86.4615 42.8257L85.6055 42.3026L86.4473 38.9211L86.4615 42.8257Z" fill="#87B7D4"/>
<path d="M86.0811 46.5828L86.452 43.6865C86.452 44.6662 86.452 45.6459 86.452 46.6209L86.0811 46.5828Z" fill="#87B7D4"/>
<path d="M68.0087 57.9968L68.4843 58.4724C68.4843 59.2857 68.451 60.0989 68.432 60.9122L67.9136 60.8266L68.0087 57.9968Z" fill="#B2DAE8"/>
<path d="M51.2822 50.2401C51.3726 49.9595 51.4677 49.6789 51.5628 49.4031C51.4677 49.6837 51.3631 49.9595 51.2822 50.2401Z" fill="#87B7D4"/>
<path d="M92.397 50.825C92.4622 50.9477 92.5148 51.0768 92.5539 51.2102C92.5539 51.253 92.4683 51.3195 92.4207 51.3766C92.416 51.1959 92.4065 51.0104 92.397 50.825Z" fill="#87B7D4"/>
<path d="M86.4565 55.1433C86.4039 55.0298 86.3609 54.9121 86.3281 54.7914C86.3281 54.7533 86.4232 54.6962 86.4708 54.6487L86.4565 55.1433Z" fill="#A6CADC"/>
<path d="M74.1152 40.8758C74.0552 40.7617 74.0058 40.6423 73.9678 40.5191C73.9678 40.4906 74.0724 40.4335 74.1295 40.386L74.1152 40.8758Z" fill="#659FC9"/>
<path d="M49.9697 50.4255L50.4453 49.7644C50.5065 49.8987 50.5374 50.0448 50.5357 50.1924L49.9697 50.4255Z" fill="#87B7D4"/>
<path d="M195.941 102.702H176.366C176.59 100.376 176.889 98.6975 176.894 97.0187C176.923 73.6516 176.923 50.2861 176.894 26.9221V23.964L181.174 23.5264L178.321 21.0771H195.309L196.892 23.7547V96.429C196.892 98.0793 196.46 99.9198 199.118 100.5L195.941 102.702Z" fill="#076AA9"/>
<path d="M195.941 102.702L199.123 100.49C196.464 99.9102 196.897 98.0697 196.897 96.4194V19.9499C192.717 19.9499 188.812 20.0545 184.946 19.9166C181.079 19.7787 177.256 19.4125 173.413 19.1462L173.365 18.4138C173.79 18.2392 174.236 18.1208 174.692 18.0618C183.062 18.0381 191.433 18.0618 199.803 18.019C201.277 18.019 201.839 18.5232 201.644 19.9214L199.161 19.1842C199.075 19.5409 198.895 20.1972 198.918 20.202C199.741 20.4683 200.578 20.6776 201.415 20.8773C201.493 20.8845 201.571 20.8845 201.648 20.8773C201.648 21.8285 201.648 22.7797 201.648 23.7308V99.8484C201.33 100.8 201.173 101.832 200.645 102.645C200.226 103.287 199.399 104.01 198.714 104.048C197.701 104.1 195.965 104.942 195.941 102.702Z" fill="#076AA9"/>
<path d="M201.648 99.8484V23.7546C201.962 24.3681 202.547 24.9817 202.552 25.5999C202.596 49.7375 202.596 73.8719 202.552 98.0031C202.547 98.6166 201.962 99.2254 201.648 99.8484Z" fill="#076AA9"/>
<path d="M173.465 104.813H195.599V105.289H173.465V104.813Z" fill="#076AA9"/>
<path d="M201.648 20.9011C201.571 20.9082 201.493 20.9082 201.415 20.9011C200.578 20.6918 199.741 20.4921 198.918 20.2258C198.918 20.2258 199.075 19.5647 199.161 19.208L201.648 19.9499C201.648 20.2638 201.648 20.5825 201.648 20.9011Z" fill="#076AA9"/>
<path d="M219.721 22.8036L221.01 19.95L219.721 18.0477L223.05 18.0239H287.254L292.01 18.3949C292.01 22.8844 291.962 27.5356 292.038 32.1869C292.062 33.6945 291.563 34.0892 290.046 34.3032C276.853 36.3054 263.589 34.6314 250.372 35.164C247.519 35.2782 247.309 35.4113 247.3 38.3267C247.3 41.5749 247.205 44.8232 247.333 48.0667C247.409 50.0261 247.809 51.9712 248.094 53.9497C249.316 53.6215 250.044 53.2744 250.786 53.2458C259.014 52.8986 267.246 52.4944 275.478 52.347C278.19 52.3705 280.889 52.7121 283.521 53.3647C284.267 53.5312 285.214 54.8771 285.261 55.7426C285.461 59.1383 285.375 62.553 285.309 65.9535C285.309 66.4671 284.866 67.3802 284.557 67.4088C282.717 67.5942 280.848 67.5039 278.998 67.6323C276.539 67.7987 274.085 68.0793 271.626 68.3076C270.998 68.3694 270.375 68.4836 269.752 68.4836C266.19 68.4836 262.619 68.593 259.061 68.4503C257.316 68.379 255.599 67.7274 253.83 67.58C251.751 67.404 249.511 67.0711 248.246 69.4538C247.918 70.0483 247.295 70.6428 247.295 71.242C247.235 80.1672 247.235 89.0971 247.295 98.0317C247.295 98.6405 247.894 99.2492 248.213 99.8532V100.804C247.899 101.756 247.59 102.707 247.262 103.658L242.506 104.609L220.672 104.604L220.158 102.226C220.396 101.508 220.555 100.767 220.634 100.015C220.634 74.5742 220.634 49.1368 220.634 23.7024L219.721 22.8036Z" fill="#076AA9"/>
<path d="M220.672 23.7166C220.672 49.1572 220.672 74.5947 220.672 100.029C220.593 100.781 220.434 101.523 220.196 102.241C219.981 101.429 219.836 100.6 219.764 99.7627C219.742 75.2732 219.742 50.7853 219.764 26.299C219.749 25.4382 220.334 24.5774 220.672 23.7166Z" fill="#076AA9"/>
<path d="M287.254 18.0476H223.05C223.857 17.8244 224.683 17.6764 225.518 17.6053C245.283 17.5831 265.049 17.5831 284.814 17.6053C285.639 17.681 286.455 17.829 287.254 18.0476V18.0476Z" fill="#1568A3"/>
<path d="M248.256 99.8484C247.937 99.2444 247.343 98.6357 247.338 98.0269C247.278 89.0954 247.278 80.1655 247.338 71.2372C247.338 70.6379 247.952 70.0435 248.289 69.449C248.267 79.5694 248.256 89.7026 248.256 99.8484Z" fill="#1568A3"/>
<path d="M220.672 104.604H242.582C242.035 104.909 241.493 105.475 240.946 105.479C234.716 105.543 228.486 105.543 222.256 105.479C221.732 105.498 221.205 104.918 220.672 104.604Z" fill="#076AA9"/>
<path d="M247.329 103.682C247.643 102.73 247.952 101.779 248.28 100.828C247.947 101.76 247.63 102.711 247.329 103.682Z" fill="#1568A3"/>
<path d="M67.671 153.59L66.3584 151.212L67.0004 151.245C67.3286 150.104 67.8375 148.976 67.9516 147.811C68.1181 145.952 68.0182 144.064 68.0277 142.19L68.47 137.857H73.2258C73.2258 142.256 73.4018 146.66 73.1545 151.045C73.0641 152.7 72.0084 154.303 71.528 155.573C69.2595 155.668 69.911 152.467 67.671 153.59Z" fill="#1568A3"/>
<path d="M83.9126 148.244L82.852 148.605L78.0581 139.455V139.427L79.8653 139.241C80.0746 137.532 80.2854 135.825 80.4979 134.119C81.254 134.266 82.0388 134.595 82.7569 134.514C83.651 134.385 84.4928 133.886 85.501 133.496C85.6104 133.073 85.7768 132.412 85.9481 131.755C86.1224 133.813 86.3016 135.874 86.4855 137.938C86.8469 138.683 87.2116 139.43 87.5793 140.178L88.4306 140.064L83.9126 148.244Z" fill="#1872AB"/>
<path d="M61.7737 133.139C61.8213 134.4 61.9354 135.66 61.9021 136.916C61.8593 138.428 61.8688 139.817 64.3419 139.617L58.8203 149.129C57.0702 145.928 55.5578 143.17 54.0645 140.454L55.7195 138.875L56.1951 132.75L59.3244 134.676L61.7737 133.139Z" fill="#1872AB"/>
<path d="M86.5565 116.456C86.5137 117.574 86.4661 118.691 86.4233 119.809C86.1285 118.296 85.8384 116.779 85.5388 115.238L80.4453 116.993C80.3073 116.993 80.1647 116.951 80.0267 116.936L78.3622 116.822H77.1494L74.2959 116.399V119.823L74.1295 120.299C73.7109 119.666 73.2972 119.034 73.1117 118.758L68.6364 119.424C68.4795 120.256 68.2512 121.454 68.0229 122.653L68.1086 116.722C68.2274 116.161 68.3511 115.6 68.47 115.039C69.2429 114.991 70.0179 114.991 70.7908 115.039C72.6932 115.286 73.4636 114.592 73.3115 112.613C73.2544 111.857 73.8203 111.058 74.1009 110.278C74.2864 116.399 74.2864 116.399 78.9995 115.985C80.3691 114.815 80.4262 111.619 79.0946 110.074L79.846 109.465L80.4262 109.317L81.2062 112.499L86.5565 109.451C86.5565 111.787 86.5565 114.122 86.5565 116.456Z" fill="#A6CADC"/>
<path d="M56.2097 132.735L55.7341 138.861L55.7056 126.495L56.1812 120.788C57.9408 121.402 59.6054 122.743 61.6171 121.535C61.6964 124.446 61.7756 127.358 61.8549 130.271C61.5553 130.072 61.2604 129.853 60.9513 129.672C59.962 129.106 58.9253 128.041 57.9836 128.117C56.5569 128.236 55.9243 129.544 56.1479 131.094C56.2002 131.646 56.1812 132.188 56.2097 132.735Z" fill="#659FC9"/>
<path d="M67.6709 153.59C69.9299 152.486 69.2594 155.687 71.5374 155.601C72.013 154.331 73.0736 152.748 73.1639 151.074C73.4112 146.689 73.24 142.285 73.2353 137.886C73.2353 135.682 73.2353 133.482 73.2353 131.285L73.9819 129.425C74.0136 131.299 74.0454 133.176 74.0771 135.056C74.0771 135.689 74.1103 136.326 74.1294 136.958C74.0057 139.374 73.7584 141.79 73.7917 144.206C73.8202 146.147 74.1864 148.082 74.4147 150.142L76.5358 150.513C74.7381 153.642 73.0355 156.595 70.9667 160.191C69.7254 157.651 68.6982 155.611 67.6709 153.59Z" fill="#3274A0"/>
<path d="M74.0059 129.406L73.2402 131.266C72.4472 131.289 71.6535 131.271 70.8623 131.213C69.0313 130.99 68.2276 131.627 68.4273 133.591C68.5036 135.017 68.5036 136.446 68.4273 137.871L68.0088 142.176C68.0088 137.578 68.0088 132.981 68.0088 128.384C68.4844 127.123 68.6033 125.207 69.4784 124.764C70.7101 124.141 72.4983 124.612 74.0487 124.617C74.1106 125.235 74.1771 125.858 74.239 126.481C74.1724 127.455 74.0947 128.43 74.0059 129.406Z" fill="#659FC9"/>
<path d="M61.9069 116.87C61.9069 117.535 61.8641 118.201 61.8403 118.862L57.3983 115.609L55.7386 117.921C55.6672 117.321 55.6006 116.722 55.5293 116.123C55.7164 114.186 55.9034 112.248 56.0905 110.311L60.5229 112.328L61.7024 111.267C61.7848 113.138 61.853 115.005 61.9069 116.87Z" fill="#A6CADC"/>
<path d="M56.0908 110.311C55.9006 112.248 55.7135 114.186 55.5296 116.123L50.3267 116.375L49.5039 116.047C49.4754 115.224 49.4421 114.401 49.4136 113.579L49.5277 109.546C49.6684 109.488 49.8181 109.456 49.97 109.45H55.6437L56.0908 110.311ZM54.664 112.689L53.0613 110.501L50.4123 112.594C51.1542 113.431 51.7534 114.71 52.6713 115.005C54.3073 115.543 54.3216 114.116 54.6498 112.689H54.664Z" fill="#E3CA77"/>
<path d="M74.0678 124.617C72.5174 124.617 70.7387 124.141 69.4974 124.764C68.6223 125.207 68.4892 127.142 68.0278 128.384C68.0278 126.481 68.0278 124.579 68.0278 122.677C68.2561 121.478 68.5034 120.299 68.6414 119.447L73.1166 118.781C73.3021 119.057 73.7159 119.69 74.1344 120.322C74.1772 120.798 74.22 121.274 74.258 121.749V122.662L74.0678 124.617Z" fill="#87B7D4"/>
<path d="M56.2093 132.735C56.1808 132.193 56.2093 131.646 56.119 131.109C55.8954 129.573 56.5422 128.255 57.9547 128.132C58.9059 128.055 59.9332 129.121 60.9224 129.687C61.2315 129.867 61.5264 130.086 61.826 130.286C61.826 131.237 61.8086 132.188 61.7737 133.139L59.3387 134.652L56.2093 132.735Z" fill="#458EC0"/>
<path d="M55.7385 117.921L57.3983 115.609L61.826 118.872C61.7404 119.772 61.6563 120.668 61.5739 121.559C59.5622 122.767 57.8977 121.426 56.1332 120.812C55.9953 120.337 55.8526 119.861 55.71 119.357L55.7385 117.921Z" fill="#87B7D4"/>
<path d="M61.9071 116.87C61.8406 115.002 61.7724 113.135 61.7026 111.267C61.7645 110.682 61.8263 110.092 61.8834 109.503L67.5523 109.441L67.4953 110.34C62.5682 110.278 62.1782 110.497 62.8631 113.826C63.0295 114.653 64.3279 115.785 65.1173 115.799C65.9068 115.814 67.0197 114.706 67.3811 113.84C67.7806 112.818 67.4905 111.524 67.5048 110.349C67.8139 110.777 68.3466 111.172 68.3989 111.629C68.4822 112.771 68.5013 113.918 68.456 115.062C68.3371 115.624 68.2134 116.185 68.0945 116.746L61.9071 116.87Z" fill="#E3CA77"/>
<path d="M49.5035 116.047L50.3263 116.375C50.2122 119.414 50.0457 122.453 50.06 125.492C50.06 125.968 50.9017 126.443 51.3535 126.919H49.4512L49.3799 122.724V117.017L49.5035 116.047Z" fill="#A6CADC"/>
<path d="M55.7243 119.347C55.867 119.823 56.0097 120.299 56.1476 120.803C56.0018 122.705 55.8512 124.607 55.6958 126.51L55.7243 119.347Z" fill="#A6CADC"/>
<path d="M51.4634 127.946C51.4634 127.604 51.4634 127.266 51.4634 126.924L52.1149 127.423L51.4634 127.946Z" fill="#A6CADC"/>
<path d="M74.1534 136.944C74.1534 136.312 74.1201 135.674 74.1011 135.042C74.1201 135.67 74.1344 136.307 74.1534 136.944Z" fill="#659FC9"/>
<path d="M48.9854 132.188C49.1803 131.713 49.3801 131.27 49.5798 130.809C49.3944 131.28 49.1946 131.736 48.9854 132.188Z" fill="#458EC0"/>
<path d="M50.959 128.888L51.4346 128.003L50.959 128.888Z" fill="#A6CADC"/>
<path d="M43.6017 103.563L21.4014 103.52L24.6734 102.711L24.3643 98.198L19.9937 97.4846L20.1458 96.1482C21.0495 96.4763 21.9483 97.0756 22.8519 97.0994C28.6826 97.1897 34.5133 97.1327 40.344 97.1707C41.4378 97.1707 42.5317 97.3847 43.6255 97.4989L43.6017 103.563Z" fill="#EDA33F"/>
<path d="M43.25 84.701C43.4022 84.0399 43.5591 83.3788 43.7256 82.713C44.496 81.9711 45.6279 81.3671 45.9656 80.4635C46.8645 78.0856 49.2947 76.3259 48.9142 73.4201C49.1164 73.3191 49.3306 73.244 49.5515 73.1965C49.653 75.3589 49.756 77.5228 49.8607 79.6883C49.7703 81.3861 49.6847 83.0887 49.5943 84.7866C49.5943 87.0472 49.5943 89.3062 49.5943 91.5637C49.5943 93.428 49.5943 95.2923 49.5943 97.1566L49.8274 104.366V105.579C47.8204 102.474 48.548 98.2456 45.6517 95.4682C45.1333 94.9926 45.1238 93.9749 44.7005 93.3519C44.4485 92.9952 43.7922 92.9286 43.3166 92.7336L43.6733 91.3069L43.7161 91.2688C45.1428 90.0656 45.1428 85.9518 43.7446 84.6487H43.269L43.25 84.701Z" fill="#B2DAE8"/>
<path d="M6.00665 84.4679L8.89822 83.1838L8.7175 83.7308L11.3998 85.1575L12.4033 85.6331C12.4033 87.4974 12.3954 89.3617 12.3795 91.226C10.9765 91.5589 8.97905 90.7266 8.81735 93.485L0 88.3963L6.00665 84.4679Z" fill="#D13C32"/>
<path d="M12.4034 85.6284L11.3999 85.1528L13.3355 84.7057L43.2499 84.6819V84.6296L43.7255 85.1052V91.2117L43.6827 91.2498L19.0236 91.2878L20.9592 90.3652H21.9104L37.1291 90.3319C38.3799 90.3319 39.7591 90.6506 40.8482 90.2273C41.6852 89.8944 42.3939 88.7054 42.6887 87.7495C42.8266 87.3024 41.9753 86.1943 41.3476 85.947C40.4202 85.5856 39.293 85.6426 38.261 85.6949C37.8615 85.6949 37.4858 86.2086 37.1006 86.4844H21.8818L19.4991 85.6759L12.4034 85.6284Z" fill="#E0AF67"/>
<path d="M43.3164 92.7146C43.792 92.9096 44.4483 92.9762 44.7003 93.3329C45.1426 93.9559 45.1759 94.9499 45.6515 95.4492C48.5478 98.2266 47.8202 102.455 49.8272 105.56L49.8557 106.954C49.7986 107.006 49.694 107.068 49.7035 107.101C49.7449 107.223 49.7975 107.341 49.8605 107.453V108.404L49.499 109.55L49.3849 113.579C48.4623 112.152 47.0593 110.868 46.7406 109.332C46.3316 107.396 45.3139 106.768 43.7016 106.478L43.5732 103.548L43.616 97.4752L43.3164 92.7146Z" fill="#A6CADC"/>
<path d="M43.5636 116.185C41.1523 116.27 38.7269 116.232 36.3299 116.484C35.0363 116.618 33.7951 117.25 32.5252 117.659L32.4206 118.61L29.8572 116.603C30.6419 116.603 31.8214 116.922 32.1448 116.532C34.0471 114.259 36.5439 115.238 38.803 115.148C42.2034 115.015 42.5458 114.601 41.452 111.205C41.3145 111.135 41.1669 111.087 41.0144 111.063C37.9184 111.12 34.6891 112.123 31.9783 109.593C31.7453 109.374 30.9273 109.593 30.4992 109.812C29.5332 110.304 28.6227 110.899 27.7836 111.586C26.8325 112.38 25.4628 113.269 27.7836 114.268C28.3448 114.511 28.5969 115.462 28.9916 116.085L25.7957 114.948L23.7031 112.984C26.4045 111.167 28.9631 109.408 31.5836 107.753C31.8832 107.562 32.9009 107.819 32.9628 108.043C33.4384 109.817 34.8651 109.427 36.0493 109.436C38.5842 109.436 41.1191 109.436 43.6587 109.436L43.9012 115.048L43.5636 116.185Z" fill="#E0AF67"/>
<path d="M24.6925 102.702L21.4204 103.51L19.6323 105.674L10.3916 100.443C13.9204 98.631 16.8501 97.1138 19.7939 95.6443C19.8272 95.6443 20.0413 95.9629 20.1649 96.1199C20.1126 96.5622 20.065 97.0092 20.0127 97.4563L17.2876 97.9937L17.3732 98.5359L18.9236 98.7213C19.2042 102.664 19.2042 102.664 23.0565 102.683L24.6925 102.702Z" fill="#E26635"/>
<path d="M43.8773 115.034L43.6348 109.422C43.6681 108.471 43.6966 107.467 43.7299 106.492C45.3659 106.768 46.3599 107.396 46.7689 109.346C47.0875 110.882 48.4905 112.199 49.4131 113.593C49.4417 114.416 49.475 115.238 49.5035 116.061C49.4702 116.385 49.4322 116.703 49.3941 117.012C48.1766 116.537 46.9639 116.095 45.7416 115.652C45.1281 115.429 44.5003 115.238 43.8773 115.034Z" fill="#87B7D4"/>
<path d="M12.4033 85.6284L19.48 85.676C17.825 86.6842 16.3744 87.8114 17.1021 90.3557H20.9591L19.0234 91.2879L12.3652 91.2356C12.3843 89.3681 12.3969 87.4991 12.4033 85.6284Z" fill="#E3612E"/>
<path d="M26.9041 65.7535C26.7987 65.761 26.6945 65.7268 26.614 65.6584C26.5093 64.9593 26.1384 64.1413 26.3619 63.5848C27.0372 61.9869 30.7753 60.5316 32.4827 60.8455C34.6751 61.2497 36.9009 61.5161 39.1409 61.7491C40.1341 61.8055 41.1297 61.8055 42.1228 61.7491C42.2655 63.076 42.1656 63.9843 42.4843 64.7072C43.0645 66.0151 42.6317 66.7047 41.3809 66.4621C36.8248 65.5918 32.0356 68.6736 27.5889 65.6394C27.451 65.5633 27.1371 65.7155 26.9041 65.7535Z" fill="#F4992D"/>
<path d="M43.6207 72.8399C43.7015 73.753 43.7871 74.6614 43.868 75.5697C43.7871 76.9157 43.7063 78.2663 43.6302 79.6122C40.8813 79.5314 38.1372 79.4077 35.393 79.3839C31.3696 79.3459 27.3461 79.3459 23.3227 79.3839C22.3135 79.4678 21.312 79.6268 20.3265 79.8595L22.8994 77.9905C28.6064 77.9905 34.3135 77.9572 40.0205 78.0238C41.5138 78.0238 41.9229 77.4436 41.9229 76.0596C41.9229 74.6756 41.4901 74.1049 40.0205 74.124C34.7891 74.1858 29.5576 74.124 24.3262 74.124C23.7032 73.8339 23.0611 73.2727 22.4619 73.3107C20.8306 73.4153 19.8081 72.8874 19.4419 71.2562L20.0174 70.9756C20.8639 73.2156 22.79 72.74 24.5116 72.7495C30.8813 72.7939 37.251 72.824 43.6207 72.8399Z" fill="#E0AF67"/>
<path d="M19.4371 71.2705C19.8033 72.9018 20.8258 73.4297 22.4571 73.325C23.0563 73.287 23.6984 73.8482 24.3214 74.1383L20.8211 75.4034L22.8994 77.9905L20.3265 79.8739L20.1695 80.7109L19.0757 80.8203L18.6001 80.6491L17.4349 80.0213L16.6787 79.6266L16.284 79.346L16.2032 79.2699L15.6943 78.9227L14.8145 78.4471L10.5342 76.2023L15.6943 73.2157L16.2032 72.8685L16.265 72.8067L16.6692 72.5451L19.4371 71.2705Z" fill="#E26635"/>
<path d="M26.9038 65.7537C27.1369 65.7156 27.4508 65.5635 27.5934 65.6586C32.0164 68.6928 36.8055 65.611 41.3854 66.4813C42.6362 66.7239 43.069 66.0343 42.4888 64.7264C42.1702 64.0035 42.27 63.0952 42.1273 61.7683C41.1342 61.8246 40.1386 61.8246 39.1454 61.7683C36.9244 61.5352 34.6987 61.2689 32.4872 60.8647C30.7799 60.5508 27.0418 62.0061 26.3664 63.604C26.1286 64.1605 26.5138 64.9785 26.6185 65.6776L23.5938 64.403L24.8018 62.8574L32.5395 58.5391L32.511 59.4664C33.7665 59.904 34.9983 60.5746 36.2919 60.7363C38.1009 60.9091 39.9217 60.9202 41.7326 60.7695C42.289 60.7363 42.8217 60.2369 43.3686 59.9515C43.4041 59.9195 43.4329 59.8807 43.4534 59.8374C43.4738 59.7942 43.4854 59.7473 43.4875 59.6995C43.4875 59.6995 43.7158 59.6995 43.7158 59.6995L43.6635 59.8422C43.5779 62.3501 43.4939 64.8533 43.4114 67.3517C40.458 67.3897 37.4951 67.3517 34.5465 67.5324C33.9235 67.5752 33.3575 68.455 32.3255 69.3158L26.9038 65.7537Z" fill="#E0AF67"/>
<path d="M43.6304 79.6122C43.7065 78.2663 43.7873 76.9156 43.8682 75.5697C44.71 73.2631 45.4947 71.0041 48.2007 70.0339C48.8285 69.8056 49.0188 68.3693 49.4135 67.4895L49.6133 72.992L49.5371 73.1918C49.3164 73.2423 49.1025 73.3189 48.8999 73.4201C49.2803 76.3259 46.8501 78.0808 45.9512 80.4635C45.6136 81.3671 44.4817 81.9711 43.7112 82.713V80.8725C43.7112 80.6823 43.7112 80.4968 43.7112 80.3065L43.6304 79.6122Z" fill="#A6CADC"/>
<path d="M19.0757 80.825L20.1695 80.7156C20.1267 80.9724 20.0839 81.2292 20.0459 81.486L19.0757 80.825Z" fill="#E0AF67"/>
<path d="M17.459 80.0068L18.6241 80.6346L17.459 80.0068Z" fill="#E0AF67"/>
<path d="M14.8145 78.447L15.6943 78.9226L14.8145 78.447Z" fill="#E0AF67"/>
<path d="M16.208 72.8447L15.6943 73.2157L16.208 72.8447Z" fill="#E0AF67"/>
<path d="M16.6751 72.5212L16.27 72.7833L16.6751 72.5212Z" fill="#E0AF67"/>
<path d="M15.6943 78.9226L16.227 79.2365L15.6943 78.9226Z" fill="#E0AF67"/>
<path d="M16.3076 79.3315L16.7032 79.6127L16.3076 79.3315Z" fill="#E0AF67"/>
<path d="M43.7538 80.3066C43.7538 80.4969 43.7538 80.6824 43.7538 80.8726C43.7253 80.6871 43.7253 80.4969 43.7538 80.3066Z" fill="#B2DAE8"/>
<path d="M127.457 85.2718C127.518 85.359 127.544 85.4661 127.528 85.5714L123.591 85.638C122.887 85.638 122.164 85.5952 121.479 85.5999C119.177 85.5999 118.197 87.5023 117.646 89.086C116.97 90.9883 119.348 89.8945 120.024 90.6792C120.247 90.8904 120.493 91.077 120.756 91.2356H98.9219V85.21L127.457 85.2718Z" fill="#EDA33F"/>
<path d="M98.9502 85.205V91.2307L98.993 97.1613L98.0418 102.678C97.5282 103.824 97.0193 104.975 96.5675 106.007L94.9267 104.685C94.6794 105.432 94.4511 106.193 94.1801 106.925C93.6284 108.38 93.0434 109.821 92.4727 111.262L92.2587 109.398C92.2587 107.496 92.2714 105.593 92.2967 103.691C92.3205 102.678 92.3395 101.665 92.3633 100.647H93.1528C93.2479 101.56 93.3478 102.478 93.4429 103.396C94.5653 99.8959 94.2086 96.134 96.9765 93.3471C97.1001 93.2187 97.0764 92.8715 97.0288 92.6527C96.3868 89.628 98.6791 86.2133 95.8018 83.4692C95.6211 83.298 95.6544 82.8747 95.6258 82.5608C95.4546 80.687 95.369 78.7989 95.0979 76.9346C95.0076 76.3164 94.4702 75.7647 94.1468 75.1797C93.791 75.7674 93.4977 76.3906 93.2717 77.0392C93.1147 77.6956 93.2717 78.4232 93.1765 79.108C93.1765 79.2317 92.6677 79.2983 92.3966 79.3934C92.3378 79.2662 92.3039 79.129 92.2967 78.9892L92.2539 72.8826L92.4251 67.4705C93.1147 69.0018 93.6379 70.6379 94.5367 72.0266C95.4356 73.4153 96.7577 74.3141 98.5126 73.1632C98.6097 73.1662 98.7065 73.1741 98.8027 73.187C97.7089 75.232 97.9134 77.2342 99.012 79.2032C98.9739 79.4172 98.9359 79.6359 98.9026 79.85C98.8931 81.6334 98.9216 83.4216 98.9502 85.205Z" fill="#A6CADC"/>
<path d="M124.223 104.704C124.092 104.772 123.951 104.818 123.805 104.842C123.085 104.477 122.364 104.114 121.641 103.753C121.517 103.72 121.398 103.682 121.275 103.639L118.393 102.688L119.819 97.9841L123.263 95.9248L131.504 100.357L128.998 101.946L124.223 104.704Z" fill="#E16331"/>
<path d="M92.4538 111.263C93.0245 109.836 93.6095 108.38 94.1611 106.925C94.4417 106.193 94.6367 105.432 94.9078 104.685L96.5486 106.007C97.0242 104.98 97.4997 103.829 98.0229 102.678C98.294 102.983 98.5698 103.282 98.8457 103.587C98.7838 105.127 98.7267 106.668 98.6697 108.195C98.6697 108.419 98.6459 108.671 98.6317 108.899C98.7268 109.141 98.8219 109.374 98.9122 109.622C98.6079 111.267 98.3035 112.903 97.9944 114.544C96.0587 116.194 92.3396 115.971 92.4585 119.776L92.2588 116.399C92.3222 114.693 92.3872 112.981 92.4538 111.263ZM95.8257 114.858C95.8257 114.649 95.8257 114.435 95.7876 114.221L94.3894 114.439L94.4465 114.858H95.8257Z" fill="#87B7D4"/>
<path d="M98.8457 103.587C98.5699 103.282 98.294 102.983 98.0229 102.678L98.9741 97.1614C105.599 97.1281 112.224 97.1614 118.849 96.9997C119.824 96.9997 120.751 96.0819 121.759 95.7489C122.197 95.6063 122.768 95.8631 123.281 95.9392L119.848 97.9985C116.618 97.9985 113.351 98.2601 110.165 97.8701C106.978 97.4801 104.011 99.2635 100.91 98.0413C100.734 97.9699 100.277 98.1126 100.268 98.1935C100.053 99.4034 99.961 100.632 99.9919 101.86C99.9919 102.179 101.038 102.659 101.609 102.669C107.202 102.726 112.799 102.702 118.397 102.702L121.279 103.653L98.8457 103.587Z" fill="#E0AF67"/>
<path d="M120.799 91.2355C120.535 91.0769 120.29 90.8904 120.066 90.6791C119.377 89.8944 116.999 91.0073 117.689 89.0859C118.24 87.5117 119.22 85.6141 121.522 85.5999C122.226 85.5999 122.949 85.5998 123.633 85.6379C123.719 90.8693 123.719 90.8693 127.462 90.8123L128.346 91.2451L120.799 91.2355Z" fill="#F4992D"/>
<path d="M124.223 104.704L129.022 101.96L124.223 104.704Z" fill="#E0AF67"/>
<path d="M121.641 103.753C122.364 104.114 123.085 104.477 123.805 104.842L122.016 106.207C121.845 105.08 121.75 104.424 121.641 103.753Z" fill="#E0AF67"/>
<path d="M98.6318 108.885C98.6318 108.647 98.6556 108.409 98.6699 108.181C98.6556 108.437 98.6461 108.666 98.6318 108.885Z" fill="#E0AF67"/>
<path d="M80.4547 116.993L85.5483 115.238C85.8479 116.779 86.138 118.296 86.4329 119.809V121.711C86.4329 122.034 86.4329 122.353 86.4329 122.662L86.333 123.613C83.1941 122.477 81.658 123.219 80.3691 126.467C80.4104 123.322 80.4389 120.164 80.4547 116.993Z" fill="#87B7D4"/>
<path d="M98.4795 126.481L100.586 127.404L95.4691 136.373L90.3042 127.409L92.2589 126.519C92.1019 128.346 92.8581 129.549 95.1124 130.129C95.588 129.549 96.211 128.754 96.8863 128.017C97.3714 127.456 97.9421 126.957 98.4795 126.481Z" fill="#3274A0"/>
<path d="M98.4794 126.481C97.942 126.99 97.3713 127.471 96.8767 128.017C96.2013 128.755 95.5878 129.549 95.1027 130.129C92.8579 129.549 92.1017 128.346 92.2492 126.519C92.292 126.362 92.3396 126.21 92.3824 126.044C92.4394 125.991 92.5441 125.934 92.5393 125.887C92.5146 125.752 92.478 125.62 92.4299 125.492C92.4632 125.197 92.4917 124.907 92.525 124.612L97.609 119.909C97.9182 121.63 98.1845 123.105 98.4508 124.579C98.4461 125.207 98.4746 125.839 98.4794 126.481Z" fill="#458EC0"/>
<path d="M98.4464 124.579C98.1801 123.105 97.9138 121.63 97.6046 119.909L92.5206 124.612C92.4826 123.965 92.4445 123.319 92.4017 122.672C92.4017 122.358 92.4017 122.044 92.4017 121.721C92.4017 121.074 92.4017 120.427 92.4017 119.785C92.2828 115.956 96.0019 116.185 97.9375 114.553L98.532 116.109L98.4464 124.579Z" fill="#659FC9"/>
<path d="M85.9334 131.756C85.7622 132.412 85.5958 133.073 85.4864 133.496C84.4781 133.886 83.6363 134.386 82.7422 134.514C82.0241 134.614 81.2394 134.267 80.4832 134.119C80.4594 133.325 80.4404 132.526 80.4214 131.741C80.5498 128.954 82.4284 128.374 84.735 128.284C85.2688 128.219 85.7967 128.112 86.3139 127.965L86.3995 130.272C86.2473 130.762 86.0809 131.237 85.9334 131.756Z" fill="#458EC0"/>
<path d="M86.3139 127.955C85.7967 128.103 85.2688 128.209 84.735 128.274C82.4284 128.364 80.5498 128.945 80.4214 131.732C80.4214 129.986 80.4214 128.246 80.4214 126.5C81.7102 123.228 83.2464 122.486 86.3853 123.647C86.3472 125.054 86.3329 126.514 86.3139 127.955Z" fill="#659FC9"/>
<path d="M92.4539 111.262C92.3873 112.984 92.3223 114.703 92.2589 116.418L86.5518 116.461C86.5518 114.127 86.5407 111.792 86.5186 109.455L86.5566 109.398H92.2636L92.4539 111.262ZM87.113 111.01C87.5316 112.542 87.6457 113.935 88.321 114.948C88.5731 115.324 90.8131 115.086 90.9938 114.653C91.4361 113.588 91.2078 112.242 91.2459 111.01H87.113Z" fill="#E3CA77"/>
<path d="M85.9336 131.756C86.0905 131.256 86.2475 130.757 86.4092 130.262L86.4805 137.938C86.2935 135.88 86.1111 133.82 85.9336 131.756Z" fill="#87B7D4"/>
<path d="M86.466 122.677C86.466 122.358 86.466 122.039 86.466 121.725C86.4518 122.044 86.4613 122.363 86.466 122.677Z" fill="#A6CADC"/>
<path d="M92.4347 121.725C92.4347 122.039 92.4347 122.353 92.4347 122.677C92.4252 122.358 92.4299 122.044 92.4347 121.725Z" fill="#87B7D4"/>
<path d="M92.4396 125.492C92.4877 125.62 92.5243 125.752 92.549 125.887C92.549 125.934 92.4492 125.991 92.3921 126.044C92.4111 125.858 92.4254 125.673 92.4396 125.492Z" fill="#87B7D4"/>
<path d="M98.8076 67.0329L99.0216 60.8741C101.537 60.8741 104.063 60.9502 106.564 60.7742C107.563 60.7076 108.514 60.0513 109.489 59.6613L109.427 58.9099L112.214 59.9277L118.563 63.9844L109.703 69.1017L109.67 68.1505C108.405 67.7653 107.159 67.1423 105.865 67.0472C103.53 66.8902 101.162 67.0329 98.8076 67.0329Z" fill="#EDA33F"/>
<path d="M121.802 81.2482C121.893 79.3459 120.575 79.3697 119.258 79.3697C113.592 79.3697 107.93 79.3697 102.27 79.3697C101.171 79.3697 100.073 79.2745 98.979 79.2222C97.8804 77.2533 97.6759 75.2511 98.7697 73.2061C99.8491 73.0152 100.938 72.885 102.032 72.8161C108.6 72.74 115.168 72.74 121.75 72.74L118.801 74.1667C113.18 74.1667 107.554 74.2191 101.932 74.1667C100.444 74.1667 99.8065 74.5187 99.8113 76.1404C99.816 77.7622 100.582 78.0856 102.004 78.0761C107.944 78.0238 113.893 78.0523 119.824 78.0523L123.196 80.9058L121.802 81.2482Z" fill="#E0AF67"/>
<path d="M118.787 74.1288L121.736 72.702C121.888 72.2264 122.035 71.7794 122.183 71.318L122.259 71.2419H122.734L131.652 76.0691L123.177 80.825L119.805 77.9715C120.076 76.5447 120.747 74.9991 118.787 74.1288Z" fill="#E26635"/>
<path d="M122.173 71.3418C122.026 71.8174 121.878 72.2644 121.726 72.7258C121.878 72.2644 122.026 71.7888 122.173 71.3418Z" fill="#E0AF67"/>
<path d="M28.9776 116.076C28.5828 115.452 28.3308 114.501 27.7696 114.259C25.4678 113.26 26.8517 112.356 27.7696 111.576C28.6087 110.89 29.5191 110.295 30.4852 109.803C30.9132 109.569 31.7312 109.365 31.9643 109.584C34.6704 112.114 37.8996 111.11 41.0004 111.053C41.1528 111.078 41.3005 111.126 41.4379 111.196C42.5318 114.592 42.1894 115.001 38.7889 115.139C36.5346 115.229 34.0331 114.249 32.1307 116.523C31.8073 116.913 30.6279 116.589 29.8431 116.594L28.9776 116.076Z" fill="#F4992D"/>
<path d="M49.3945 122.705L49.4659 126.9C49.5847 127.58 49.7036 128.26 49.8273 128.94C49.1904 128.964 48.5528 128.921 47.925 128.812C45.899 128.246 43.9015 127.594 41.8945 126.976C43.3213 126.576 43.678 125.578 43.6162 124.213C43.5686 123.071 43.6875 121.92 43.7303 120.774L45.8324 121.478L49.3945 122.705Z" fill="#458EC0"/>
<path d="M49.3944 122.705L45.8513 121.478L43.754 120.774C43.6921 119.243 43.6351 117.711 43.5732 116.185C43.6731 115.8 43.7778 115.419 43.8824 115.034C44.5054 115.238 45.1332 115.429 45.7467 115.652C46.9689 116.094 48.1817 116.556 49.3992 117.012L49.3944 122.705Z" fill="#659FC9"/>
<path d="M127.457 90.8122C123.714 90.8693 123.714 90.8693 123.628 85.6379L127.566 85.5713C127.78 85.7473 128.204 85.947 128.185 86.0944C127.966 87.6734 127.69 89.2428 127.457 90.8122Z" fill="#E3612E"/>
<path d="M113.717 115.605C113.646 115.571 113.546 115.486 113.503 115.51C109.247 118.006 105.304 114.083 100.986 114.896C98.9979 115.276 100.135 112.723 99.949 111.515C99.9158 111.272 101.048 110.64 101.694 110.563C104.342 110.167 107.002 109.85 109.675 109.612C110.56 109.56 111.447 109.675 112.291 109.95C113.381 110.338 114.45 110.786 115.491 111.291L118.521 113.227L113.717 115.605Z" fill="#F4992D"/>
<path d="M223.625 209.999C223.421 210.227 223.211 210.451 223.007 210.674C223.211 210.451 223.421 210.227 223.625 209.999Z" fill="#FDFDFD"/>
<path d="M43.7113 59.6757H43.4831L43.3975 57.9731L43.7113 59.6757Z" fill="#87B7D4"/>
<path d="M92.2639 67.0043H91.5029L92.3067 66.6001C92.3028 66.7357 92.2884 66.8709 92.2639 67.0043V67.0043Z" fill="#A6CADC"/>
<path d="M86.4473 67.5322C86.4854 69.3917 86.5187 71.2513 86.5567 73.1156C86.5567 75.2018 86.5567 77.2928 86.5567 79.3886C86.5567 81.3194 86.5567 83.2487 86.5567 85.1764C85.6055 87.231 85.1299 89.2855 86.5567 91.3591L86.5852 97.166C85.2964 99.425 85.2726 102.255 86.5377 103.658L86.5757 109.403L86.5377 109.46L81.1968 112.565L80.4121 109.36C80.2378 107.458 80.0649 105.543 79.8937 103.615C80.1601 102.844 80.688 102.06 80.6404 101.313C80.4714 99.8874 80.2061 98.4749 79.8462 97.0851L80.3218 91.2687V84.7532C80.1918 82.8318 80.065 80.9104 79.9413 78.9891C80.8925 76.9203 81.6344 74.8467 79.9413 72.7779C80.0681 70.8756 80.1997 68.959 80.336 67.0281L80.8734 64.6501C82.4714 65.7012 84.0551 66.7713 85.6769 67.7843C85.7958 67.8841 86.1762 67.6273 86.4473 67.5322Z" fill="#B2DAE8"/>
<path d="M80.8496 64.6551C80.6721 65.4478 80.4929 66.2404 80.3122 67.0331H74.1914L74.2342 62.7195C74.5338 63.3425 75.1235 63.9845 75.076 64.579C74.8858 66.957 76.5027 66.6906 77.8391 66.4814C78.9805 66.2959 80.1362 65.8821 79.1565 64.151C78.8902 63.6754 79.5941 62.6577 79.8509 61.8872C80.1838 62.8098 80.5167 63.7325 80.8496 64.6551Z" fill="#E3CA77"/>
<path d="M56.1193 46.5827L56.0337 41.9029C57.6697 43.382 59.2439 41.4559 60.8609 41.8126V46.5447L56.1193 46.5827Z" fill="#458EC0"/>
<path d="M68.4557 115.067C68.501 113.922 68.4819 112.776 68.3986 111.633C68.3463 111.158 67.8136 110.782 67.5045 110.354L67.5616 109.455L67.5901 103.653C67.5901 103.344 67.5568 103.035 67.5426 102.702L67.514 97.946L67.5663 97.0852C67.5442 95.1163 67.5188 93.149 67.4902 91.1832C68.0942 89.1762 68.6602 87.1692 67.5378 85.148L67.5806 79.3078C69.0882 77.3389 68.6602 75.2558 67.9611 73.1537C67.8343 71.0992 67.7074 69.0383 67.5806 66.9711C67.8659 64.9261 68.1497 62.8827 68.4319 60.8408L70.5102 63.4185L72.6408 62.3342C72.8453 63.1094 73.0594 63.8798 73.2496 64.655C73.554 65.901 73.8393 67.1518 74.1342 68.3979C74.1627 69.8579 74.196 71.3227 74.2245 72.7875C74.2245 74.9499 74.2245 77.1169 74.2245 79.2888L74.1913 85.1052V91.3544C74.1913 93.2568 74.1913 95.1591 74.1913 97.0614V103.705C74.1913 105.63 74.2039 107.554 74.2293 109.479L74.1009 110.321C73.8203 111.101 73.2544 111.9 73.3114 112.656C73.4636 114.634 72.6884 115.329 70.7908 115.081C70.0135 115.028 69.2336 115.024 68.4557 115.067Z" fill="#B2DAE8"/>
<path d="M55.7482 72.4975C55.7292 70.7886 55.7134 69.0796 55.7007 67.3707C55.8036 67.3965 55.9087 67.4124 56.0146 67.4183L60.4423 64.969C60.8703 65.4446 61.3221 66.0058 61.7787 66.5432L61.8643 67.0188L61.9214 72.8399L61.8785 79.2746C61.8976 81.4021 61.915 83.5248 61.9308 85.6427V91.1072C61.9308 93.0856 61.9182 95.0656 61.8928 97.0473C61.8928 99.2318 61.8928 101.415 61.8928 103.596C61.8928 105.562 61.8928 107.526 61.8928 109.489C61.8358 110.078 61.7739 110.668 61.7121 111.253L60.5327 112.314L56.0907 110.311L55.6151 109.455C55.6579 107.748 55.7054 106.045 55.7482 104.343C55.8275 101.939 55.9099 99.5362 55.9955 97.1329C55.9955 95.1798 56.0082 93.2251 56.0336 91.2689C55.9226 89.097 55.8117 86.9236 55.7007 84.7486L55.5723 79.2223C57.4318 77.0203 55.7292 74.7423 55.7482 72.4975Z" fill="#B2DAE8"/>
<path d="M61.7458 66.0827C61.6864 65.9823 61.6354 65.8771 61.5933 65.7682C61.5933 65.7396 61.679 65.6777 61.7267 65.6348C61.7616 65.7038 61.7813 65.7794 61.7846 65.8567C61.7879 65.934 61.7746 66.011 61.7458 66.0827V66.0827Z" fill="#B2DAE8"/>
<path d="M68.4844 38.0223L68.5129 31.3641C70.4581 29.5854 70.4581 29.5854 73.0072 31.3403C73.0783 31.3694 73.154 31.3855 73.2307 31.3879C73.2307 34.3967 73.2307 37.4088 73.2307 40.424L68.6033 40.0483L68.4844 38.0223Z" fill="#1872AB"/>
<path d="M73.2403 31.3641C73.1635 31.3618 73.0878 31.3456 73.0168 31.3166C70.4676 29.5616 70.4676 29.5617 68.5225 31.3403C68.2054 28.8039 67.8883 26.2833 67.5713 23.7785C68.5225 23.7262 69.4213 23.7785 69.5069 22.3518C69.5402 21.8524 70.4581 21.2151 71.1001 21.0296C71.3902 20.944 71.9847 21.7668 72.389 22.2234C73.4781 23.4456 74.7003 24.6298 74.1154 26.5322C73.8205 28.1523 73.5288 29.763 73.2403 31.3641Z" fill="#1568A3"/>
<path d="M50.5879 61.5732C52.2667 61.8301 53.7458 61.7873 54.9062 62.3817C55.2914 62.5767 55.2629 64.8453 54.697 65.3637C53.7458 66.2102 52.2334 66.3957 50.5879 66.9949V61.5732Z" fill="#F6BE32"/>
<path d="M91.5314 62.277C91.2271 63.3756 91.1652 64.655 90.5089 65.4872C90.176 65.901 88.326 65.7869 87.9455 65.3018C87.4366 64.6454 87.2559 62.9571 87.7125 62.5148C88.3973 61.8538 89.7575 61.8871 90.8276 61.6255L91.5314 62.277Z" fill="#F6BE32"/>
<path d="M68.4844 137.848C68.5607 136.422 68.5607 134.993 68.4844 133.567C68.2846 131.622 69.0884 130.985 70.9194 131.19C71.7106 131.248 72.5043 131.265 73.2973 131.242C73.2973 133.445 73.2973 135.646 73.2973 137.843L68.4844 137.848Z" fill="#458EC0"/>
<path d="M79.8511 139.241C79.9145 131.806 79.9747 124.371 80.0318 116.936C80.1745 116.936 80.3171 116.97 80.455 116.993C80.436 120.164 80.4186 123.334 80.4027 126.505C80.4027 128.25 80.4027 129.991 80.4027 131.737C80.4027 132.531 80.4408 133.33 80.4646 134.114C80.268 135.823 80.0635 137.532 79.8511 139.241Z" fill="#B2DAE8"/>
<path d="M74.215 109.479L79.8316 109.522L79.0802 110.131C79.0279 110.211 78.9803 110.292 78.9328 110.373C77.701 110.573 75.889 110.34 75.3516 111.063C73.9249 112.937 75.3802 115.086 77.7724 115.11H78.9471L78.9899 116.061C74.2768 116.461 74.2768 116.461 74.0913 110.354L74.215 109.479Z" fill="#E3CA77"/>
<path d="M78.9852 116.042L78.9424 115.091C78.9424 113.506 78.9424 111.92 78.9424 110.335C78.9899 110.254 79.0375 110.173 79.0898 110.093C80.4072 111.676 80.3739 114.872 78.9852 116.042Z" fill="#E0AF67"/>
<path d="M54.6496 112.689C54.3214 114.116 54.3072 115.543 52.6902 115.029C51.7723 114.734 51.1731 113.455 50.4312 112.618L53.0469 110.501L54.6496 112.689Z" fill="#F6BE32"/>
<path d="M49.8888 108.409C49.9126 108.756 49.9411 109.103 49.9696 109.45C49.8178 109.46 49.6685 109.494 49.5273 109.55C49.6462 109.165 49.7651 108.785 49.8888 108.409Z" fill="#B2DAE8"/>
<path d="M67.5046 110.349C67.5046 111.524 67.7804 112.818 67.381 113.84C67.0385 114.706 65.8924 115.809 65.1172 115.8C64.342 115.79 63.0293 114.653 62.8629 113.826C62.178 110.497 62.568 110.278 67.4951 110.34L67.5046 110.349Z" fill="#F6BE32"/>
<path d="M24.6925 102.702H23.0565C19.2042 102.702 19.2042 102.702 18.9236 98.7404L17.3732 98.5549L17.2876 98.0128L20.0127 97.4753L24.3834 98.1887L24.6925 102.702Z" fill="#F4992D"/>
<path d="M55.5771 79.2221L49.8463 79.6977C49.7416 77.5322 49.6386 75.3683 49.5371 73.206L49.6132 73.0015L55.7483 72.5259C55.7292 74.7421 57.4318 77.0202 55.5771 79.2221ZM52.8662 73.2488L50.4883 76.1499C51.2635 76.7681 52.0482 77.8762 52.8187 77.8715C53.5891 77.8667 54.8209 76.8109 54.9445 76.069C55.0492 75.4174 53.8935 74.5614 52.8662 73.2488Z" fill="#E3CA77"/>
<path d="M49.5942 97.1567L56.0004 97.1282C55.9148 99.5346 55.8323 101.94 55.7531 104.343L49.8273 104.371C49.7512 101.965 49.6735 99.56 49.5942 97.1567ZM54.8828 99.197C53.5083 96.6906 52.1148 98.7642 50.7309 99.197L51.7344 102.745L53.9411 102.597C54.293 101.304 54.5831 100.272 54.8828 99.197Z" fill="#E3CA77"/>
<path d="M49.5801 84.7866L55.7056 84.7485C55.8166 86.9235 55.9276 89.097 56.0385 91.2688H54.2313C54.4834 89.5567 55.0065 87.8161 54.7877 86.1658C54.7354 85.7806 52.1958 85.7187 49.9701 85.3858C50.536 87.8018 50.9212 89.5329 51.3492 91.2593L49.5991 91.5922C49.5959 89.3126 49.5896 87.044 49.5801 84.7866Z" fill="#E3CA77"/>
<path d="M43.7158 91.2498V85.1433L43.7539 84.6296C45.1521 85.9327 45.1331 90.0466 43.7158 91.2498Z" fill="#A6CADC"/>
<path d="M43.7541 84.6296L43.7256 85.1433L43.25 84.6677L43.7541 84.6296Z" fill="#F7F5EC"/>
<path d="M37.0957 90.3366L21.877 90.3699C21.877 89.0811 21.877 87.7923 21.877 86.5034H37.0957V90.3366Z" fill="#F4992D"/>
<path d="M37.0957 90.3366V86.4843C37.4809 86.2085 37.8566 85.7139 38.2561 85.6949C39.2882 85.6425 40.4153 85.5855 41.3427 85.9469C41.9705 86.1942 42.8218 87.3023 42.6838 87.7494C42.389 88.7006 41.6804 89.8943 40.8433 90.2272C39.7447 90.6505 38.3655 90.3366 37.0957 90.3366Z" fill="#F6BE32"/>
<path d="M21.877 86.4988C21.877 87.7876 21.877 89.0765 21.877 90.3653H20.9259H17.0689C16.3507 87.8209 17.8013 86.6938 19.4468 85.6855L21.877 86.4988Z" fill="#E26635"/>
<path d="M49.8752 106.982C49.8752 107.149 49.8752 107.316 49.8752 107.459C49.8121 107.346 49.7594 107.228 49.7179 107.106C49.7132 107.087 49.818 107.025 49.8752 106.982Z" fill="#B2DAE8"/>
<path d="M22.8996 77.9714L20.8213 75.3842L24.3216 74.1191C29.553 74.1191 34.7845 74.1667 40.0159 74.1191C41.4902 74.1191 41.9183 74.6233 41.9183 76.0548C41.9183 77.4863 41.514 78.0332 40.0159 78.019C34.3089 77.9714 28.6066 77.9952 22.8996 77.9714Z" fill="#F4992D"/>
<path d="M92.3635 79.3983C92.6346 79.3031 93.1244 79.2366 93.1435 79.1129C93.2291 78.4281 93.0816 77.6861 93.2386 77.0441C93.4647 76.3954 93.758 75.7722 94.1137 75.1846C94.4513 75.7695 94.9888 76.3212 95.0648 76.9395C95.3359 78.8038 95.4215 80.6919 95.5927 82.5657C95.6213 82.8795 95.5927 83.3028 95.7687 83.474C98.646 86.2182 96.3537 89.6329 96.9957 92.6576C97.0433 92.8811 97.0671 93.2235 96.9434 93.3519C94.1755 96.1389 94.5322 99.9008 93.4098 103.401C93.3147 102.483 93.2148 101.565 93.1197 100.652C92.8185 99.4727 92.5204 98.2933 92.2256 97.1138V91.3497C92.2256 89.2857 92.2256 87.2248 92.2256 85.1671L92.3635 79.3983Z" fill="#B2DAE8"/>
<path d="M92.2637 103.653H86.5567C85.2916 102.226 85.3154 99.4203 86.6042 97.1613L92.2637 97.1138C92.5586 98.2932 92.8566 99.4727 93.1578 100.652H92.3683L92.2637 103.653ZM91.3125 100.067C91.6217 98.6404 91.1556 97.9128 89.3674 97.8937C87.4032 97.8937 87.4651 98.9638 87.4888 100.324C87.5126 101.684 87.3985 102.754 89.3912 102.768C91.4362 102.797 91.46 101.67 91.3125 100.081V100.067Z" fill="#E3CA77"/>
<path d="M92.2637 78.9891L86.5566 79.3981C86.5566 77.3055 86.5566 75.2145 86.5566 73.1251L92.2209 72.8921L92.2637 78.9891ZM89.4102 74.1857C88.2402 73.9479 87.3794 74.1857 87.4222 75.8027C87.4555 77.1058 87.5173 78.0807 89.2627 78.0712C90.7466 78.0712 91.4076 77.667 91.36 76.0785C91.3458 74.7611 91.1223 73.8861 89.4339 74.1667L89.4102 74.1857Z" fill="#E3CA77"/>
<path d="M118.392 102.702C112.795 102.702 107.197 102.702 101.604 102.668C101.034 102.668 100.011 102.193 99.9872 101.86C99.9564 100.632 100.049 99.4032 100.263 98.1932C100.263 98.1124 100.739 97.9697 100.905 98.041C104.006 99.2633 107.031 97.4894 110.16 97.8698C113.289 98.2503 116.614 97.984 119.843 97.9982L118.392 102.702Z" fill="#F4992D"/>
<path d="M95.8259 114.853H94.4467L94.3896 114.435L95.7879 114.216C95.8021 114.43 95.8117 114.644 95.8259 114.853Z" fill="#659FC9"/>
<path d="M87.1133 111.006H91.2461C91.2081 112.237 91.4364 113.583 90.9941 114.649C90.8134 115.081 88.5733 115.319 88.3213 114.943C87.646 113.93 87.5318 112.537 87.1133 111.006Z" fill="#F6BE32"/>
<path d="M118.787 74.1287C120.746 74.999 120.076 76.5542 119.81 78.0047C113.869 78.0047 107.92 77.9762 101.989 78.0285C100.563 78.0285 99.7969 77.7717 99.7969 76.0929C99.7969 74.4141 100.429 74.1002 101.918 74.1192C107.539 74.1668 113.189 74.1335 118.787 74.1287Z" fill="#F4992D"/>
<path d="M74.1915 85.1051L80.2981 84.7532V91.2687L74.1772 91.3495L74.1915 85.1051ZM78.9474 88.6672C79.033 87.4402 79.0092 86.4177 77.3209 86.451C75.975 86.4795 75.0238 86.5794 75.0952 88.3296C75.1522 89.6279 75.3139 90.4554 76.8929 90.3746C78.1199 90.3365 79.209 90.3365 78.9474 88.6815V88.6672Z" fill="#E3CA77"/>
<path d="M79.8984 79.0034L74.1914 79.3363C74.1914 77.1613 74.1914 74.9926 74.1914 72.8303L79.8984 72.7922C81.601 74.861 80.8496 76.9346 79.8984 79.0034ZM76.4742 73.8005C75.9986 74.4045 75.0475 75.2938 75.2139 75.5554C75.7466 76.5066 76.5218 77.5909 77.4539 77.9333C78.8521 78.4089 78.9187 77.1676 78.9948 76.0738C79.109 74.4616 78.4051 73.9194 76.4837 73.8005H76.4742Z" fill="#E3CA77"/>
<path d="M74.1914 97.0852H79.8318C80.1917 98.475 80.4571 99.8875 80.6261 101.313C80.6736 102.06 80.1505 102.845 79.8794 103.615L74.1724 103.691L74.1914 97.0852ZM79.2564 98.3408C77.3112 98.3978 75.5373 98.0411 75.1663 100.129C74.8905 101.689 75.913 102.811 77.4444 102.664C80.4406 102.378 78.2719 99.9197 79.2706 98.3408H79.2564Z" fill="#E3CA77"/>
<path d="M92.2638 91.3449H86.5567C85.13 89.2809 85.6055 87.2264 86.5567 85.1623L92.2209 85.1338C92.2495 87.2073 92.2638 89.2777 92.2638 91.3449ZM87.5079 85.8709C87.5079 86.7032 87.4841 87.4023 87.5079 88.0967C87.5317 88.7911 87.6125 89.4664 87.6743 90.2178H91.0034C91.7501 86.2752 91.1081 85.4286 87.5079 85.8709Z" fill="#E3CA77"/>
<path d="M61.9307 91.1215V85.657L67.5283 85.1814C68.6507 87.2026 68.0848 89.2096 67.4808 91.2166L61.9307 91.1215Z" fill="#F6BE32"/>
<path d="M67.5713 79.327L61.8643 79.2937L61.907 72.8542L67.9375 73.1729C68.6508 75.275 69.0789 77.3581 67.5713 79.327ZM66.4156 78.4471C66.2254 77.144 66.1207 76.6589 66.0922 76.1643C66.0494 75.508 66.0637 74.8517 66.0542 74.1954C65.0602 74.262 63.9663 74.1193 63.1293 74.5188C62.8392 74.6567 62.8725 76.4211 63.3243 76.9395C63.9093 77.6482 65.0602 77.8527 66.4156 78.4471Z" fill="#E3CA77"/>
<path d="M67.5044 97.946L67.533 102.702C66.4236 102.759 65.3117 102.746 64.2039 102.664C63.9225 102.618 63.6553 102.509 63.4228 102.344C63.1903 102.179 62.9987 101.963 62.8627 101.713C61.9924 99.0827 62.8627 97.9508 65.5878 97.946H67.5044Z" fill="#F6BE32"/>
<path d="M67.5049 97.946H65.6025C62.8679 97.946 62.0071 99.0827 62.8774 101.713C63.0134 101.963 63.205 102.179 63.4375 102.344C63.67 102.509 63.9372 102.618 64.2186 102.664C65.3264 102.746 66.4383 102.759 67.5477 102.702C67.5477 103.011 67.5809 103.32 67.5952 103.653L61.8882 103.625C61.8882 101.443 61.8882 99.2602 61.8882 97.0757L67.5524 97.1137C67.5334 97.3896 67.5334 97.6797 67.5049 97.946Z" fill="#E3CA77"/>
<path d="M78.9472 110.373C78.9472 111.958 78.9472 113.544 78.9472 115.129H77.7772C75.3993 115.105 73.944 112.955 75.3565 111.082C75.8892 110.34 77.7011 110.573 78.9472 110.373Z" fill="#F6BE32"/>
<path d="M51.3631 91.2355C50.9588 89.5092 50.5498 87.778 49.9839 85.3621C52.2096 85.695 54.7397 85.7568 54.8016 86.142C55.0203 87.7923 54.4972 89.5329 54.2451 91.2451L53.294 91.2926L52.3428 91.2688L51.3631 91.2355Z" fill="#F6BE32"/>
<path d="M52.3384 91.2878L53.2896 91.3116L52.3384 91.2878Z" fill="#E3CA77"/>
<path d="M52.8661 73.2488C53.8933 74.5614 55.049 75.4174 54.9396 76.069C54.816 76.8109 53.5794 77.862 52.8138 77.8715C52.0481 77.881 51.2586 76.7681 50.4834 76.1499L52.8661 73.2488Z" fill="#F6BE32"/>
<path d="M54.8826 99.1969C54.5829 100.272 54.2928 101.304 53.9314 102.578L51.7247 102.726L50.7212 99.1779C52.1147 98.7641 53.5081 96.6906 54.8826 99.1969Z" fill="#F6BE32"/>
<path d="M91.3127 100.082C91.4697 101.67 91.4459 102.797 89.3723 102.783C87.3986 102.783 87.508 101.675 87.47 100.338C87.4319 99.002 87.3844 97.8938 89.3486 97.9081C91.1463 97.9461 91.6123 98.65 91.3127 100.082Z" fill="#F6BE32"/>
<path d="M89.4338 74.1667C91.1221 73.867 91.3362 74.7421 91.3837 76.069C91.4313 77.6575 90.7702 78.0569 89.2864 78.0617C87.541 78.0617 87.4792 77.1105 87.4459 75.7932C87.4031 74.1952 88.2639 73.9479 89.4338 74.1667Z" fill="#F6BE32"/>
<path d="M78.9473 88.6816C79.1946 90.3271 78.1055 90.3224 76.8928 90.389C75.3138 90.4698 75.1521 89.6423 75.0951 88.344C75.0237 86.5938 75.9749 86.4939 77.3208 86.4654C79.0234 86.4321 79.0472 87.4546 78.9473 88.6816Z" fill="#F6BE32"/>
<path d="M76.4836 73.8005C78.386 73.9194 79.1088 74.4616 79.0042 76.0596C78.9281 77.1534 78.8615 78.409 77.4633 77.9191C76.5121 77.591 75.756 76.4924 75.2233 75.5412C75.0759 75.2939 76.0318 74.4045 76.4836 73.8005Z" fill="#F6BE32"/>
<path d="M79.2707 98.3408C78.272 99.9198 80.4407 102.379 77.4587 102.664C75.9273 102.811 74.9049 101.713 75.1807 100.129C75.5516 98.0412 77.3256 98.4217 79.2707 98.3408Z" fill="#F6BE32"/>
<path d="M87.5076 85.8709C91.1221 85.4286 91.7641 86.2752 91.027 90.2178H87.6979C87.636 89.4664 87.5599 88.791 87.5314 88.0967C87.5029 87.4023 87.5076 86.7032 87.5076 85.8709Z" fill="#F6BE32"/>
<path d="M66.4154 78.4471C65.06 77.8335 63.9091 77.629 63.3241 76.9394C62.8723 76.4068 62.8485 74.6566 63.1291 74.5187C63.9662 74.1192 65.06 74.2619 66.054 74.1953C66.054 74.8516 66.054 75.5079 66.092 76.1642C66.1063 76.6779 66.2252 77.163 66.4154 78.4471Z" fill="#F6BE32"/>
</g>
<defs>
<clipPath id="clip0_223_1403">
<rect width="387" height="222" fill="white"/>
</clipPath>
</defs>
</svg>
