<svg xmlns="http://www.w3.org/2000/svg" width="197" height="76" viewBox="0 0 197 76"><defs><style>.a{fill:#bbb;opacity:0;}.b,.c{fill-rule:evenodd;}.c,.d{fill:#0faff0;}</style></defs><g transform="translate(-266 149)"><rect class="a" width="197" height="76" transform="translate(266 -149)"/><g transform="translate(271 -144.043)"><g transform="translate(77.082 13.449)"><rect width="6.25" height="34.366" transform="translate(0 0.779)"/><path class="b" d="M209.272,207.959c0-4.4-.072-7.954-.282-11.221H214.6l.355,5.9h.142c2.485-4.262,6.6-6.675,12.144-6.675,8.375,0,14.623,7.029,14.623,17.466,0,12.353-7.6,18.461-15.615,18.461-4.619,0-8.522-1.987-10.583-5.4h-.142v18.677h-6.25V207.959Zm6.25,9.158h0a10.049,10.049,0,0,0,.284,2.555,9.564,9.564,0,0,0,9.3,7.315c6.6,0,10.435-5.4,10.435-13.278,0-6.886-3.55-12.78-10.152-12.78a9.978,9.978,0,0,0-9.515,7.666,17.318,17.318,0,0,0-.356,2.559Z" transform="translate(-196.297 -195.959)"/><path class="b" d="M290.092,229.9a24.171,24.171,0,0,1-9.871,1.987c-10.365,0-17.111-7.031-17.111-17.608s7.243-18.32,18.458-18.32a19.71,19.71,0,0,1,8.665,1.844l-1.419,4.758a15.314,15.314,0,0,0-7.245-1.632c-7.879,0-12.137,5.894-12.137,13.064,0,7.953,5.112,12.852,11.927,12.852a17.931,17.931,0,0,0,7.666-1.633Z" transform="translate(-212.087 -195.959)"/><path class="b" d="M333.813,222.867a57.771,57.771,0,0,0,.5,8.238H328.7l-.567-4.33h-.212a12.7,12.7,0,0,1-10.51,5.111c-6.956,0-10.508-4.9-10.508-9.87,0-8.307,7.385-12.853,20.66-12.782v-.71c0-2.84-.777-8.022-7.808-7.949a16.587,16.587,0,0,0-9.017,2.554l-1.422-4.189a22.265,22.265,0,0,1,11.364-2.98c10.576,0,13.132,7.17,13.132,14.057v12.851Zm-6.108-9.3h0c-6.815-.14-14.552,1.065-14.552,7.743,0,4.116,2.7,5.962,5.822,5.962a8.685,8.685,0,0,0,8.452-5.75,6.482,6.482,0,0,0,.278-1.987Z" transform="translate(-224.863 -195.959)"/></g><path class="c" d="M144.822,217.874c2.953-.344,4.522-1.8,6.579-1.041,0,0,2.034.815,2.61,1.057,2.363.936,1.994,2.492,3.325,4.567a6.874,6.874,0,0,0,9.864,1.712c4.179-3.057,2.316-7.883,2.077-8.4a6.96,6.96,0,0,0-8.185-3.552c-2.857.774-3.456,3.344-6.134,2.494l-2.738-1.223s-4.4-2.074-1.992-8.019c0,0,1.306-3.158,2.56-6.2.346-.73,1.232-2.759,5.322-4.09,4.664-1.52,8.943-4.82,7.15-11.92s-10.521-7.857-14.686-3.926c-3.413,3.229-3.519,7.916-1.606,11.728a8.825,8.825,0,0,1,.392,7.163l-2.31,5.7c-.885,2.127-1.856,2.1-4.038,2.679a5.731,5.731,0,0,0,1.808,11.269Z" transform="translate(-98.715 -176.97)"/><path class="c" d="M121.8,206.414c-.841-2.652-3.842-12.7-16.717-17.669-9.53-3.676-18.319-3.621-21.585-.1-1.594,1.72-1.923,5.429.414,10.081,2.585,5.153,2.86,10.109,5.552,14.533,3.152,5.169,11.1,4.556,12.521,4.332,0,0,10.372-1.058,13.567-1.231,4.784-.261,4.647-2.244,2.911-3.2-1.6-.878-2.469-1.285-5.385-2.8-.732-.34-2.713-1.327-6.705.283-4.553,1.836-9.946,2.057-13.141-4.533s3.007-12.783,8.724-12.442c4.693.277,7.789,3.8,8.772,7.948a8.851,8.851,0,0,0,4.308,5.741s2.548,1.354,4.04,2.165S122.949,209.99,121.8,206.414Z" transform="translate(-82.234 -179.603)"/><path class="c" d="M136.359,238.647c2.506,7.084.361,19.609-5.058,20.659-5.6,1.081-20.712-5.907-20.5-13.4.045-1.68.673-3.72,3.762-5.912s6.639-3.57,11.61-5.679c3.586-1.521,4.647.819,4.176,1.834-.278.595-.675,1.38-.675,1.38-1.5,2.371-3.615.787-6.3,2.026a6.973,6.973,0,0,0-3.984,7.984c.154.555,1.827,5.451,7,5.108a6.882,6.882,0,0,0,6.459-7.653c-.316-2.444-1.6-3.4-.392-5.637.289-.556.522-1,.769-1.486C133.645,237.1,135.625,236.562,136.359,238.647Z" transform="translate(-90.569 -193.554)"/><g transform="translate(102.2 54.207)"><path class="c" d="M229.083,261.934l-1.113,3.382h-1.438l3.651-10.75h1.674l3.672,10.75h-1.487l-1.147-3.382Zm3.53-1.087h0l-1.073-3.092c-.222-.7-.38-1.337-.538-1.96h-.052c-.142.623-.317,1.291-.522,1.945l-1.059,3.108Z" transform="translate(-226.533 -253.816)"/><path class="c" d="M252.607,253.753v9.33c0,.687.015,1.47.066,2h-1.26l-.065-1.339h-.031a2.831,2.831,0,0,1-2.616,1.515c-1.867,0-3.32-1.58-3.32-3.922-.015-2.588,1.594-4.148,3.461-4.148a2.554,2.554,0,0,1,2.327,1.164h.033v-4.595Zm-1.4,6.749h0l-.062-.607a2.063,2.063,0,0,0-2.025-1.612c-1.453,0-2.316,1.278-2.316,2.968,0,1.579.783,2.868,2.281,2.868a2.126,2.126,0,0,0,2.06-1.674l.062-.6Z" transform="translate(-232.032 -253.579)"/><path class="c" d="M261.784,266.668a3.674,3.674,0,0,1-3.7-3.972,3.776,3.776,0,0,1,3.825-4.1,3.65,3.65,0,0,1,3.716,3.957,3.782,3.782,0,0,1-3.825,4.114Zm.049-1.053h0c1.339,0,2.346-1.258,2.346-3.016,0-1.307-.656-2.951-2.313-2.951-1.64,0-2.36,1.53-2.36,3,0,1.689.958,2.966,2.31,2.966Z" transform="translate(-235.739 -254.992)"/><path class="c" d="M270.825,265.073a3.982,3.982,0,0,0,1.869.542c1,0,1.484-.5,1.484-1.149s-.4-1.035-1.419-1.419c-1.407-.511-2.06-1.261-2.06-2.187a2.389,2.389,0,0,1,2.661-2.264,3.589,3.589,0,0,1,1.884.479l-.334,1a3.156,3.156,0,0,0-1.578-.444c-.828,0-1.277.48-1.277,1.053,0,.651.449.941,1.453,1.322,1.322.494,2.023,1.166,2.023,2.329,0,1.372-1.067,2.33-2.871,2.33a4.4,4.4,0,0,1-2.168-.541Z" transform="translate(-239.358 -254.992)"/><path class="c" d="M280.719,262.864a2.465,2.465,0,0,0,2.633,2.679,5.374,5.374,0,0,0,2.14-.382l.253.989a6.278,6.278,0,0,1-2.582.494,3.6,3.6,0,0,1-3.8-3.893c0-2.347,1.39-4.179,3.64-4.179,2.517,0,3.169,2.218,3.169,3.638a3.911,3.911,0,0,1-.045.669l-5.41-.015Zm4.1-1h0a2.007,2.007,0,0,0-1.932-2.283,2.312,2.312,0,0,0-2.151,2.283Z" transform="translate(-241.947 -254.985)"/><path class="c" d="M299.122,266.668a3.675,3.675,0,0,1-3.7-3.972,3.778,3.778,0,0,1,3.825-4.1,3.654,3.654,0,0,1,3.72,3.957,3.785,3.785,0,0,1-3.828,4.114Zm.049-1.053h0c1.339,0,2.346-1.258,2.346-3.016,0-1.307-.652-2.951-2.315-2.951-1.64,0-2.361,1.53-2.361,3,0,1.689.959,2.966,2.315,2.966Z" transform="translate(-246.632 -254.992)"/><path class="c" d="M308.315,265.007v-6.652h-1.067v-1.068h1.067v-.368a3.635,3.635,0,0,1,.913-2.7,2.668,2.668,0,0,1,1.861-.717,3.222,3.222,0,0,1,1.2.222l-.178,1.086a2.164,2.164,0,0,0-.909-.175c-1.18,0-1.5,1.051-1.5,2.231v.416h1.867v1.068h-1.849v6.652Z" transform="translate(-250.082 -253.507)"/><rect class="d" width="1.404" height="11.325" transform="translate(66.146 0.174)"/><path class="c" d="M325.779,256.1a.9.9,0,0,1,.034-1.8.862.862,0,0,1,.891.892.881.881,0,0,1-.907.911Zm-.669,9.139h0v-7.72h1.4v7.72Z" transform="translate(-255.233 -253.737)"/><path class="c" d="M330.208,265.007v-6.652h-1.072v-1.068h1.072v-.368a3.656,3.656,0,0,1,.907-2.7,2.673,2.673,0,0,1,1.867-.717,3.215,3.215,0,0,1,1.195.222L334,254.814a2.161,2.161,0,0,0-.909-.175c-1.18,0-1.5,1.051-1.5,2.231v.416h1.866v1.068H331.61v6.652Z" transform="translate(-256.467 -253.507)"/><path class="c" d="M337.342,262.864a2.453,2.453,0,0,0,2.627,2.679,5.33,5.33,0,0,0,2.137-.382l.255.989a6.265,6.265,0,0,1-2.582.494,3.6,3.6,0,0,1-3.793-3.893c0-2.347,1.384-4.179,3.634-4.179,2.519,0,3.175,2.218,3.175,3.638a3.449,3.449,0,0,1-.051.669l-5.4-.015Zm4.094-1h0a2,2,0,0,0-1.929-2.283,2.317,2.317,0,0,0-2.154,2.283Z" transform="translate(-258.466 -254.985)"/></g></g></g></svg>