<?xml version="1.0" encoding="UTF-8"?>
<svg width="292px" height="39px" viewBox="0 0 292 39" version="1.1" xmlns="http://www.w3.org/2000/svg" xmlns:xlink="http://www.w3.org/1999/xlink">
    <title>Logo_Color</title>
    <defs>
        <polygon id="path-1" points="0 0.210022222 27.7544222 0.210022222 27.7544222 4.2588 0 4.2588"></polygon>
        <polygon id="path-3" points="0 38.4259778 291.174 38.4259778 291.174 -0.000577777778 0 -0.000577777778"></polygon>
    </defs>
    <g id="Symbols" stroke="none" stroke-width="1" fill="none" fill-rule="evenodd">
        <g id="Navigation/Header-B-Copy-2" transform="translate(-76.000000, -43.000000)">
            <g id="Group-30" transform="translate(76.000000, 43.000000)">
                <path d="M42.0165778,33.6454444 C42.0165778,34.424 41.8938,35.1736667 41.6684667,35.8771111 L69.3498,35.8771111 C69.3974667,35.1375556 69.4234667,34.3936667 69.4234667,33.6454444 C69.4234667,33.0373333 69.4061333,32.4306667 69.3758,31.8283333 L41.7883556,31.8283333 C41.9371333,32.4104444 42.0165778,33.0171111 42.0165778,33.6454444" id="Fill-1" fill="#5C682D"></path>
                <path d="M41.6505556,31.3632222 L64.0567778,15.0828889 C63.336,13.949 62.5458889,12.8541111 61.6893333,11.7996667 L39.3668889,28.0178889 C40.4155556,28.8845556 41.2157778,30.0415556 41.6505556,31.3632222" id="Fill-3" fill="#C1B559"></path>
                <path d="M38.9831,27.7210556 L47.5428778,1.37583333 C46.2905444,0.8775 45.0064333,0.452833333 43.6992111,0.104722222 L35.1697667,26.3575 C36.5882111,26.4441667 37.8983222,26.9367222 38.9831,27.7210556" id="Fill-5" fill="#EFB33E"></path>
                <path d="M34.6850111,26.3414667 L26.1252333,0.000577777778 C24.8136778,0.331355556 23.5252333,0.740133333 22.2656778,1.22257778 L30.7980111,27.4796889 C31.9217889,26.7646889 33.2550111,26.3472444 34.6850111,26.3414667" id="Fill-7" fill="#76B6B3"></path>
                <path d="M30.3967444,27.7521111 L7.99774444,11.479 C7.12963333,12.5233333 6.32652222,13.611 5.59274444,14.7347778 L27.9195222,30.9573333 C28.4294111,29.6688889 29.2946333,28.561 30.3967444,27.7521111" id="Fill-9" fill="#C95527"></path>
                <g id="Group-13" transform="translate(0.000000, 31.203756)">
                    <mask id="mask-2" fill="white">
                        <use xlink:href="#path-1"></use>
                    </mask>
                    <g id="Clip-12"></g>
                    <path d="M27.4063111,2.44168889 C27.4063111,1.66313333 27.5290889,0.913466667 27.7544222,0.210022222 L0.0730888889,0.210022222 C0.0254222222,0.951022222 -0.000577777778,1.69346667 -0.000577777778,2.44168889 C-0.000577777778,3.0498 0.0167555556,3.65646667 0.0470888889,4.2588 L27.6345333,4.2588 C27.4857556,3.67813333 27.4063111,3.07002222 27.4063111,2.44168889" id="Fill-11" fill="#BB2025" mask="url(#mask-2)"></path>
                </g>
                <path d="M242.128467,2.16868889 C241.579578,2.16868889 241.097133,2.36368889 240.695578,2.74646667 C240.292578,3.13068889 240.087467,3.62324444 240.087467,4.20824444 C240.087467,4.76002222 240.291133,5.24246667 240.694133,5.64402222 C241.095689,6.04702222 241.578133,6.24924444 242.128467,6.24924444 C242.713467,6.24924444 243.206022,6.04557778 243.590244,5.64113333 C243.974467,5.23957778 244.169467,4.75857778 244.169467,4.20824444 C244.169467,3.62468889 243.974467,3.13357778 243.5888,2.74791111 C243.204578,2.36368889 242.712022,2.16868889 242.128467,2.16868889" id="Fill-14" fill="#01302B"></path>
                <path d="M141.986578,13.1994778 C140.930689,12.4960333 139.630689,12.1392556 138.121244,12.1392556 C136.506356,12.1392556 135.011356,12.6361444 133.678133,13.6183667 C132.430133,14.5399222 131.446467,15.8139222 130.753133,17.4100333 C130.344356,15.8500333 129.609133,14.5861444 128.560467,13.6515889 C127.432356,12.6477 125.969133,12.1392556 124.212689,12.1392556 C122.631022,12.1392556 121.205356,12.6202556 119.976133,13.5692556 C118.884133,14.4099222 118.018911,15.5712556 117.3978,17.0229222 L117.3978,12.6592556 L114.462689,12.6592556 L114.462689,36.8493667 L117.3978,36.8493667 L117.3978,22.1492556 C117.3978,20.7510333 117.673689,19.4885889 118.219689,18.3980333 C118.7628,17.3089222 119.512467,16.4480333 120.445578,15.8370333 C121.377244,15.2260333 122.434578,14.9169222 123.587244,14.9169222 C125.206467,14.9169222 126.4198,15.4701444 127.194022,16.5635889 C127.974022,17.6685889 128.371244,19.2661444 128.371244,21.3158111 L128.371244,36.8493667 L131.306356,36.8493667 L131.306356,22.1492556 C131.306356,20.7510333 131.582244,19.4885889 132.128244,18.3980333 C132.671356,17.3103667 133.421022,16.4480333 134.354133,15.8370333 C135.2858,15.2260333 136.343133,14.9169222 137.4958,14.9169222 C139.115022,14.9169222 140.328356,15.4701444 141.102578,16.5635889 C141.882578,17.6671444 142.2798,19.2661444 142.2798,21.3158111 L142.2798,36.8493667 L145.214911,36.8493667 L145.214911,21.0023667 C145.214911,19.1910333 144.940467,17.6007 144.3988,16.2718111 C143.854244,14.9371444 143.042467,13.9029222 141.986578,13.1994778" id="Fill-16" fill="#01302B"></path>
                <path d="M105.9474,28.1165444 C104.895844,30.0752111 103.421067,31.6381 101.563511,32.7561 C99.7074,33.8769889 97.5537333,34.4446556 95.1660667,34.4446556 C92.7755111,34.4446556 90.6232889,33.8769889 88.7671778,32.7561 C86.9081778,31.6381 85.4261778,30.0752111 84.3616222,28.1151 C83.2941778,26.1521 82.7525111,23.8973222 82.7525111,21.4157667 C82.7525111,18.9067667 83.2941778,16.6462111 84.3601778,14.6976556 C85.4247333,12.7519889 86.9081778,11.1977667 88.7671778,10.0768778 C90.6247333,8.95598889 92.7769556,8.38832222 95.1660667,8.38832222 C97.5537333,8.38832222 99.7059556,8.95598889 101.563511,10.0768778 C103.422511,11.1977667 104.897289,12.7519889 105.9474,14.6962111 C107.0004,16.6462111 107.534844,18.9067667 107.534844,21.4157667 C107.534844,23.8973222 107.0004,26.1521 105.9474,28.1165444 M106.360511,9.90065556 C104.956511,8.45187778 103.283844,7.30932222 101.390178,6.50332222 C99.4936222,5.69732222 97.4006222,5.28854444 95.1660667,5.28854444 C92.9300667,5.28854444 90.8370667,5.69732222 88.9419556,6.50332222 C87.0468444,7.30932222 85.3741778,8.45187778 83.9716222,9.90065556 C82.5676222,11.3479889 81.4640667,13.0712111 80.6884,15.0255444 C79.9141778,16.9755444 79.5212889,19.1248778 79.5212889,21.4157667 C79.5212889,23.7081 79.9141778,25.8588778 80.6884,27.8088778 C81.4640667,29.7632111 82.5676222,31.4864333 83.9716222,32.9337667 C85.3727333,34.3811 87.0454,35.5236556 88.9419556,36.3311 C90.8370667,37.1356556 92.9300667,37.5444333 95.1660667,37.5444333 C97.4006222,37.5444333 99.4936222,37.1356556 101.390178,36.3311 C103.285289,35.5236556 104.956511,34.3811 106.360511,32.9337667 C107.761622,31.4864333 108.866622,29.7632111 109.642289,27.8088778 C110.416511,25.8574333 110.8094,23.7066556 110.8094,21.4157667 C110.8094,19.1263222 110.416511,16.9769889 109.642289,15.0255444 C108.866622,13.0712111 107.761622,11.3479889 106.360511,9.90065556" id="Fill-18" fill="#01302B"></path>
                <path d="M159.790944,12.1386778 C158.002722,12.1386778 156.412389,12.6370111 155.061833,13.6177889 C153.852833,14.4989 152.908167,15.7006778 152.246611,17.1971222 L152.246611,12.6586778 L149.3115,12.6586778 L149.3115,36.8487889 L152.246611,36.8487889 L152.246611,22.1501222 C152.246611,20.7851222 152.5485,19.5429 153.143611,18.4523444 C153.738722,17.3646778 154.566389,16.4951222 155.604944,15.8653444 C156.640611,15.2370111 157.838056,14.9177889 159.1655,14.9177889 C161.0635,14.9177889 162.470389,15.4811222 163.347167,16.5933444 C164.231167,17.7142333 164.6775,19.3031222 164.6775,21.3166778 L164.6775,36.8487889 L167.614056,36.8487889 L167.614056,21.0032333 C167.614056,18.3136778 166.9395,16.1426778 165.607722,14.5494556 C164.271611,12.9504556 162.314389,12.1386778 159.790944,12.1386778" id="Fill-20" fill="#01302B"></path>
                <mask id="mask-4" fill="white">
                    <use xlink:href="#path-3"></use>
                </mask>
                <g id="Clip-23"></g>
                <polygon id="Fill-22" fill="#01302B" mask="url(#mask-4)" points="172.283222 36.8500889 175.218333 36.8500889 175.218333 12.6599778 172.283222 12.6599778"></polygon>
                <path d="M234.249022,4.32408889 L231.313911,4.32408889 L231.313911,12.6599778 L227.406689,12.6599778 L227.406689,14.4857556 C226.7278,13.9556444 225.868356,13.4775333 224.828356,13.0586444 C223.3088,12.4476444 221.656356,12.1385333 219.914356,12.1385333 C217.578689,12.1385333 215.4568,12.6874222 213.606467,13.7693111 C211.757578,14.8497556 210.262578,16.3534222 209.1648,18.2384222 C208.065578,20.1219778 207.508022,22.3132 207.508022,24.7543111 C207.508022,27.1607556 208.065578,29.3433111 209.163356,31.2442 C210.262578,33.1465333 211.757578,34.6588667 213.606467,35.7393111 C215.455356,36.8212 217.577244,37.3700889 219.914356,37.3700889 C221.656356,37.3700889 223.3088,37.0696444 224.826911,36.4774222 C226.347911,35.8823111 227.493356,35.1340889 228.231467,34.2558667 L228.258911,34.2240889 L228.258911,30.3587556 L228.046578,30.7415333 C227.708578,31.3496444 227.1308,31.9606444 226.333467,32.5543111 C225.528911,33.1537556 224.566911,33.6477556 223.472022,34.0233111 C222.380022,34.3988667 221.182578,34.5895333 219.914356,34.5895333 C218.136244,34.5895333 216.517022,34.1663111 215.101467,33.3299778 C213.684467,32.4936444 212.552022,31.3236444 211.731578,29.8560889 C210.911133,28.3870889 210.495133,26.6710889 210.495133,24.7543111 C210.495133,22.8375333 210.911133,21.1215333 211.731578,19.6510889 C212.552022,18.1849778 213.684467,17.0149778 215.101467,16.1786444 C216.518467,15.3423111 218.137689,14.9176444 219.914356,14.9176444 C221.179689,14.9176444 222.375689,15.1083111 223.472022,15.4853111 C224.568356,15.8623111 225.5318,16.3476444 226.333467,16.9283111 C227.132244,17.5060889 227.707133,18.1243111 228.045133,18.7642 L228.258911,19.1700889 L228.258911,15.4376444 L231.313911,15.4376444 L231.313911,36.8500889 L234.249022,36.8500889 L234.249022,15.4376444 L238.156244,15.4376444 L238.156244,12.6599778 L234.249022,12.6599778 L234.249022,4.32408889 Z" id="Fill-24" fill="#01302B" mask="url(#mask-4)"></path>
                <polygon id="Fill-25" fill="#01302B" mask="url(#mask-4)" points="240.660333 36.8500889 243.595444 36.8500889 243.595444 12.6599778 240.660333 12.6599778"></polygon>
                <polygon id="Fill-26" fill="#01302B" mask="url(#mask-4)" points="265.632467 12.6592556 257.738578 32.0075889 249.844689 12.6592556 246.522467 12.6592556 257.738578 38.4267 268.954689 12.6592556"></polygon>
                <path d="M271.511789,22.9734556 C271.656233,21.6272333 271.991344,20.4167889 272.512789,19.3609 C273.229233,17.9106778 274.240344,16.7695667 275.518678,15.9679 C276.797011,15.1676778 278.328122,14.7603444 280.068678,14.7603444 C281.568011,14.7603444 282.933011,15.1229 284.124678,15.8407889 C285.317789,16.5543444 286.2769,17.5567889 286.976011,18.8177889 C287.650567,20.0383444 288.004456,21.4365667 288.029011,22.9734556 L271.511789,22.9734556 Z M289.779678,17.9034556 C288.855233,16.1051222 287.543678,14.6809 285.884011,13.6669 C284.2229,12.6514556 282.267122,12.1386778 280.068678,12.1386778 C277.8009,12.1386778 275.765678,12.6789 274.019344,13.7434556 C272.271567,14.8109 270.890678,16.3059 269.914233,18.1894556 C268.937789,20.0715667 268.442344,22.2642333 268.442344,24.7010111 C268.442344,27.1406778 268.929122,29.3391222 269.886789,31.2385667 C270.847344,33.1409 272.183456,34.6546778 273.860456,35.7365667 C275.537456,36.8199 277.486011,37.3702333 279.651233,37.3702333 C282.056233,37.3702333 284.185344,36.8646778 285.983678,35.8709 C287.780567,34.8756778 289.379567,33.3127889 290.738789,31.2226778 L290.8009,31.1287889 L288.420456,29.5976778 L288.359789,29.6930111 C287.298122,31.3714556 286.074678,32.6223444 284.725567,33.4081222 C283.3779,34.1924556 281.776011,34.5896778 279.964678,34.5896778 C278.257344,34.5896778 276.745011,34.1751222 275.468122,33.3575667 C274.188344,32.5385667 273.1859,31.3642333 272.488233,29.8634556 C271.903233,28.6096778 271.559456,27.1609 271.459789,25.5445667 L287.318344,25.5445667 L287.318344,25.5460111 L291.049344,25.5445667 L291.066678,25.4535667 C291.102789,25.2759 291.128789,25.0606778 291.147567,24.8136778 C291.1649,24.5681222 291.173567,24.3370111 291.173567,24.1290111 C291.173567,21.7976778 290.705567,19.7017889 289.779678,17.9034556 L289.779678,17.9034556 Z" id="Fill-27" fill="#01302B" mask="url(#mask-4)"></path>
                <path d="M188.0853,23.9834111 L193.042633,11.9179667 L198.027411,23.9834111 L188.0853,23.9834111 Z M191.462411,8.47296667 L179.398411,36.8591889 L182.775522,36.8591889 L186.854633,26.8737444 L199.203189,26.8737444 L203.3083,36.8591889 L206.685411,36.8591889 L194.619967,8.47296667 L191.462411,8.47296667 Z" id="Fill-28" fill="#01302B" mask="url(#mask-4)"></path>
                <path d="M173.750922,2.16868889 C173.202033,2.16868889 172.719589,2.36368889 172.318033,2.74646667 C171.915033,3.13068889 171.709922,3.62324444 171.709922,4.20824444 C171.709922,4.76002222 171.913589,5.24246667 172.316589,5.64402222 C172.718144,6.04702222 173.200589,6.24924444 173.750922,6.24924444 C174.337367,6.24924444 174.828478,6.04557778 175.2127,5.64113333 C175.596922,5.23957778 175.791922,4.75857778 175.791922,4.20824444 C175.791922,3.62468889 175.596922,3.13357778 175.211256,2.74791111 C174.827033,2.36368889 174.334478,2.16868889 173.750922,2.16868889" id="Fill-29" fill="#01302B" mask="url(#mask-4)"></path>
            </g>
        </g>
    </g>
</svg>