<?xml version="1.0" encoding="UTF-8"?>
<svg width="149px" height="25px" viewBox="0 0 149 25" version="1.1" xmlns="http://www.w3.org/2000/svg" xmlns:xlink="http://www.w3.org/1999/xlink">
    <title>SL-Logo-Update</title>
    <g id="Symbols" stroke="none" stroke-width="1" fill="none" fill-rule="evenodd">
        <g id="Nav" transform="translate(-36.000000, -22.000000)" fill-rule="nonzero">
            <g id="SL-Logo-Update" transform="translate(36.000000, 22.000000)">
                <g id="Straighterline-1" fill="#2C2E30">
                    <path d="M2.85735057,15.7911903 C2.9815832,16.909284 3.726979,17.6546798 4.8450727,17.6546798 C5.71470113,17.6546798 6.58432956,17.0335166 6.58432956,16.1638882 C6.58432956,14.9215619 5.46623586,14.6730966 4.4723748,14.4246313 C2.36042003,13.9277008 0,13.182305 0,10.4491871 C0,8.08876702 1.98772213,6.72220806 4.22390953,6.72220806 C5.34200323,6.72220806 6.3358643,6.97067332 6.95702746,7.84030176 L6.95702746,6.97067332 L9.06898223,6.97067332 L9.06898223,10.3249544 L6.3358643,10.3249544 C6.3358643,9.45532599 5.5904685,8.83416282 4.72084006,8.83416282 C3.97544426,8.83416282 3.10581583,9.33109336 3.10581583,10.0764892 C3.10581583,11.1945829 4.22390953,11.4430481 5.09353796,11.6915134 C7.32972536,12.1884439 9.6901454,12.9338397 9.6901454,15.6669577 C9.6901454,18.1516103 7.57819063,19.5181693 5.34200323,19.5181693 C4.0996769,19.5181693 2.9815832,19.1454714 2.11195477,18.1516103 L2.11195477,19.1454714 L0,19.1454714 L0,15.542725 L2.85735057,15.542725 L2.85735057,15.7911903 Z" id="Path"></path>
                    <polygon id="Path" points="15.5290792 16.7850514 17.7652666 16.7850514 17.7652666 19.3939367 12.6717286 19.3939367 12.6717286 9.70379126 10.6840065 9.70379126 10.6840065 7.09490596 12.6717286 7.09490596 12.6717286 2.99522906 15.5290792 2.99522906 15.5290792 7.09490596 17.6410339 7.09490596 17.6410339 9.70379126 15.5290792 9.70379126"></polygon>
                    <path d="M24.2253635,9.20686072 C24.9707593,7.71606912 26.3373183,7.09490596 27.9523425,6.97067332 L27.9523425,9.82802389 C27.0827141,9.82802389 26.2130856,10.0764892 25.5919225,10.6976523 C24.722294,11.4430481 24.4738288,12.4369092 24.4738288,13.6792355 L24.4738288,16.7850514 L26.088853,16.7850514 L26.088853,19.3939367 L20.1256866,19.3939367 L20.1256866,16.7850514 L21.7407108,16.7850514 L21.7407108,9.70379126 L20.1256866,9.70379126 L20.1256866,7.09490596 L24.3495961,7.09490596 L24.3495961,9.20686072 L24.2253635,9.20686072 Z" id="Path"></path>
                    <path d="M38.6363489,13.182305 C38.6363489,11.1945829 36.8970921,9.45532599 34.90937,9.45532599 C32.7974152,9.45532599 31.182391,11.1945829 31.182391,13.3065376 C31.182391,15.2942598 32.9216478,17.0335166 34.90937,17.0335166 C37.0213247,17.0335166 38.6363489,15.2942598 38.6363489,13.182305 M38.5121163,17.7789124 C37.6424879,19.1454714 36.1516963,19.7666346 34.5366721,19.7666346 C31.0581583,19.7666346 28.2008078,16.7850514 28.2008078,13.3065376 C28.2008078,9.70379126 31.0581583,6.72220806 34.6609047,6.72220806 C36.2759289,6.72220806 37.6424879,7.46760386 38.5121163,8.83416282 L38.5121163,7.09490596 L42.8602585,7.09490596 L42.8602585,9.70379126 L41.3694669,9.70379126 L41.3694669,16.7850514 L42.8602585,16.7850514 L42.8602585,19.3939367 L38.5121163,19.3939367 L38.5121163,17.7789124 Z" id="Shape"></path>
                    <polygon id="Path" points="49.444588 16.7850514 51.0596123 16.7850514 51.0596123 19.3939367 44.9722132 19.3939367 44.9722132 16.7850514 46.5872375 16.7850514 46.5872375 9.70379126 45.0964459 9.70379126 45.0964459 7.09490596 49.444588 7.09490596"></polygon>
                    <path d="M58.8862682,17.0335166 C60.9982229,17.0335166 62.6132472,15.2942598 62.6132472,13.182305 C62.6132472,11.0703502 60.8739903,9.45532599 58.8862682,9.45532599 C56.7743134,9.45532599 55.1592892,11.1945829 55.1592892,13.182305 C55.1592892,15.2942598 56.7743134,17.0335166 58.8862682,17.0335166 M56.1531502,20.5120304 C56.6500808,21.5058914 57.8924071,22.002822 58.8862682,22.002822 C59.8801292,22.002822 60.8739903,21.6301241 61.4951535,20.8847283 C62.2405493,20.0150998 62.3647819,19.1454714 62.3647819,18.0273777 L62.3647819,17.5304472 C61.4951535,19.0212388 60.1285945,19.6424019 58.3893376,19.6424019 C54.9108239,19.6424019 52.177706,16.6608187 52.177706,13.3065376 C52.177706,9.95225652 55.0350565,6.97067332 58.3893376,6.97067332 C60.0043619,6.97067332 61.6193861,7.59183649 62.4890145,8.95839546 L62.4890145,7.21913859 L66.7129241,7.21913859 L66.7129241,9.82802389 L65.0978998,9.82802389 L65.0978998,17.9031451 C65.0978998,19.7666346 64.9736672,21.2574262 63.6071082,22.6239851 C62.2405493,23.8663115 60.625525,24.4874746 58.7620355,24.4874746 C56.1531502,24.4874746 53.5442649,23.2451483 52.9231018,20.5120304 L56.1531502,20.5120304 L56.1531502,20.5120304 Z" id="Shape"></path>
                    <path d="M72.0549273,8.95839546 C72.8003231,7.59183649 74.1668821,6.84644069 75.7819063,6.84644069 C77.2726979,6.84644069 78.3907916,7.46760386 79.26042,8.58569756 C80.1300485,9.82802389 80.2542811,11.0703502 80.2542811,12.5611418 L80.2542811,16.7850514 L81.8693053,16.7850514 L81.8693053,19.3939367 L75.9061389,19.3939367 L75.9061389,16.7850514 L77.5211632,16.7850514 L77.5211632,13.3065376 C77.5211632,12.4369092 77.6453958,11.5672808 77.1484653,10.6976523 C76.6515347,9.95225652 75.7819063,9.57955862 74.9122779,9.57955862 C74.0426494,9.57955862 73.2972536,9.95225652 72.8003231,10.5734197 C72.1791599,11.3188155 72.1791599,12.0642113 72.1791599,13.0580724 L72.1791599,16.7850514 L73.7941842,16.7850514 L73.7941842,19.3939367 L67.8310178,19.3939367 L67.8310178,16.7850514 L69.446042,16.7850514 L69.446042,5.60411436 L67.8310178,5.60411436 L67.8310178,2.99522906 L72.1791599,2.99522906 L72.1791599,8.95839546 L72.0549273,8.95839546 Z" id="Path"></path>
                    <polygon id="Path" points="86.9628433 16.7850514 89.1990307 16.7850514 89.1990307 19.3939367 84.2297254 19.3939367 84.2297254 9.70379126 82.2420032 9.70379126 82.2420032 7.09490596 84.2297254 7.09490596 84.2297254 2.99522906 86.9628433 2.99522906 86.9628433 7.09490596 89.0747981 7.09490596 89.0747981 9.70379126 86.9628433 9.70379126"></polygon>
                    <path d="M100.752666,12.1884439 C100.255735,10.4491871 98.6407108,9.33109336 96.901454,9.33109336 C95.2864297,9.33109336 93.6714055,10.5734197 93.2987076,12.1884439 L100.752666,12.1884439 Z M102.86462,15.7911903 C101.870759,18.1516103 99.6345719,19.7666346 97.0256866,19.7666346 C93.4229402,19.7666346 90.5655897,16.909284 90.5655897,13.3065376 C90.5655897,9.70379126 93.2987076,6.72220806 97.0256866,6.72220806 C98.7649435,6.72220806 100.379968,7.46760386 101.622294,8.70993019 C102.86462,9.95225652 103.361551,11.5672808 103.361551,13.3065376 L103.237318,14.3003987 L93.2987076,14.3003987 C93.6714055,16.0396556 95.2864297,17.2819819 97.0256866,17.2819819 C98.2680129,17.2819819 99.261874,16.7850514 100.00727,15.7911903 L102.86462,15.7911903 Z" id="Shape"></path>
                    <path d="M109.573183,9.20686072 C110.318578,7.71606912 111.685137,7.09490596 113.300162,6.97067332 L113.300162,9.82802389 C112.430533,9.82802389 111.560905,10.0764892 110.939742,10.6976523 C110.070113,11.4430481 109.821648,12.4369092 109.821648,13.6792355 L109.821648,16.7850514 L111.436672,16.7850514 L111.436672,19.3939367 L105.473506,19.3939367 L105.473506,16.7850514 L107.08853,16.7850514 L107.08853,9.70379126 L105.473506,9.70379126 L105.473506,7.09490596 L109.697415,7.09490596 L109.697415,9.20686072 L109.573183,9.20686072 Z" id="Path"></path>
                    <rect id="Rectangle" x="48.0780291" y="1.00750693" width="72.9245557" height="1"></rect>
                    <path d="M49.444588,1.38020483 C49.444588,2.12560063 48.8234249,2.74676379 48.0780291,2.74676379 C47.3326333,2.74676379 46.7114701,2.12560063 46.7114701,1.38020483 C46.7114701,0.634809028 47.3326333,0.0136458612 48.0780291,0.0136458612 C48.8234249,-0.110586772 49.444588,0.634809028 49.444588,1.38020483" id="Path"></path>
                    <rect id="Rectangle" x="116.033279" y="2.99522906" width="1.4907916" height="16.3987076"></rect>
                    <polygon id="Path" points="120.257189 7.59183649 121.002585 7.59183649 121.747981 7.59183649 121.747981 13.4307703 121.747981 19.3939367 121.002585 19.3939367 120.257189 19.3939367 120.257189 13.4307703"></polygon>
                    <path d="M124.605331,7.59183649 L126.096123,7.59183649 L126.096123,9.08262809 L126.096123,9.08262809 C126.593053,8.33723229 127.711147,7.21913859 129.698869,7.21913859 C131.189661,7.21913859 132.307754,7.59183649 133.425848,8.70993019 C134.295477,9.57955862 134.91664,10.9461176 134.91664,12.8096071 L134.91664,19.269704 L133.425848,19.269704 L133.425848,12.8096071 C133.425848,11.3188155 132.928918,10.2007218 132.307754,9.57955862 C131.438126,8.83416282 130.444265,8.58569756 129.698869,8.58569756 C129.077706,8.58569756 127.959612,8.83416282 127.089984,9.57955862 C126.468821,10.2007218 125.97189,11.3188155 125.97189,12.8096071 L125.97189,19.269704 L124.481099,19.269704 L124.481099,7.59183649 L124.605331,7.59183649 Z" id="Path"></path>
                    <path d="M147.464136,12.6853745 C146.967205,9.95225652 144.731018,8.70993019 142.867528,8.70993019 C141.004039,8.70993019 138.767851,9.95225652 138.270921,12.6853745 L147.464136,12.6853745 Z M138.270921,14.0519334 C138.395153,16.4123535 140.507108,18.275843 142.867528,18.275843 C144.979483,18.275843 146.594507,16.909284 147.091438,15.542725 L148.706462,15.542725 C147.836834,17.9031451 145.600646,19.6424019 142.867528,19.6424019 C139.513247,19.6424019 136.780129,17.0335166 136.780129,13.4307703 C136.780129,10.0764892 139.513247,7.34337122 142.867528,7.21913859 C145.476414,7.21913859 147.339903,8.70993019 148.085299,10.2007218 C148.830695,11.4430481 149.07916,12.8096071 148.954927,13.9277008 L138.270921,13.9277008 L138.270921,14.0519334 Z" id="Shape"></path>
                    <path d="M122.493376,1.38020483 C122.493376,2.12560063 121.872213,2.74676379 121.126817,2.74676379 C120.381422,2.74676379 119.760258,2.12560063 119.760258,1.38020483 C119.760258,0.634809028 120.381422,0.0136458612 121.126817,0.0136458612 C121.872213,-0.110586772 122.493376,0.634809028 122.493376,1.38020483" id="Path"></path>
                    <path d="M2.85735057,15.7911903 C2.9815832,16.909284 3.726979,17.6546798 4.8450727,17.6546798 C5.71470113,17.6546798 6.58432956,17.0335166 6.58432956,16.1638882 C6.58432956,14.9215619 5.46623586,14.6730966 4.4723748,14.4246313 C2.36042003,13.9277008 0,13.182305 0,10.4491871 C0,8.08876702 1.98772213,6.72220806 4.22390953,6.72220806 C5.34200323,6.72220806 6.3358643,6.97067332 6.95702746,7.84030176 L6.95702746,6.97067332 L9.06898223,6.97067332 L9.06898223,10.3249544 L6.3358643,10.3249544 C6.3358643,9.45532599 5.5904685,8.83416282 4.72084006,8.83416282 C3.97544426,8.83416282 3.10581583,9.33109336 3.10581583,10.0764892 C3.10581583,11.1945829 4.22390953,11.4430481 5.09353796,11.6915134 C7.32972536,12.1884439 9.6901454,12.9338397 9.6901454,15.6669577 C9.6901454,18.1516103 7.57819063,19.5181693 5.34200323,19.5181693 C4.0996769,19.5181693 2.9815832,19.1454714 2.11195477,18.1516103 L2.11195477,19.1454714 L0,19.1454714 L0,15.542725 L2.85735057,15.542725 L2.85735057,15.7911903 Z" id="Path"></path>
                    <polygon id="Path" points="15.5290792 16.7850514 17.7652666 16.7850514 17.7652666 19.3939367 12.6717286 19.3939367 12.6717286 9.70379126 10.6840065 9.70379126 10.6840065 7.09490596 12.6717286 7.09490596 12.6717286 2.99522906 15.5290792 2.99522906 15.5290792 7.09490596 17.6410339 7.09490596 17.6410339 9.70379126 15.5290792 9.70379126"></polygon>
                    <path d="M24.2253635,9.20686072 C24.9707593,7.71606912 26.3373183,7.09490596 27.9523425,6.97067332 L27.9523425,9.82802389 C27.0827141,9.82802389 26.2130856,10.0764892 25.5919225,10.6976523 C24.722294,11.4430481 24.4738288,12.4369092 24.4738288,13.6792355 L24.4738288,16.7850514 L26.088853,16.7850514 L26.088853,19.3939367 L20.1256866,19.3939367 L20.1256866,16.7850514 L21.7407108,16.7850514 L21.7407108,9.70379126 L20.1256866,9.70379126 L20.1256866,7.09490596 L24.3495961,7.09490596 L24.3495961,9.20686072 L24.2253635,9.20686072 Z" id="Path"></path>
                    <path d="M38.6363489,13.182305 C38.6363489,11.1945829 36.8970921,9.45532599 34.90937,9.45532599 C32.7974152,9.45532599 31.182391,11.1945829 31.182391,13.3065376 C31.182391,15.2942598 32.9216478,17.0335166 34.90937,17.0335166 C37.0213247,17.0335166 38.6363489,15.2942598 38.6363489,13.182305 M38.5121163,17.7789124 C37.6424879,19.1454714 36.1516963,19.7666346 34.5366721,19.7666346 C31.0581583,19.7666346 28.2008078,16.7850514 28.2008078,13.3065376 C28.2008078,9.70379126 31.0581583,6.72220806 34.6609047,6.72220806 C36.2759289,6.72220806 37.6424879,7.46760386 38.5121163,8.83416282 L38.5121163,7.09490596 L42.8602585,7.09490596 L42.8602585,9.70379126 L41.3694669,9.70379126 L41.3694669,16.7850514 L42.8602585,16.7850514 L42.8602585,19.3939367 L38.5121163,19.3939367 L38.5121163,17.7789124 Z" id="Shape"></path>
                    <polygon id="Path" points="49.444588 16.7850514 51.0596123 16.7850514 51.0596123 19.3939367 44.9722132 19.3939367 44.9722132 16.7850514 46.5872375 16.7850514 46.5872375 9.70379126 45.0964459 9.70379126 45.0964459 7.09490596 49.444588 7.09490596"></polygon>
                    <path d="M58.8862682,17.0335166 C60.9982229,17.0335166 62.6132472,15.2942598 62.6132472,13.182305 C62.6132472,11.0703502 60.8739903,9.45532599 58.8862682,9.45532599 C56.7743134,9.45532599 55.1592892,11.1945829 55.1592892,13.182305 C55.1592892,15.2942598 56.7743134,17.0335166 58.8862682,17.0335166 M56.1531502,20.5120304 C56.6500808,21.5058914 57.8924071,22.002822 58.8862682,22.002822 C59.8801292,22.002822 60.8739903,21.6301241 61.4951535,20.8847283 C62.2405493,20.0150998 62.3647819,19.1454714 62.3647819,18.0273777 L62.3647819,17.5304472 C61.4951535,19.0212388 60.1285945,19.6424019 58.3893376,19.6424019 C54.9108239,19.6424019 52.177706,16.6608187 52.177706,13.3065376 C52.177706,9.95225652 55.0350565,6.97067332 58.3893376,6.97067332 C60.0043619,6.97067332 61.6193861,7.59183649 62.4890145,8.95839546 L62.4890145,7.21913859 L66.7129241,7.21913859 L66.7129241,9.82802389 L65.0978998,9.82802389 L65.0978998,17.9031451 C65.0978998,19.7666346 64.9736672,21.2574262 63.6071082,22.6239851 C62.2405493,23.8663115 60.625525,24.4874746 58.7620355,24.4874746 C56.1531502,24.4874746 53.5442649,23.2451483 52.9231018,20.5120304 L56.1531502,20.5120304 L56.1531502,20.5120304 Z" id="Shape"></path>
                    <path d="M72.0549273,8.95839546 C72.8003231,7.59183649 74.1668821,6.84644069 75.7819063,6.84644069 C77.2726979,6.84644069 78.3907916,7.46760386 79.26042,8.58569756 C80.1300485,9.82802389 80.2542811,11.0703502 80.2542811,12.5611418 L80.2542811,16.7850514 L81.8693053,16.7850514 L81.8693053,19.3939367 L75.9061389,19.3939367 L75.9061389,16.7850514 L77.5211632,16.7850514 L77.5211632,13.3065376 C77.5211632,12.4369092 77.6453958,11.5672808 77.1484653,10.6976523 C76.6515347,9.95225652 75.7819063,9.57955862 74.9122779,9.57955862 C74.0426494,9.57955862 73.2972536,9.95225652 72.8003231,10.5734197 C72.1791599,11.3188155 72.1791599,12.0642113 72.1791599,13.0580724 L72.1791599,16.7850514 L73.7941842,16.7850514 L73.7941842,19.3939367 L67.8310178,19.3939367 L67.8310178,16.7850514 L69.446042,16.7850514 L69.446042,5.60411436 L67.8310178,5.60411436 L67.8310178,2.99522906 L72.1791599,2.99522906 L72.1791599,8.95839546 L72.0549273,8.95839546 Z" id="Path"></path>
                    <polygon id="Path" points="86.9628433 16.7850514 89.1990307 16.7850514 89.1990307 19.3939367 84.2297254 19.3939367 84.2297254 9.70379126 82.2420032 9.70379126 82.2420032 7.09490596 84.2297254 7.09490596 84.2297254 2.99522906 86.9628433 2.99522906 86.9628433 7.09490596 89.0747981 7.09490596 89.0747981 9.70379126 86.9628433 9.70379126"></polygon>
                    <path d="M100.752666,12.1884439 C100.255735,10.4491871 98.6407108,9.33109336 96.901454,9.33109336 C95.2864297,9.33109336 93.6714055,10.5734197 93.2987076,12.1884439 L100.752666,12.1884439 Z M102.86462,15.7911903 C101.870759,18.1516103 99.6345719,19.7666346 97.0256866,19.7666346 C93.4229402,19.7666346 90.5655897,16.909284 90.5655897,13.3065376 C90.5655897,9.70379126 93.2987076,6.72220806 97.0256866,6.72220806 C98.7649435,6.72220806 100.379968,7.46760386 101.622294,8.70993019 C102.86462,9.95225652 103.361551,11.5672808 103.361551,13.3065376 L103.237318,14.3003987 L93.2987076,14.3003987 C93.6714055,16.0396556 95.2864297,17.2819819 97.0256866,17.2819819 C98.2680129,17.2819819 99.261874,16.7850514 100.00727,15.7911903 L102.86462,15.7911903 Z" id="Shape"></path>
                    <path d="M109.573183,9.20686072 C110.318578,7.71606912 111.685137,7.09490596 113.300162,6.97067332 L113.300162,9.82802389 C112.430533,9.82802389 111.560905,10.0764892 110.939742,10.6976523 C110.070113,11.4430481 109.821648,12.4369092 109.821648,13.6792355 L109.821648,16.7850514 L111.436672,16.7850514 L111.436672,19.3939367 L105.473506,19.3939367 L105.473506,16.7850514 L107.08853,16.7850514 L107.08853,9.70379126 L105.473506,9.70379126 L105.473506,7.09490596 L109.697415,7.09490596 L109.697415,9.20686072 L109.573183,9.20686072 Z" id="Path"></path>
                    <rect id="Rectangle" x="48.0780291" y="1.00750693" width="72.9245557" height="1"></rect>
                    <path d="M49.444588,1.38020483 C49.444588,2.12560063 48.8234249,2.74676379 48.0780291,2.74676379 C47.3326333,2.74676379 46.7114701,2.12560063 46.7114701,1.38020483 C46.7114701,0.634809028 47.3326333,0.0136458612 48.0780291,0.0136458612 C48.8234249,-0.110586772 49.444588,0.634809028 49.444588,1.38020483" id="Path"></path>
                    <rect id="Rectangle" x="116.033279" y="2.99522906" width="1.4907916" height="16.3987076"></rect>
                    <polygon id="Path" points="120.257189 7.59183649 121.002585 7.59183649 121.747981 7.59183649 121.747981 13.4307703 121.747981 19.3939367 121.002585 19.3939367 120.257189 19.3939367 120.257189 13.4307703"></polygon>
                    <path d="M124.605331,7.59183649 L126.096123,7.59183649 L126.096123,9.08262809 L126.096123,9.08262809 C126.593053,8.33723229 127.711147,7.21913859 129.698869,7.21913859 C131.189661,7.21913859 132.307754,7.59183649 133.425848,8.70993019 C134.295477,9.57955862 134.91664,10.9461176 134.91664,12.8096071 L134.91664,19.269704 L133.425848,19.269704 L133.425848,12.8096071 C133.425848,11.3188155 132.928918,10.2007218 132.307754,9.57955862 C131.438126,8.83416282 130.444265,8.58569756 129.698869,8.58569756 C129.077706,8.58569756 127.959612,8.83416282 127.089984,9.57955862 C126.468821,10.2007218 125.97189,11.3188155 125.97189,12.8096071 L125.97189,19.269704 L124.481099,19.269704 L124.481099,7.59183649 L124.605331,7.59183649 Z" id="Path"></path>
                    <path d="M147.464136,12.6853745 C146.967205,9.95225652 144.731018,8.70993019 142.867528,8.70993019 C141.004039,8.70993019 138.767851,9.95225652 138.270921,12.6853745 L147.464136,12.6853745 Z M138.270921,14.0519334 C138.395153,16.4123535 140.507108,18.275843 142.867528,18.275843 C144.979483,18.275843 146.594507,16.909284 147.091438,15.542725 L148.706462,15.542725 C147.836834,17.9031451 145.600646,19.6424019 142.867528,19.6424019 C139.513247,19.6424019 136.780129,17.0335166 136.780129,13.4307703 C136.780129,10.0764892 139.513247,7.34337122 142.867528,7.21913859 C145.476414,7.21913859 147.339903,8.70993019 148.085299,10.2007218 C148.830695,11.4430481 149.07916,12.8096071 148.954927,13.9277008 L138.270921,13.9277008 L138.270921,14.0519334 Z" id="Shape"></path>
                    <path d="M122.493376,1.38020483 C122.493376,2.12560063 121.872213,2.74676379 121.126817,2.74676379 C120.381422,2.74676379 119.760258,2.12560063 119.760258,1.38020483 C119.760258,0.634809028 120.381422,0.0136458612 121.126817,0.0136458612 C121.872213,-0.110586772 122.493376,0.634809028 122.493376,1.38020483" id="Path"></path>
                </g>
                <g id="Straighterline-2" transform="translate(116.033279, 0.000000)" fill="#323E48">
                    <rect id="Rectangle" x="0" y="2.99522906" width="1.4907916" height="16.3987076"></rect>
                    <polygon id="Path" points="4.22390953 7.59183649 4.96930533 7.59183649 5.71470113 7.59183649 5.71470113 13.4307703 5.71470113 19.3939367 4.96930533 19.3939367 4.22390953 19.3939367 4.22390953 13.4307703"></polygon>
                    <path d="M8.5720517,7.59183649 L10.0628433,7.59183649 L10.0628433,9.08262809 L10.0628433,9.08262809 C10.5597738,8.33723229 11.6778675,7.21913859 13.6655897,7.21913859 C15.1563813,7.21913859 16.274475,7.59183649 17.3925687,8.70993019 C18.2621971,9.57955862 18.8833603,10.9461176 18.8833603,12.8096071 L18.8833603,19.269704 L17.3925687,19.269704 L17.3925687,12.8096071 C17.3925687,11.3188155 16.8956381,10.2007218 16.274475,9.57955862 C15.4048465,8.83416282 14.4109855,8.58569756 13.6655897,8.58569756 C13.0444265,8.58569756 11.9263328,8.83416282 11.0567044,9.57955862 C10.4355412,10.2007218 9.93861066,11.3188155 9.93861066,12.8096071 L9.93861066,19.269704 L8.44781906,19.269704 L8.44781906,7.59183649 L8.5720517,7.59183649 Z" id="Path"></path>
                    <path d="M31.4308562,12.6853745 C30.9339257,9.95225652 28.6977383,8.70993019 26.8342488,8.70993019 C24.9707593,8.70993019 22.7345719,9.95225652 22.2376414,12.6853745 L31.4308562,12.6853745 Z M22.2376414,14.0519334 C22.361874,16.4123535 24.4738288,18.275843 26.8342488,18.275843 C28.9462036,18.275843 30.5612278,16.909284 31.0581583,15.542725 L32.6731826,15.542725 C31.8035541,17.9031451 29.5673667,19.6424019 26.8342488,19.6424019 C23.4799677,19.6424019 20.7468498,17.0335166 20.7468498,13.4307703 C20.7468498,10.0764892 23.4799677,7.34337122 26.8342488,7.21913859 C29.4431341,7.21913859 31.3066236,8.70993019 32.0520194,10.2007218 C32.7974152,11.4430481 33.0458805,12.8096071 32.9216478,13.9277008 L22.2376414,13.9277008 L22.2376414,14.0519334 Z" id="Shape"></path>
                    <path d="M6.46009693,1.38020483 C6.46009693,2.12560063 5.83893376,2.74676379 5.09353796,2.74676379 C4.34814216,2.74676379 3.726979,2.12560063 3.726979,1.38020483 C3.726979,0.634809028 4.34814216,0.0136458612 5.09353796,0.0136458612 C5.83893376,-0.110586772 6.46009693,0.634809028 6.46009693,1.38020483" id="Path"></path>
                    <rect id="Rectangle" x="0" y="2.99522906" width="1.4907916" height="16.3987076"></rect>
                    <polygon id="Path" points="4.22390953 7.59183649 4.96930533 7.59183649 5.71470113 7.59183649 5.71470113 13.4307703 5.71470113 19.3939367 4.96930533 19.3939367 4.22390953 19.3939367 4.22390953 13.4307703"></polygon>
                    <path d="M8.5720517,7.59183649 L10.0628433,7.59183649 L10.0628433,9.08262809 L10.0628433,9.08262809 C10.5597738,8.33723229 11.6778675,7.21913859 13.6655897,7.21913859 C15.1563813,7.21913859 16.274475,7.59183649 17.3925687,8.70993019 C18.2621971,9.57955862 18.8833603,10.9461176 18.8833603,12.8096071 L18.8833603,19.269704 L17.3925687,19.269704 L17.3925687,12.8096071 C17.3925687,11.3188155 16.8956381,10.2007218 16.274475,9.57955862 C15.4048465,8.83416282 14.4109855,8.58569756 13.6655897,8.58569756 C13.0444265,8.58569756 11.9263328,8.83416282 11.0567044,9.57955862 C10.4355412,10.2007218 9.93861066,11.3188155 9.93861066,12.8096071 L9.93861066,19.269704 L8.44781906,19.269704 L8.44781906,7.59183649 L8.5720517,7.59183649 Z" id="Path"></path>
                    <path d="M31.4308562,12.6853745 C30.9339257,9.95225652 28.6977383,8.70993019 26.8342488,8.70993019 C24.9707593,8.70993019 22.7345719,9.95225652 22.2376414,12.6853745 L31.4308562,12.6853745 Z M22.2376414,14.0519334 C22.361874,16.4123535 24.4738288,18.275843 26.8342488,18.275843 C28.9462036,18.275843 30.5612278,16.909284 31.0581583,15.542725 L32.6731826,15.542725 C31.8035541,17.9031451 29.5673667,19.6424019 26.8342488,19.6424019 C23.4799677,19.6424019 20.7468498,17.0335166 20.7468498,13.4307703 C20.7468498,10.0764892 23.4799677,7.34337122 26.8342488,7.21913859 C29.4431341,7.21913859 31.3066236,8.70993019 32.0520194,10.2007218 C32.7974152,11.4430481 33.0458805,12.8096071 32.9216478,13.9277008 L22.2376414,13.9277008 L22.2376414,14.0519334 Z" id="Shape"></path>
                    <path d="M6.46009693,1.38020483 C6.46009693,2.12560063 5.83893376,2.74676379 5.09353796,2.74676379 C4.34814216,2.74676379 3.726979,2.12560063 3.726979,1.38020483 C3.726979,0.634809028 4.34814216,0.0136458612 5.09353796,0.0136458612 C5.83893376,-0.110586772 6.46009693,0.634809028 6.46009693,1.38020483" id="Path"></path>
                </g>
            </g>
        </g>
    </g>
</svg>