<svg xmlns="http://www.w3.org/2000/svg" width="250px" height="120px" viewBox="0 0 455.861 101.617">
	<g id="phone" transform="translate(-79.295 -160.992)">
		<g id="Group_171" data-name="Group 171" transform="translate(79.295 160.992)">
			<g id="Group_169" data-name="Group 169" transform="translate(0 15.115)">
				<g id="Group_167" data-name="Group 167" transform="translate(33.993 23.579)">
					<path id="Path_34" data-name="Path 34" d="M107.679,204.081l-1.441,6.062H101.5l6.178-23.622h6l6.267,23.622h-4.919l-1.558-6.062Zm5.128-4-1.26-5.012c-.36-1.4-.719-3.153-1.018-4.556h-.061c-.3,1.4-.6,3.189-.931,4.556l-1.2,5.012Z" transform="translate(-101.501 -186.135)" fill="#0e5ea7" />
					<path id="Path_35" data-name="Path 35" d="M119.117,186.521v23.622h-4.588V186.521Z" transform="translate(-94.586 -186.135)" fill="#0e5ea7" />
					<path id="Path_36" data-name="Path 36" d="M119.748,204.774a10.347,10.347,0,0,0,5.069,1.471c2.1,0,3.207-1.015,3.207-2.556,0-1.474-.958-2.313-3.386-3.329-3.36-1.367-5.548-3.541-5.548-6.974,0-4.032,2.876-7.115,7.646-7.115a10.868,10.868,0,0,1,5.157,1.193l-1.02,4.309a8.506,8.506,0,0,0-4.23-1.121c-1.979,0-2.938,1.052-2.938,2.276,0,1.509,1.139,2.174,3.747,3.33,3.568,1.543,5.249,3.717,5.249,7.046,0,3.96-2.61,7.325-8.158,7.325a11.668,11.668,0,0,1-5.727-1.436Z" transform="translate(-92.308 -186.269)" fill="#0e5ea7" />
				</g>
				<g id="Group_168" data-name="Group 168">
					<path id="Path_37" data-name="Path 37" d="M136.075,216.278l25.453-16.407-25.453-16.407L133,185.455l22.364,14.416L133,214.288Z" transform="translate(-50.787 -164.179)" fill="#df2027" />
					<path id="Path_38" data-name="Path 38" d="M102.01,189.167l22.228-14.329,22.23,14.329,3.072-1.993-25.3-16.308-25.3,16.308Z" transform="translate(-68.869 -170.866)" fill="#df2027" />
					<path id="Path_39" data-name="Path 39" d="M107.82,214.288,85.456,199.871l22.364-14.416-3.072-1.991L79.3,199.871l25.453,16.407Z" transform="translate(-79.295 -164.179)" fill="#df2027" />
					<path id="Path_40" data-name="Path 40" d="M146.468,205.543l-22.23,14.329L102.01,205.543l-3.072,1.993,25.3,16.308,25.3-16.308Z" transform="translate(-68.869 -152.459)" fill="#df2027" />
				</g>
			</g>
			<path id="Path_41" data-name="Path 41" d="M229.616,170.866l-51.073,38.018s-2.31,2.365,0,5.753c2.344,3.441,13.307,21.22,13.307,21.22s2.982,4.909,8.273,0c3.919-3.636,62.257-55.84,62.257-55.84L199.4,229.023s-1.973.935-3.6-1.437c-.643-.937-9.352-14.387-9.352-14.387a3.98,3.98,0,0,1,1.079-5.036C189.85,206.174,229.616,170.866,229.616,170.866Z" transform="translate(-27.158 -155.751)" fill="#00348c" />
			<path id="Path_42" data-name="Path 42" d="M246.089,170.866l-51.071,38.018s-2.31,2.365,0,5.753c2.344,3.441,13.307,21.22,13.307,21.22s2.979,4.909,8.271,0c3.92-3.636,62.257-55.84,62.257-55.84l-62.975,49.006s-1.975.935-3.6-1.437c-.641-.937-9.35-14.387-9.35-14.387a3.978,3.978,0,0,1,1.078-5.036C206.322,206.174,246.089,170.866,246.089,170.866Z" transform="translate(-18.413 -155.751)" fill="#ff2711" />
			<rect id="Rectangle_70" data-name="Rectangle 70" width="2.209" height="101.617" transform="translate(129.344)" fill="#7b7b7a" />
			<g id="Group_170" data-name="Group 170" transform="translate(271.507 19.309)">
				<path id="Path_43" data-name="Path 43" d="M348.934,217.773a2.539,2.539,0,0,1,2.391-2.529,2.592,2.592,0,0,1,2.538,2.514,2.466,2.466,0,1,1-4.929.015Zm-49.057.075a2.824,2.824,0,0,0-2.486-2.6,2.531,2.531,0,0,0-.141,5.059A2.805,2.805,0,0,0,299.877,217.848Z" transform="translate(-236.39 -151.503)" fill="#234a8a" />
				<path id="Path_44" data-name="Path 44" d="M280.449,190.349c.726-2.406,1.474-4.8,2.163-7.221.568-1.979,1.091-3.969,1.594-5.97.179-.739.658-.7,1.185-.566.618.15,1.385-.372,1.8.15.479.592-.225,1.2-.393,1.794-1,3.458-2.106,6.876-3.022,10.351-.684,2.61-1.281,5.242-2.111,7.812a.949.949,0,0,1-1.091.793c-1.3-.024-2.6.046-3.908.09-.481.02-.7-.09-.854-.652-1.15-4.13-2.1-8.318-3.585-12.36-.086-.253.021-.689-.447-.631a.7.7,0,0,0-.579.625c-.553,2.3-1.076,4.606-1.661,6.9-.459,1.823-1.006,3.634-1.531,5.448a.755.755,0,0,1-.874.571,25.373,25.373,0,0,0-3.127.017c-1.013.106-1.385-.455-1.61-1.238-.917-3.293-1.762-6.609-2.733-9.884-.9-3.037-1.909-6.034-2.913-9.033a.91.91,0,0,1,.02-.862c.193-.256.471-.021.715.028a15.7,15.7,0,0,0,4.028.069,1.389,1.389,0,0,1,1.673,1.142q1.121,4.5,2.22,9a15.109,15.109,0,0,1,.638,2.5.691.691,0,0,0,.579.635c.427.014.309-.432.407-.689,1.375-3.919,2.454-7.931,3.617-11.911.179-.62.372-.946,1.15-.742a6.418,6.418,0,0,0,3.227-.011.877.877,0,0,1,1.248.661c.937,3.207,1.813,6.429,2.745,9.64.343,1.188.746,2.351,1.13,3.526C280.244,190.338,280.353,190.338,280.449,190.349Zm80.415,4.4c0,2.714,0,2.714,2.742,2.714,3.1,0,3,0,3-3.126-.011-3.031-.374-6.057-.043-9.095a2.707,2.707,0,0,1,3.757-2.305,2.775,2.775,0,0,1,1.483,2.866c.021,3.476.031,6.95-.008,10.423,0,.911.2,1.352,1.223,1.261a17.04,17.04,0,0,1,3.388,0c1.046.112,1.234-.3,1.225-1.223-.028-3.729-.138-7.473.023-11.2.158-3.535-2.679-5.349-5.445-5.678-1.78-.214-3.23.709-4.664,1.6-.276.171-.458.615-.862.416-.438-.217-.268-.687-.268-1.05-.021-1.692-.055-3.391.012-5.082.028-.9-.246-1.246-1.177-1.179a20.492,20.492,0,0,1-3.244.006c-.919-.081-1.186.148-1.174,1.1.063,3.515.034,7.034.034,10.55ZM333.722,196.4c-.058,1,.245,1.287,1.289.886a4.518,4.518,0,0,1,2.188-.058c1.41.225,1.561.162,1.561-1.26.009-2.823,0-5.65,0-8.475,0-3.868.009-7.732,0-11.6,0-1.751,0-1.741-1.689-1.666a9.256,9.256,0,0,1-2.209-.017c-1.215-.245-1.281.421-1.269,1.294.009,1.52,0,3.04,0,4.56,0,.845-.171,1.052-1.068.582a7.071,7.071,0,0,0-9.658,2.958,11.023,11.023,0,0,0,.329,10.609,5.875,5.875,0,0,0,4.966,3.458,6.2,6.2,0,0,0,5.228-1.771C333.711,196.05,333.731,196.224,333.722,196.4Zm-5.8-11.564c.409-1.661.951-2.321,2.8-2.555,1.234-.155,1.9.677,2.259,1.719a11.813,11.813,0,0,1-.181,9.37,2.1,2.1,0,0,1-2.3,1.211,2.447,2.447,0,0,1-2.486-2.054,11.226,11.226,0,0,1-.395-3.657A18.943,18.943,0,0,1,327.923,184.836Zm109.962,12.2a14.979,14.979,0,0,1,2.08.028c.81.077,1.046-.231,1.046-1.026q-.048-10.494-.012-21c.012-.9-.4-1.078-1.182-1.024a17.131,17.131,0,0,1-2.99.058c-.888-.1-1.026.213-1.013.977.043,1.564.021,3.127.009,4.689,0,.626-.243,1.15-.915.67a5.642,5.642,0,0,0-2.436-.64,6.616,6.616,0,0,0-6.948,2.8c-2.518,3.778-1.955,9.425.768,12.759a5.753,5.753,0,0,0,5.56,2.1,5.933,5.933,0,0,0,4.208-2.449C435.461,197.426,436.775,197.069,437.885,197.037Zm-2.9-3.9a2.342,2.342,0,0,1-2.67,1.243,2.753,2.753,0,0,1-2.113-2.258,20.105,20.105,0,0,1,.009-7.839,2.922,2.922,0,0,1,2.615-2.331,2.678,2.678,0,0,1,2.595,2.166,9.37,9.37,0,0,1,.531,4.026A7.937,7.937,0,0,1,434.982,193.136Zm-103,10.3a13.56,13.56,0,0,1-2.339,0c-.854-.069-1.141.256-1.141,1.1q.03,9.768.011,19.533c0,.747.213,1.11,1.035,1.062,1.09-.058,2.178-.051,3.254-.006.886.031,1.281-.352,1.271-1.217-.011-1-.011-2,0-2.994,0-1.786-.011-1.767,1.718-1.062.47.193,1.015.176,1.506.325a6.025,6.025,0,0,0,5.892-1.8c2.563-3.446,2.711-7.274,1.333-11.115a5.657,5.657,0,0,0-5.307-4.051,6.459,6.459,0,0,0-5.418,2.005C333.978,203.468,333.114,203.33,331.981,203.436ZM339,215.581c-.15,1.728-1,2.5-2.466,2.46a2.968,2.968,0,0,1-2.754-2.631c-.074-2.422-.086-4.851,0-7.273a2.6,2.6,0,0,1,2.87-2.3,2.212,2.212,0,0,1,2.436,2.347c.063,1.165.009,2.339.009,3.509h-.075C339.025,212.988,339.11,214.3,339,215.581Zm-32.951-33.967c.191-1.088-.331-1.329-1.3-1.254a23.792,23.792,0,0,1-2.861,0c-.7-.038-.992.122-.983.912.032,5.079.023,10.166,0,15.245,0,.768.223,1.116,1.056,1.02a19.412,19.412,0,0,1,2.478-.058c1.718.026,1.673.038,1.725-1.678.121-3.408-.36-6.84.429-10.229a3.148,3.148,0,0,1,2.694-2.486,2.64,2.64,0,0,1,2.5,1.842,12.247,12.247,0,0,1,.427,2.945c-.054,2.693,0,5.39-.029,8.086-.024,1.113.124,1.808,1.546,1.552a12.615,12.615,0,0,1,2.861.037c.585.028.915-.155.915-.778-.009-4.17.057-8.343-.084-12.51a3.876,3.876,0,0,0-2.411-3.847,7.675,7.675,0,0,0-8.839,2.16A4.51,4.51,0,0,1,306.054,181.614Zm-12.326,37.507c0,.73.118,1.3,1.023,1.3,3.781-.008,7.558,0,11.348-.008,1.13,0,.925-.843,1-1.571.109-.964-.481-.925-1.121-.922-1.783.021-3.567.011-5.346.06-.622.014-.821-.182-.811-.807.043-1.739.052-3.481,0-5.215-.034-.762.308-.843.917-.816,1.739.069,3.467.069,5.208.161.929.052,1.163-.311,1.177-1.2,0-.873-.269-1.1-1.124-1.072-1.78.066-3.564,0-5.349.038-.583.009-.839-.107-.83-.772q.064-2.868,0-5.741c-.009-.618.171-.839.8-.805,1.688.1,3.386-.09,5.085.15.606.087,1.395.17,1.405-.961.014-.943-.158-1.43-1.235-1.418-3.653.043-7.3.021-10.953.009-.834-.006-1.228.25-1.215,1.2.063,3.043.021,6.085.021,9.127C293.728,212.948,293.735,216.031,293.728,219.121Zm115.837-30.949c.493,0,.845-.047.854-.667.035-2.636-.64-4.948-2.847-6.645a9.413,9.413,0,0,0-5.776-1.632,8.935,8.935,0,0,0-6.567,2.155c-2.783,2.55-2.941,5.791-2.344,9.121a7.235,7.235,0,0,0,3.437,5.007c3.821,2.322,7.9,1.819,11.953.889.9-.2,1.613-.687,1.2-2.091-.338-1.2-.724-1.163-1.493-.634a6.977,6.977,0,0,1-2.71,1.237c-3.919.582-6.641-1.286-6.916-5.517-.058-.912.115-1.324,1.162-1.252,1.6.1,3.213.024,4.825.024C406.088,188.167,407.829,188.155,409.565,188.172ZM399.7,186.11c-1.451,0-1.569-.121-1.228-1.525a4.062,4.062,0,0,1,2.807-3.069,2.116,2.116,0,0,1,2.328.85,7.062,7.062,0,0,1,1,3.026c.141.6-.248.73-.759.718-.82-.008-1.644,0-2.463,0H399.7Zm-34.56,25.037c.406,0,.96.093.874-.608-.285-2.621-.713-5.156-3.189-6.783a9.028,9.028,0,0,0-3.183-1.185,10.626,10.626,0,0,0-7.653,1.018c-4.505,2.5-4.482,8.994-2.8,12.207,1.835,3.5,5.165,4.268,8.634,4.589a16.65,16.65,0,0,0,5.967-.885c.6-.162,1.186-.406,1.261-.983a2.1,2.1,0,0,0-.436-1.962c-.644-.54-1.092.288-1.519.533a6.54,6.54,0,0,1-6.423.351c-2.221-1.05-2.627-3.126-2.809-5.32-.064-.742.064-1,.844-.978,1.7.047,3.383.018,5.079.012C361.578,211.153,363.362,211.163,365.143,211.147Zm-9.254-1.687c-2.221.038-2.273-.069-1.731-2.214.45-1.736,2.338-3.134,4.1-2.391a2.7,2.7,0,0,1,1.561,2.12,10.648,10.648,0,0,0,.233,1.26c.269.746-.224,1.145-.906,1.212-.736.069-1.485.012-2.22.012Zm-31.03,10.947c.341-.021.8.246,1.015-.268.171-.436-.127-.724-.341-1.05-1.517-2.321-3.008-4.66-4.536-6.964a1.611,1.611,0,0,1,.129-2.243c1.419-1.757,2.6-3.692,3.971-5.49.37-.484.222-.724-.109-.911a3.1,3.1,0,0,0-3.127.886c-.7,1.047-1.471,2.056-2.068,3.167-.631,1.16-1.091.735-1.56-.035-.6-.969-1.144-1.972-1.719-2.951a1.926,1.926,0,0,0-1.976-1.124c-1.3.1-2.6.011-3.905.031-.364.006-.842-.2-1.058.262-.168.4.153.758.344,1.062,1.408,2.275,2.824,4.543,4.311,6.772a1.352,1.352,0,0,1-.129,1.891c-1.442,1.823-2.794,3.726-4.118,5.646-.214.315-1.1.854-.152,1.286a2.68,2.68,0,0,0,3.181-1.125c.822-1.264,1.656-2.53,2.477-3.79.447-.671.856-.854,1.315.021.447.848,1.043,1.629,1.451,2.5.906,1.97,2.23,3.069,4.513,2.446C323.464,220.425,324.167,220.449,324.86,220.406Zm72.581-17.04a5.379,5.379,0,0,0-3.031,4.589,4.14,4.14,0,0,0,2.584,4.15,37.887,37.887,0,0,0,4.47,1.667c1.508.528,2.436,1.733,2.116,2.763-.361,1.18-1.975,1.8-3.437,1.537a13.117,13.117,0,0,1-4.25-1.6c-.265-.148-.778-.484-1.033-.11a2.967,2.967,0,0,0-.6,2.194c.127.582.736.735,1.271.983a14.859,14.859,0,0,0,3.008.626,12.2,12.2,0,0,0,6.682-.6,4.78,4.78,0,0,0,3.545-4.583,4.858,4.858,0,0,0-3.045-4.955c-1.5-.761-3.187-.99-4.641-1.86-.9-.539-1.728-1.131-1.43-2.247.3-1.163,1.313-1.508,2.466-1.571,1.557-.084,2.847.742,4.227,1.206.545.184.821.562,1.1-.233.245-.7.929-1.444-.011-2.024a8.574,8.574,0,0,0-5.124-.974A8.242,8.242,0,0,0,397.441,203.367Zm-42.97-6.83c2.475-1.171,3.458-3.966,2.335-6.806-.746-1.889-2.391-2.589-4.161-3.1A10.054,10.054,0,0,1,348.888,185a1.905,1.905,0,0,1-.6-1.984c.129-.683.588-.9,1.2-1.148,1.941-.8,3.533.193,5.185.9.547.236,1.209.513,1.358-.256.141-.667,1.2-1.448-.149-2.161a9.348,9.348,0,0,0-2.722-.663c-3.085-.625-6.053-.309-8.5,1.825-2.22,1.955-2.488,6,.511,7.634a30.647,30.647,0,0,0,4.355,1.684c1.794.646,2.581,1.223,2.605,2.416.031,1.594-2.146,2.693-3.735,2.116a21.189,21.189,0,0,1-4.164-1.788c-.546-.34-1.076-.32-1.13.571a4.294,4.294,0,0,1-.3.983.961.961,0,0,0,.681,1.392,13.742,13.742,0,0,0,5.7,1.01A10.275,10.275,0,0,0,354.471,196.536Zm59.748-.386c0,.805.066,1.292,1.162,1.084a11.093,11.093,0,0,1,3.515-.011c.96.139,1.249-.133,1.249-1.026q-.016-10.815,0-21.641c.009-.784-.309-.955-.994-.932-1.26.032-2.518.069-3.778-.012-.917-.058-1.186.242-1.173,1.159.054,3.516.018,7.039.018,10.558C414.218,188.936,414.232,192.544,414.218,196.151Zm-29.927,9.921q0,5.683.011,11.371c.011.168.021.334.044.493.257.311.576.586.542,1.046a3.652,3.652,0,0,0,2.541,1.312,6.627,6.627,0,0,0,4.675-.793c.724-.39.363-1.174.308-1.777-.029-.367-.456-.309-.755-.246-1.537.321-2.093-.121-2.1-1.708-.014-3.079.04-6.169-.023-9.251-.023-.931.256-1.255,1.153-1.108.213.037.426-.011.651.012.579.058.906-.1.834-.769-.054-.56.061-1.159-.793-1.214-.586-.037-1.395.3-1.684-.2s-.118-1.26-.138-1.9c-.014-.262.02-.524-.014-.779-.052-.5-.214-.824-.82-.583a27.432,27.432,0,0,1-3.544.629c-1.015.246-1.315.577-1.2,1.5s-.086,1.535-1.22,1.353c-.949-.153-1,.453-1.055,1.185-.064.969.553.758,1.09.781.34.011.69.038,1.033.064C384.271,205.446,384.291,205.747,384.291,206.072Zm-14.645,13.16c-.009.886.291,1.271,1.219,1.2.863-.069,1.73-.015,2.605-.015,1.685,0,1.793-.113,1.8-1.75,0-3.086-.009-6.169,0-9.255a2.952,2.952,0,0,1,2.766-2.919c1.462.107,1.783-.459,1.557-1.713a2.439,2.439,0,0,1,0-.651c.077-.618-.191-.885-.811-.839a5.286,5.286,0,0,0-1.419.106c-1.013.4-1.953,1.33-3,.072-.095-.109-.415-.017-.64-.017-.906,0-1.825.06-2.731-.015-1.039-.092-1.381.314-1.349,1.329.044,2.342.014,4.689.014,7.04C369.659,214.28,369.681,216.755,369.646,219.232Zm-79.7-23.065c-.023.992.115,1.546,1.344,1.344a12.344,12.344,0,0,1,2.988-.02c1.035.069,1.356-.323,1.356-1.341-.044-4.9-.034-9.814-.014-14.719.014-.756-.138-1.116-.978-1.072-1.251.054-2.523.046-3.781,0-.735-.032-.929.234-.915.96.04,2.518.011,5.032.011,7.55C289.96,191.306,289.99,193.738,289.95,196.167Zm98.121-14.6c.043-1.078-.331-1.335-1.313-1.251a20.5,20.5,0,0,1-2.988.038c-.843-.055-1.111.2-1.091,1.067.066,2.209.024,4.419.024,6.627,0,2.775-.011,5.551,0,8.325.009.565.021,1.338.863,1a6.324,6.324,0,0,1,3.428-.181c1.151.181,1.065-.326,1.055-1.058-.009-2.471,0-4.943,0-7.412C388.048,186.337,387.986,183.945,388.071,181.567Zm-96.319-5.831a2.654,2.654,0,0,0-2.113,1.624c-.173.56.331.955.706,1.254a4.2,4.2,0,0,0,4.758-.078,1.278,1.278,0,0,0-.148-2.244c-.706-.325-1.43-.842-2.209-.565A4.14,4.14,0,0,0,291.751,175.736Zm92.284.012c-.684.268-1.5.475-1.76,1.287a1.38,1.38,0,0,0,.651,1.542,4.389,4.389,0,0,0,4.559.011c1.085-.848.98-1.719-.194-2.481a3.83,3.83,0,0,0-2.2-.432A2.8,2.8,0,0,0,384.035,175.748Z" transform="translate(-256.656 -173.605)" fill="#2a2727" />
				<path id="Path_45" data-name="Path 45" d="M277.995,221.054c.661.524,1.067,1.58,2.229,1.3.438-.106.972.051,1.173-.58a1.27,1.27,0,0,0-.413-1.516,6.7,6.7,0,0,0-1.636-.981,2.874,2.874,0,0,1-1.609-3.927c.395-1.148,2.338-1.953,3.809-1.632.822.179,1.676.308,1.347,1.52-.15.571-.341.788-.844.292-.2-.2-.227-.566-.62-.589-.631-.037-1.32-.318-1.718.409-.429.784.075,1.249.672,1.711.886.678,2.116.822,2.72,1.953a2.949,2.949,0,0,1-.7,3.773c-1.263.817-2.595,1.382-4.086.576-.972-.517-1.935-.006-2.9,0-.854.012-1.225-.178-1.418-1.039a2.307,2.307,0,0,0-3.308-1.612,2.07,2.07,0,0,0-.825,1.649,1.111,1.111,0,0,1-.531.972.868.868,0,0,1-.96-.018c-.5-.289-.136-.657-.046-.9.934-2.327,1.9-4.637,2.875-6.948a1.68,1.68,0,0,0,.181-.468c.044-.7.407-1.228,1.069-1.267.7-.031.886.577,1.119,1.2.92,2.419,1.944,4.8,2.95,7.183.113.268.018.816.54.732.45-.07.522-.522.6-.9C277.719,221.647,277.638,221.316,277.995,221.054Zm-6.03-1.393c.328-.161,1.11.246.926-.447-.148-.568-.158-1.607-.874-1.623-.836-.024-.854,1.046-.992,1.643C270.863,219.934,271.633,219.481,271.965,219.661Zm83.945.588v1.286c0,2.1,0,2.1-1.953,1.985-.49-.032-.6-.315-.588-.8.032-2.733.044-5.465,0-8.2-.011-.609.256-.629.683-.629,1.208,0,2.423.067,3.619-.023a2.157,2.157,0,0,1,2.3,1.453,2.2,2.2,0,0,1-.726,2.774c-.9.62-1.035,1.249-.291,2.135a22.816,22.816,0,0,1,1.528,2.338.619.619,0,0,1,.087.719c-.205.348-.47.017-.652.081-1.868.657-2.252-.87-2.935-1.953-.257-.416-.5-.85-.746-1.271C356.125,220.177,356.016,220.212,355.91,220.249Zm-.084-3.8c.427.507-.566,1.617.749,1.673,1.215.055,1.024-.934,1.033-1.662.011-.69.171-1.555-.995-1.543C355.3,214.934,356.2,215.963,355.826,216.45ZM301.869,219.5a8.332,8.332,0,0,0-.075,2.968c.023.683-.136,1.03-.917.869-.629-.122-1.644.412-1.485-.9a31.924,31.924,0,0,0-.009-7.5c-.095-.764.181-1.1,1.006-1.055,1.078.06,2.163.035,3.245.006a2.145,2.145,0,0,1,2.2,1.237,2.717,2.717,0,0,1-.811,3.143c-.958.556-.843,1.036-.288,1.783a26.53,26.53,0,0,1,1.635,2.546c.095.17.49.3.182.628-.366.386-2.457.07-2.755-.43C303.183,221.758,302.575,220.713,301.869,219.5Zm-.147-2.866a10.327,10.327,0,0,0,.011,1.287c.021.227.127.631.426.511.641-.256,1.419-.475,1.56-1.274s.243-1.687-.631-2.162C302.1,214.464,301.689,214.956,301.723,216.635Zm115.774,3.3c0,.96-.041,1.751.012,2.54.106,1.618-1.144.7-1.721.871-.651.187-.769-.354-.721-1a46.421,46.421,0,0,0,0-7.524c-.069-.71.136-.946.819-.928,1.173.021,2.339.037,3.512-.011a2.072,2.072,0,0,1,2.168,1.43,2.2,2.2,0,0,1-.693,2.769c-1.038.635-.972,1.289-.3,2.157a24.378,24.378,0,0,1,1.5,2.338c.308.514.329.709-.482.8a2.328,2.328,0,0,1-2.734-1.646A3.173,3.173,0,0,0,417.5,219.934Zm2.027-3.314v-.337a1.3,1.3,0,0,0-1.555-1.4c-.909.072-.354.828-.459,1.261a4.482,4.482,0,0,0-.023,1.157c0,.378-.086.9.279,1.052.438.176.917-.187,1.215-.464C419.311,217.567,419.686,217.126,419.523,216.62Zm-41.7,1.9c0-1.3.021-2.6-.011-3.9-.011-.571.181-.758.744-.736,1.22.043,2.439.026,3.654.006a1.714,1.714,0,0,1,1.835,1.136,2.186,2.186,0,0,1-.395,2.526c-.726.591-.522,1.023.095,1.488a1.826,1.826,0,0,1,.727,2.263,2.98,2.98,0,0,1-2.073,2.053c-1.405.375-2.743-.329-4.119.087-.458.138-.458-.491-.458-.886Zm4.236,2.589c0-.5-.011-.671,0-.843.077-1-.722-1.312-1.387-1.336-.854-.037-.674.784-.683,1.353-.009.432,0,.86,0,1.292.02.9.438,1.007,1.228.735A1.129,1.129,0,0,0,382.06,221.112Zm-.011-4.712c.011-1.154-.447-1.67-1.343-1.606s-.707.781-.716,1.344c-.009.354,0,.7,0,1.046.02,1.064.522,1,1.261.582A1.367,1.367,0,0,0,382.049,216.4Zm-89.691,4.68c0,2.316,0,2.307,2.2,2.243a13.947,13.947,0,0,1,1.675.08c.351.031.683.142,1.026.148a.661.661,0,0,0,.758-.689c.032-.582-.341-.614-.758-.618-.182,0-.354,0-.524,0-1.88-.021-1.835-.026-1.88-1.976-.009-.874.191-1.194,1.131-1.2.643-.012,1.84.606,1.892-.592.052-1.359-1.22-.75-1.9-.785-.82-.032-1.131-.222-1.122-1.1.044-1.633-.009-1.626,1.666-1.37a3.191,3.191,0,0,0,.651,0c.493-.011.836-.162.845-.744.011-.617-.429-.566-.8-.573-1.4-.011-2.785.015-4.175-.018-.522-.009-.721.115-.7.684.044,1.3.011,2.6.02,3.908Zm115.733,1.269c-.04.989.314,1.408,1.306,1.133a4.94,4.94,0,0,1,2.8,0,1.419,1.419,0,0,0,1.422-.367.456.456,0,0,0,.018-.6c-.317-.4-.788-.263-1.2-.268-1.835-.038-1.74-.04-1.858-1.638-.1-1.312.389-1.7,1.594-1.511a4.27,4.27,0,0,0,.906-.009.608.608,0,0,0,.64-.672.656.656,0,0,0-.6-.733,12.181,12.181,0,0,0-1.688-.026c-.617.026-.808-.234-.842-.843-.1-1.793-.075-1.834,1.719-1.607a1.121,1.121,0,0,0,.631-.035c.318-.167.811-.22.778-.747-.041-.583-.5-.517-.874-.524-1.3-.018-2.607.037-3.908-.021-.747-.031-.853.3-.845.931.034,1.251.012,2.511.012,3.77S408.148,221.093,408.091,222.349ZM327.2,213.685a3.8,3.8,0,0,0-1.548.026,3,3,0,0,0-2.541,2.552,2.65,2.65,0,0,0,1.762,2.928,9.762,9.762,0,0,1,1.826,1.058,1.107,1.107,0,0,1-.142,1.985,2.037,2.037,0,0,1-2.258-.461c-.185-.207-.1-.724-.5-.628s-.493.533-.631.909c-.449,1.171.511,1.234,1.162,1.523,1.238.548,4.132-.314,4.816-2.174.522-1.45-.291-2.971-2.135-3.845a6.814,6.814,0,0,1-1.5-.908,1.014,1.014,0,0,1-.291-1.157c.11-.47.5-.547.9-.6a1.661,1.661,0,0,1,1.878,1.153C329.387,214.244,328.587,214.026,327.2,213.685Zm10.256,9.612c-1.355.531-1.718-.268-1.953-1.474-.138-.655-.47-1.41-1.5-1.174-.845.191-2.083-.505-2.244,1.11-.031.331-.256.635-.318.971a.9.9,0,0,1-1.271.69c-.608-.182-.3-.732-.162-1.095.675-1.707,1.4-3.4,2.093-5.1.343-.828.608-1.692,1.015-2.481.182-.349.2-.981.865-.917a1.158,1.158,0,0,1,1.176.906c.938,2.587,2.005,5.127,3.092,7.663C338.63,223.289,338.643,223.684,337.456,223.3Zm-5.038-3.8c2.221.294,2.21.294,1.653-1.46-.086-.274-.116-.566-.191-.925C332.847,217.634,333.1,218.727,332.418,219.5Zm14.1,3.011c-.032.822.276,1.165,1.068.945a9.076,9.076,0,0,1,3.117-.086c.522.038,1.076.245,1.142-.537.063-.833-.6-.513-1-.589-.576-.1-1.335.309-1.71-.234a3.037,3.037,0,0,1-.351-2.509c.233-.773,1.056-.286,1.6-.4a2.439,2.439,0,0,1,.768-.006c.45.044.661-.162.672-.582s-.075-.8-.588-.839c-.381-.031-.778-.008-1.171-.014-1.324-.017-1.514-.25-1.3-1.526.152-.908.545-1.421,1.56-1.116a1.548,1.548,0,0,0,.745.121c.355-.072.791-.087.8-.66,0-.6-.363-.582-.781-.582-1.258.006-2.518.043-3.778-.018-.661-.026-.8.222-.79.821.034,1.3.011,2.6.011,3.907S346.571,221.21,346.517,222.512Zm-84.49.047c0,.288-.119.764.236.795a4.679,4.679,0,0,0,1.993-.153c.574-.205.214-.839.17-1.281-.283-2.552-.263-2.595,2.2-2.818.364-.032.73.006.675-.53-.054-.426,0-.911-.651-.917-.384,0-.779-.032-1.174.006-.876.086-1.11-.331-1.11-1.148,0-1.649,0-1.681,1.661-1.382a2.456,2.456,0,0,0,.389.066c.533.024,1.01-.144,1.058-.712.061-.646-.494-.586-.92-.586-1.215,0-2.434.037-3.653-.018-.683-.029-.915.158-.894.862.054,1.3.021,2.605.021,3.905S262.013,221.255,262.027,222.559Zm77.726-4.012V220.5c0,.651.031,1.3-.012,1.949-.054.672.032.859.866.943,1.437.15,1.523-.459,1.491-1.591-.072-2.437-.029-2.46,2.2-2.693.511-.055.7-.242.683-.71-.018-.427-.171-.759-.693-.736-.4.014-.776-.026-1.174.006-.8.064-1.035-.311-1.055-1.079-.032-1.718-.023-1.747,1.718-1.479a2.139,2.139,0,0,0,.768.031.734.734,0,0,0,.661-.693c0-.436-.32-.553-.716-.548-1.428.006-2.858,0-4.291,0-.426,0-.554.112-.511.625.086,1.333.02,2.684.02,4.025Zm-53.187,3.232c-.066,1.059-.185,1.858,1.46,1.63.879-.124,1.068-.2,1.049-1.02-.046-1.99.029-3.988-.034-5.978-.032-1.122.119-1.831,1.471-1.3a.492.492,0,0,0,.736-.449c.046-.308.152-.762-.4-.768-2.082,0-4.152.006-6.232.021-.28,0-.5.107-.524.447a.534.534,0,0,0,.36.6,1.206,1.206,0,0,0,.984.087c.919-.332,1.219.087,1.153,1.013-.063,1.076-.011,2.16-.011,3.244C286.575,220.131,286.618,220.958,286.566,221.778Zm104.847-7.859c-1.474-.006-2.95.021-4.432-.026-.681-.028-.885.159-.862.87.069,2.128.061,4.257.061,6.387.008,2.166.008,2.166,2.243,2.151a7.243,7.243,0,0,0,1.3-.011c.579-.106,1.643.588,1.643-.507s-1.088-.323-1.652-.516c-.427-.144-1.177.217-1.292-.289a5.489,5.489,0,0,1,.009-2.576c.162-.588.994-.21,1.516-.32s1.485.445,1.431-.71c-.041-1.062-.929-.6-1.5-.7a1.275,1.275,0,0,0-.389,0c-.915.113-1.13-.292-1.2-1.182-.07-1.272.3-1.751,1.584-1.522a8.052,8.052,0,0,0,1.557-.029C391.433,214.6,391.422,214.259,391.413,213.919Zm8.407.683c.109.106.227.213.332.32.312.006.606.012.919.015,1.121-.187,1.387.37,1.344,1.384-.072,1.952-.063,3.907-.063,5.854,0,.415-.213,1.084.213,1.183a5.312,5.312,0,0,0,1.943-.112c.32-.046.351-.344.277-.625-.534-2-.052-4.051-.269-6.061-.122-1.315.257-1.854,1.613-1.549.418.093.9.043.877-.611s-.5-.488-.845-.491c-1.826-.017-3.648,0-5.463-.017a.961.961,0,0,0-.9.393C399.81,214.392,399.81,214.495,399.82,214.6Zm-2.06-.715c-1.77.023-3.53.011-5.294.011-.341,1.039.28,1.17,1.067,1.127.845-.225,1.176.043,1.144.955-.075,2.166-.064,4.332-.095,6.5-.009.4-.055,1.042.351.946.632-.142,1.294.253,1.86-.187-.289-2.563-.055-5.128-.118-7.7a.506.506,0,0,1,.531-.582c.886-.017,1.828.374,2.615-.357-.011-.107-.011-.21-.02-.315A3.589,3.589,0,0,0,397.76,213.887Zm-.651,8.254c.054-2.39.064-4.785.1-7.183a.506.506,0,0,0-.531.582c.063,2.569-.171,5.134.118,7.7C397.391,223.026,397.1,222.512,397.109,222.141Zm3.962-7.2c-.312,0-.606-.009-.919-.015C400.451,215.482,400.759,215.106,401.071,214.937Z" transform="translate(-253.817 -152.367)" fill="#ed2e34" />
			</g>
		</g>
	</g>
</svg>
